<svg xmlns="http://www.w3.org/2000/svg" xmlns:xlink="http://www.w3.org/1999/xlink" width="715" height="715" viewBox="0 0 715 715">
  <defs>
    <linearGradient id="linear-gradient" x1="0.5" x2="0.5" y2="1" gradientUnits="objectBoundingBox">
      <stop offset="0" stop-color="#005257"/>
      <stop offset="1" stop-color="#19c17e"/>
    </linearGradient>
    <linearGradient id="linear-gradient-2" x1="0.5" x2="0.5" y2="1" gradientUnits="objectBoundingBox">
      <stop offset="0" stop-color="#19c17e"/>
      <stop offset="0.732" stop-color="#067061"/>
      <stop offset="0.862" stop-color="#03615c"/>
      <stop offset="1" stop-color="#005257"/>
    </linearGradient>
    <linearGradient id="linear-gradient-4" x2="-0.346" xlink:href="#linear-gradient"/>
  </defs>
  <g id="Group_18" data-name="Group 18" transform="translate(-449 -848)">
    <circle id="Ellipse_12" data-name="Ellipse 12" cx="357.5" cy="357.5" r="357.5" transform="translate(449 848)" fill="#e3e3e3"/>
    <text id="dropstori" transform="translate(605 1464)" fill="#005257" font-size="93" font-family="VarelaRound-Regular, Varela Round"><tspan x="0" y="0">dropstori</tspan></text>
    <g id="Group_13" data-name="Group 13" transform="translate(297.23 737.925)">
      <g id="Group_11" data-name="Group 11" transform="matrix(0.978, 0.208, -0.208, 0.978, 390.179, 123.016)">
        <g id="Path_17" data-name="Path 17" transform="translate(-0.491 149.146)" fill="url(#linear-gradient)">
          <path d="M 154.8471221923828 293.3775939941406 C 143.36865234375 293.3775939941406 131.9563598632812 292.2795104980469 120.9272384643555 290.1138000488281 C 110.1803207397461 288.0035095214844 99.68820190429688 284.859130859375 89.74232482910156 280.7680053710938 C 79.96832275390625 276.7476196289062 70.64432525634766 271.7818298339844 62.02919769287109 266.008544921875 C 53.47874069213867 260.2786254882812 45.57078170776367 253.7162475585938 38.52494812011719 246.5037994384766 C 32.32882308959961 240.1611328125 26.74911499023438 233.2611236572266 21.94086456298828 225.9954223632812 C 17.08086585998535 218.6515808105469 12.95107364654541 210.8460540771484 9.666156768798828 202.7956237792969 C 6.32144832611084 194.5987548828125 3.808740139007568 186.0389251708984 2.197698593139648 177.3538360595703 C 0.5471152067184448 168.4551696777344 -0.1810931414365768 159.2913360595703 0.03340686112642288 150.1167602539062 C 0.2659901976585388 140.16796875 1.605990171432495 130.2018737792969 4.016198635101318 120.4953765869141 C 6.365365028381348 111.03466796875 9.758907318115234 101.7055435180664 14.10253143310547 92.76725769042969 C 18.36794853210449 83.98983764648438 23.59207344055176 75.50021362304688 29.6298656463623 67.53421020507812 C 35.61111450195312 59.6427116394043 42.44265747070312 52.19617080688477 49.93470001220703 45.4013786315918 C 57.42757415771484 38.60583877563477 65.6427001953125 32.40633773803711 74.35190582275391 26.97504615783691 C 83.14519500732422 21.4913387298584 92.51969909667969 16.74279594421387 102.2149505615234 12.86137962341309 C 112.0897369384766 8.908088684082031 122.3992385864258 5.81417179107666 132.8569946289062 3.665630102157593 C 143.5876922607422 1.461004972457886 154.6080322265625 0.2251300066709518 165.6119079589844 -0.007661661598831415 C 166.8949890136719 -0.0347866602241993 168.1945343017578 -0.04853666201233864 169.4744415283203 -0.04853666201233864 C 180.9529113769531 -0.04853666201233864 192.3652038574219 1.049546718597412 203.3943176269531 3.21525502204895 C 214.1412353515625 5.325546741485596 224.6334075927734 8.469922065734863 234.5792846679688 12.5610466003418 C 244.3532409667969 16.5814208984375 253.6772766113281 21.54725456237793 262.2924194335938 27.32050514221191 C 270.8428344726562 33.05046463012695 278.7508239746094 39.61279678344727 285.7966613769531 46.82529830932617 C 291.9927368164062 53.16796493530273 297.5724487304688 60.06796264648438 302.3807067871094 67.33363342285156 C 307.2406921386719 74.67750549316406 311.3704833984375 82.48304748535156 314.6553955078125 90.53342437744141 C 318.0000610351562 98.73029327392578 320.5127868652344 107.290168762207 322.123779296875 115.975212097168 C 323.7744140625 124.8738784790039 324.5025634765625 134.0377197265625 324.2880859375 143.2122955322266 C 324.0555419921875 153.1610870361328 322.7155456542969 163.1271667480469 320.3053283691406 172.8336791992188 C 317.9561462402344 182.2943725585938 314.5626220703125 191.6235046386719 310.218994140625 200.5617980957031 C 305.95361328125 209.3392181396484 300.7294616699219 217.8288421630859 294.6917114257812 225.7948455810547 C 288.71044921875 233.6863403320312 281.87890625 241.1328735351562 274.3868713378906 247.9276733398438 C 266.89404296875 254.7232208251953 258.6788940429688 260.9226989746094 249.9696960449219 266.35400390625 C 241.1763610839844 271.8377075195312 231.8019104003906 276.5862426757812 222.1066589355469 280.4676818847656 C 212.2318267822266 284.4209594726562 201.92236328125 287.514892578125 191.4645690917969 289.6634216308594 C 180.7338714599609 291.8680419921875 169.7135314941406 293.1039123535156 158.7096557617188 293.3367004394531 C 157.4265747070312 293.3638305664062 156.1270294189453 293.3775939941406 154.8471221923828 293.3775939941406 Z" stroke="none"/>
          <path d="M 169.474609375 0.45147705078125 C 168.1985778808594 0.45147705078125 166.9025268554688 0.4652099609375 165.6224975585938 0.4923095703125 C 154.6487884521484 0.72442626953125 143.6587371826172 1.956878662109375 132.9576110839844 4.155426025390625 C 122.5288696289062 6.298004150390625 112.2480316162109 9.38330078125 102.4007415771484 13.32559204101562 C 92.7327880859375 17.196044921875 83.38482666015625 21.93118286132812 74.616455078125 27.39935302734375 C 65.93252563476562 32.81484985351562 57.74136352539062 38.9962158203125 50.27056884765625 45.77175903320312 C 42.80142211914062 52.54579162597656 35.99093627929688 59.96937561035156 30.0283203125 67.83625793457031 C 24.01028442382812 75.77621459960938 18.80337524414062 84.23776245117188 14.55224609375 92.98579406738281 C 10.22381591796875 101.8927917480469 6.842254638671875 111.1889190673828 4.501434326171875 120.6158752441406 C 2.100067138671875 130.2868347167969 0.764984130859375 140.2162933349609 0.533233642578125 150.1284637451172 C 0.319580078125 159.2685852050781 1.04498291015625 168.3978271484375 2.6893310546875 177.2626342773438 C 4.294158935546875 185.914306640625 6.7972412109375 194.4412536621094 10.12905883789062 202.6067199707031 C 13.401611328125 210.626708984375 17.51596069335938 218.4029541015625 22.35781860351562 225.7194213867188 C 27.14874267578125 232.9588775634766 32.70849609375 239.8341674804688 38.88262939453125 246.1543426513672 C 45.9044189453125 253.3422088623047 53.78570556640625 259.88232421875 62.30758666992188 265.5931396484375 C 70.89498901367188 271.3478698730469 80.18940734863281 276.2978515625 89.93257141113281 280.3056030273438 C 99.84823608398438 284.3842468261719 110.3087768554688 287.5191345214844 121.0236511230469 289.6231384277344 C 132.0211181640625 291.7826232910156 143.4009857177734 292.8775939941406 154.8471984863281 292.8775939941406 C 156.1244049072266 292.8775939941406 157.4203643798828 292.8638916015625 158.6990661621094 292.8367919921875 C 169.6727752685547 292.6046752929688 180.6628265380859 291.3721618652344 191.3639526367188 289.1736450195312 C 201.7926940917969 287.0310363769531 212.073486328125 283.94580078125 221.9208221435547 280.0035095214844 C 231.5887756347656 276.1329956054688 240.9367370605469 271.3979187011719 249.7051086425781 265.9297485351562 C 258.3890380859375 260.5142211914062 266.5801696777344 254.3328399658203 274.0509643554688 247.5572967529297 C 281.5201110839844 240.7832641601562 288.3306274414062 233.3597106933594 294.2932434082031 225.4927978515625 C 300.3112487792969 217.5528411865234 305.5181579589844 209.0912933349609 309.769287109375 200.34326171875 C 314.0976867675781 191.4362487792969 317.4792785644531 182.14013671875 319.8200378417969 172.7131652832031 C 322.2214050292969 163.0422058105469 323.5564880371094 153.1127624511719 323.7882385253906 143.2005920410156 C 324.0018920898438 134.0604705810547 323.2764892578125 124.9311676025391 321.6321716308594 116.0663757324219 C 320.0273742675781 107.4147186279297 317.5242919921875 98.88771057128906 314.1924438476562 90.72225952148438 C 310.9199523925781 82.70225524902344 306.8056030273438 74.92601013183594 301.9637451171875 67.60951232910156 C 297.1728210449219 60.37008666992188 291.6130981445312 53.49479675292969 285.4389953613281 47.17463684082031 C 278.4172058105469 39.98675537109375 270.5359497070312 33.44662475585938 262.0140991210938 27.73583984375 C 253.4266662597656 21.98114013671875 244.13232421875 17.03115844726562 234.38916015625 13.02346801757812 C 224.4734802246094 8.94476318359375 214.012939453125 5.80987548828125 203.2981262207031 3.70587158203125 C 192.3007049560547 1.546417236328125 180.9208221435547 0.45147705078125 169.474609375 0.45147705078125 M 169.474609375 -0.54852294921875 C 257.4596862792969 -0.54852294921875 326.6608276367188 63.11387634277344 324.7879333496094 143.2239685058594 C 322.8878784179688 224.5048370361328 248.5367736816406 291.9364318847656 158.7202453613281 293.8365783691406 C 157.4264984130859 293.8639526367188 156.1330718994141 293.8775939941406 154.8471984863281 293.8775939941406 C 66.86215209960938 293.8775939941406 -2.339263916015625 230.2151336669922 -0.466461181640625 150.1050872802734 C 1.433685302734375 68.82421875 75.78477478027344 1.39263916015625 165.601318359375 -0.50750732421875 C 166.8950653076172 -0.53485107421875 168.1887359619141 -0.54852294921875 169.474609375 -0.54852294921875 Z" stroke="none" fill="#707070"/>
        </g>
        <path id="Path_18" data-name="Path 18" d="M67.871-.208c36.821-.779,66.049,25.182,65.282,57.985S101.915,117.8,65.094,118.582-.955,93.4-.188,60.6,31.05.571,67.871-.208Z" transform="translate(95.183 236.811)" fill="#fff"/>
        <path id="Path_19" data-name="Path 19" d="M61.551-.19C90.916-.811,114.218,20.228,113.6,46.8l-8.621,368.776c-.621,26.575-24.93,48.621-54.3,49.242S-1.987,444.4-1.366,417.828L7.255,49.052C7.877,22.478,32.186.431,61.551-.19Z" transform="translate(229.33 -0.744)" fill="url(#linear-gradient-2)"/>
        <path id="Path_20" data-name="Path 20" d="M39.963-.124C57.513-.5,71.44,12.079,71.069,27.962l-8.85,378.55c-.371,15.883-14.9,29.059-32.45,29.43s-31.477-12.2-31.105-28.085l8.85-378.55C7.884,13.424,22.413.247,39.963-.124Z" transform="translate(253.576 18.672)" fill="#fff"/>
        <path id="Path_21" data-name="Path 21" d="M17.386-.054c5.85-.124,10.492,4.068,10.368,9.362L20.074,337.86c-.124,5.294-4.967,9.686-10.817,9.81S-1.235,343.6-1.111,338.308L6.569,9.756C6.693,4.461,11.536.069,17.386-.054Z" transform="translate(277.263 59.91)" fill="url(#linear-gradient)"/>
      </g>
      <g id="people-svgrepo-com_1_" data-name="people-svgrepo-com(1)" transform="translate(407.837 385.279)">
        <path id="Path_4" data-name="Path 4" d="M67.808,52.938c-7.716-2.76-8.818-5.52-8.818-8.281s2.2-5.52,4.96-7.528a17.842,17.842,0,0,0,7.165-14.554C71.115,11.535,63.124,2,49.07,2,36.118,2,28.4,10.03,27.3,19.816a2.594,2.594,0,0,0,1.378,2.258,32.962,32.962,0,0,1,16.81,29.358A30.478,30.478,0,0,1,33.914,75.521a1.425,1.425,0,0,0,0,2.007c1.929,1.255,6.338,3.011,9.094,4.266a7.008,7.008,0,0,0,2.2.5H78.556c6.338,0,11.3-4.768,11.3-10.037V70.754C89.854,61.971,79.382,57.2,67.808,52.938Z" transform="translate(42.419 -2)" fill="url(#linear-gradient-4)"/>
        <path id="Path_5" data-name="Path 5" d="M75.3,72.573c-9.369-3.513-10.747-6.524-10.747-9.786s2.756-6.524,5.787-9.033A21.314,21.314,0,0,0,78.883,36.44c0-13.048-9.369-24.34-26.454-24.34-16.81,0-26.454,11.292-26.454,24.34a21.313,21.313,0,0,0,8.543,17.314c3.031,2.509,5.787,5.771,5.787,9.033s-1.378,6.524-11.023,9.786C15.5,77.592,2,83.363,2,93.9v3.262c0,5.52,4.96,10.037,11.3,10.037H89.631c6.338,0,11.574-4.517,11.574-10.037V93.651C101.2,83.363,89.079,77.592,75.3,72.573Z" transform="translate(-2 13.243)" fill="url(#linear-gradient-4)"/>
      </g>
    </g>
  </g>
</svg>
