<svg xmlns="http://www.w3.org/2000/svg" xmlns:xlink="http://www.w3.org/1999/xlink" width="1040.301" height="1263.194" viewBox="0 0 1040.301 1263.194">
  <defs>
    <linearGradient id="linear-gradient" x1="0.5" x2="0.5" y2="1" gradientUnits="objectBoundingBox">
      <stop offset="0" stop-color="#005257"/>
      <stop offset="1" stop-color="#19c17e"/>
    </linearGradient>
    <linearGradient id="linear-gradient-2" x1="0.5" x2="0.5" y2="1" gradientUnits="objectBoundingBox">
      <stop offset="0" stop-color="#19c17e"/>
      <stop offset="0.732" stop-color="#067061"/>
      <stop offset="0.862" stop-color="#03615c"/>
      <stop offset="1" stop-color="#005257"/>
    </linearGradient>
    <linearGradient id="linear-gradient-4" x2="-0.346" xlink:href="#linear-gradient"/>
  </defs>
  <g id="Group_16" data-name="Group 16" transform="translate(-297.399 -234.91)">
    <g id="Group_11" data-name="Group 11" transform="matrix(0.978, 0.208, -0.208, 0.978, -85.813, -200.507)">
      <g id="Ellipse_7" data-name="Ellipse 7" transform="translate(680 573)" stroke="#707070" stroke-width="1" fill="url(#linear-gradient)">
        <circle cx="391.5" cy="391.5" r="391.5" stroke="none"/>
        <circle cx="391.5" cy="391.5" r="391" fill="none"/>
      </g>
      <path id="Path_16" data-name="Path 16" d="M160.5,0C249.142,0,321,70.739,321,158S249.142,316,160.5,316,0,245.261,0,158,71.858,0,160.5,0Z" transform="translate(911 807)" fill="#151d3b"/>
      <rect id="Rectangle_11" data-name="Rectangle 11" width="256" height="1237" rx="128" transform="translate(1238 182)" fill="url(#linear-gradient-2)"/>
      <rect id="Rectangle_13" data-name="Rectangle 13" width="153" height="1160" rx="76.5" transform="translate(1297 234)" fill="#151d3b"/>
      <rect id="Rectangle_14" data-name="Rectangle 14" width="51" height="925" rx="25.5" transform="translate(1353 344)" fill="url(#linear-gradient)"/>
    </g>
    <g id="people-svgrepo-com_1_" data-name="people-svgrepo-com(1)" transform="translate(570.468 801.425)">
      <path id="Path_4" data-name="Path 4" d="M124.381,138.179c-18.492-7.379-21.133-14.758-21.133-22.137s5.283-14.758,11.887-20.125c11.227-9.392,17.171-23.479,17.171-38.908C132.306,27.492,113.154,2,79.473,2,48.433,2,29.942,23.467,27.3,49.629a7.07,7.07,0,0,0,3.3,6.037c25.1,16.1,40.285,44.275,40.285,78.488,0,25.492-9.906,48.3-27.738,64.4a4.13,4.13,0,0,0,0,5.367c4.623,3.354,15.19,8.05,21.794,11.4,1.981.671,3.3,1.342,5.283,1.342h79.91a27.279,27.279,0,0,0,27.077-26.833v-4.025C177.215,162.329,152.119,149.583,124.381,138.179Z" transform="translate(141.785 0)" fill="url(#linear-gradient-4)"/>
      <path id="Path_5" data-name="Path 5" d="M177.671,173.771c-22.454-9.392-25.756-17.442-25.756-26.162s6.6-17.442,13.869-24.15c13.208-11.4,20.473-27.5,20.473-46.287,0-34.883-22.454-65.071-63.4-65.071-40.285,0-63.4,30.187-63.4,65.071,0,18.783,7.265,34.883,20.473,46.287,7.265,6.708,13.869,15.429,13.869,24.15s-3.3,17.442-26.417,26.162C34.36,187.187,2,202.617,2,230.792v8.721a26.846,26.846,0,0,0,27.077,26.833H212.013c15.19,0,27.738-12.075,27.738-26.833v-9.392C239.75,202.617,210.692,187.187,177.671,173.771Z" transform="translate(0 57.654)" fill="url(#linear-gradient-4)"/>
    </g>
  </g>
</svg>
