<svg xmlns="http://www.w3.org/2000/svg" width="32.988" height="34.495" viewBox="0 0 32.988 34.495">
  <path id="linkedin-svgrepo-com" d="M30,0H2.984A3.055,3.055,0,0,0,0,3.12V31.375A3.055,3.055,0,0,0,2.984,34.5H30a3.055,3.055,0,0,0,2.984-3.12V3.12A3.055,3.055,0,0,0,30,0Zm-19.8,29.785a.889.889,0,0,1-.868.908h-3.7a.889.889,0,0,1-.868-.908v-16.2a.889.889,0,0,1,.868-.908h3.7a.889.889,0,0,1,.868.908ZM7.491,11.146A3.6,3.6,0,0,1,3.979,7.474,3.6,3.6,0,0,1,7.491,3.8,3.6,3.6,0,0,1,11,7.474,3.6,3.6,0,0,1,7.491,11.146ZM29.526,29.858a.817.817,0,0,1-.8.835H24.761a.817.817,0,0,1-.8-.835v-7.6c0-1.134.318-4.968-2.834-4.968-2.445,0-2.941,2.625-3.04,3.8v8.766a.817.817,0,0,1-.8.835H13.454a.817.817,0,0,1-.8-.835V13.508a.817.817,0,0,1,.8-.835H17.29a.817.817,0,0,1,.8.835v1.414C19,13.5,20.342,12.4,23.211,12.4c6.352,0,6.315,6.205,6.315,9.615v7.842Z" fill="#0077b7"/>
</svg>
