<svg id="Phone" xmlns="http://www.w3.org/2000/svg" width="24" height="38.431" viewBox="0 0 24 38.431">
  <rect id="Rectangle_320" data-name="Rectangle 320" fill="none"/>
  <path id="Path_110" data-name="Path 110" d="M13.929,27.45,16.5,23.676a.628.628,0,0,1,.643-.343l.429.343,6,4.461c.429.343.429.686.429,1.373-.214,2.745-.643,4.8-1.714,6.176a5.2,5.2,0,0,1-4.5,2.745,9.4,9.4,0,0,1-6-2.4,33.087,33.087,0,0,1-6-6.863,67.7,67.7,0,0,1-3.214-7.549A64.371,64.371,0,0,1,.429,14.068,33.353,33.353,0,0,1,0,7.549,11.939,11.939,0,0,1,1.5,2.4,5.455,5.455,0,0,1,5.571,0C6,0,6.214.343,6.429.686l3.214,9.608a1.512,1.512,0,0,0,.214.686,1.794,1.794,0,0,1-.214,1.029L6.857,16.127a2.322,2.322,0,0,0,0,1.716,36.112,36.112,0,0,0,2.571,5.49,27.9,27.9,0,0,0,3.429,4.461C13.286,28.137,13.714,28.137,13.929,27.45Z" transform="translate(0 0)" fill="#2699fb"/>
</svg>
