<svg id="Twitter" xmlns="http://www.w3.org/2000/svg" width="33" height="33" viewBox="0 0 33 33">
  <rect id="Rectangle_1457" data-name="Rectangle 1457" width="33" height="33" transform="translate(0)" fill="none"/>
  <path id="Path_2" data-name="Path 2" d="M48.446,28.757c12.462,0,19.243-10.263,19.243-19.243V8.6a14.9,14.9,0,0,0,3.3-3.482,15.214,15.214,0,0,1-3.849,1.1A7.13,7.13,0,0,0,70.072,2.55,16.81,16.81,0,0,1,65.857,4.2,6.545,6.545,0,0,0,60.908,2a6.886,6.886,0,0,0-6.781,6.781,3.573,3.573,0,0,0,.183,1.466A18.948,18.948,0,0,1,40.382,3.1a7.018,7.018,0,0,0-.916,3.482A7.281,7.281,0,0,0,42.4,12.263a6.178,6.178,0,0,1-3.116-.916h0a6.7,6.7,0,0,0,5.5,6.6,5.65,5.65,0,0,1-1.833.183,3.119,3.119,0,0,1-1.283-.183,6.943,6.943,0,0,0,6.414,4.765,13.837,13.837,0,0,1-8.43,2.932A5.074,5.074,0,0,1,38,25.458a17.3,17.3,0,0,0,10.446,3.3" transform="translate(-38)" fill="#2699fb" fill-rule="evenodd"/>
</svg>
