<svg id="Messaging-amico" xmlns="http://www.w3.org/2000/svg" width="471.1" height="469.341" viewBox="0 0 471.1 469.341">
  <g id="freepik--Floor--inject-188" transform="translate(0 197.341)">
    <ellipse id="freepik--floor--inject-188-2" data-name="freepik--floor--inject-188" cx="235.55" cy="136" rx="235.55" ry="136" fill="#f5f5f5"/>
  </g>
  <g id="freepik--Shadow--inject-188" transform="translate(179.457 293.719)">
    <path id="freepik--shadow--inject-188-2" data-name="freepik--shadow--inject-188" d="M212.62,458.93l88.12-50.87c2.75-1.59,2.75-4.16,0-5.75L146.2,313.08a11,11,0,0,0-10,0L48.12,364c-2.75,1.59-2.75,4.16,0,5.75l154.54,89.18a11,11,0,0,0,9.96,0Z" transform="translate(-46.057 -311.878)" fill="#e0e0e0"/>
  </g>
  <g id="freepik--Plants--inject-188" transform="translate(347.44 305.338)">
    <g id="freepik--plants--inject-188-2" data-name="freepik--plants--inject-188" transform="translate(0)">
      <path id="Path_4004" data-name="Path 4004" d="M66.372,398.63s.69-23,10.53-41.56,24.48-30.92,38.89-33.28,27.24,10,12.48,20.48-41.56,22.11-51.39,57.45Z" transform="translate(-66.372 -323.497)" fill="#c86897"/>
      <g id="Group_128" data-name="Group 128" transform="translate(0)" opacity="0.15">
        <path id="Path_4005" data-name="Path 4005" d="M66.372,398.63s.69-23,10.53-41.56,24.48-30.92,38.89-33.28,27.24,10,12.48,20.48-41.56,22.11-51.39,57.45Z" transform="translate(-66.372 -323.497)"/>
      </g>
      <path id="Path_4006" data-name="Path 4006" d="M78.356,392.37H78.2a.78.78,0,0,1-.51-1c12.17-39,40-57.16,53-61.32a.78.78,0,1,1,.47,1.48c-12.75,4.08-40,21.93-52,60.31A.8.8,0,0,1,78.356,392.37Z" transform="translate(-74.596 -323.497)" fill="#fff"/>
      <path id="Path_4007" data-name="Path 4007" d="M131.451,379.37c-1,2.91-3.89,4.65-6.61,6.06s-5.69,2.92-7,5.7c-2.58,5.62,3.19,12.64.36,18.15-1.18,2.3-3.66,3.69-6.16,4.39a64.01,64.01,0,0,1-6.35,1.17,24.261,24.261,0,0,1-3.07.05c-3-.15-6.18,0-8.73,1.77-4,2.78-4.81,8.25-7,12.62a20.19,20.19,0,0,1-13.44,10.29c-4.74,1.09-12,.69-13.49-1.32-1.09-1.53,1.27-6.66,1.15-8.54a76.479,76.479,0,0,1,.47-14.43,26.81,26.81,0,0,0,.31-6.57c-.25-2.45-.48-4.91-.69-7.36-.24-2.66-1.06-4.69-.35-7.45a27.1,27.1,0,0,1,3.5-7.37q2.1-3.42,4.27-6.81a38,38,0,0,1,5.76-7.51,20.25,20.25,0,0,1,15.07-5.35c4.54.33,9.14,2.43,13.73,1.79s8.73-2.24,13.34-2.35c4.81-.12,9.88,1.45,13,5.3C131.321,373.76,132.341,376.73,131.451,379.37Z" transform="translate(-56.631 -323.497)" fill="#029359"/>
      <path id="Path_4008" data-name="Path 4008" d="M68.079,426h0a.7.7,0,0,1-.57-.8c7.21-42.8,50.63-53,61-53.19a.69.69,0,0,1,0,1.38c-10.14.22-52.62,10.17-59.67,52a.68.68,0,0,1-.76.61Z" transform="translate(-61.879 -323.497)" fill="#fff"/>
      <path id="Path_4009" data-name="Path 4009" d="M112.926,400.21a.73.73,0,0,1-.38-.15c-.12-.11-12.38-10.11-30.73-5.62a.695.695,0,0,1-.33-1.35c19.06-4.65,31.82,5.8,31.95,5.91a.69.69,0,0,1,.09,1,.71.71,0,0,1-.6.21Z" transform="translate(-59.836 -323.497)" fill="#fff"/>
    </g>
  </g>
  <g id="freepik--Device--inject-188" transform="translate(187.14)">
    <g id="freepik--device--inject-188-2" data-name="freepik--device--inject-188">
      <path id="Path_4010" data-name="Path 4010" d="M145.59,28.21l144.65,83.51a10.84,10.84,0,0,1,4.88,8.48V445.67c0,3.12-2.19,4.39-4.88,2.82L145.59,365a10.86,10.86,0,0,1-4.88-8.48V31C140.71,27.91,142.9,26.64,145.59,28.21Zm2.16,305c0,2.67,1.87,4.37,4.19,5.7l132.44,76.5c2.31,1.33,4.19.25,4.19-2.43V143.36a9.3,9.3,0,0,0-4.19-7.27L151.94,59.63c-2.32-1.34-4.19-.25-4.19,2.42Z" transform="translate(-140.71 -18.159)" fill="#c86897"/>
      <path id="Path_4011" data-name="Path 4011" d="M145.59,28.21l144.65,83.51a10.84,10.84,0,0,1,4.88,8.48V445.67c0,3.12-2.19,4.39-4.88,2.82L145.59,365a10.86,10.86,0,0,1-4.88-8.48V31C140.71,27.91,142.9,26.64,145.59,28.21Zm2.16,305c0,2.67,1.87,4.37,4.19,5.7l132.44,76.5c2.31,1.33,4.19.25,4.19-2.43V143.36a9.3,9.3,0,0,0-4.19-7.27L151.94,59.63c-2.32-1.34-4.19-.25-4.19,2.42Z" transform="translate(-140.71 -18.159)" opacity="0.5"/>
      <path id="Path_4012" data-name="Path 4012" d="M125.32,448.8a10.94,10.94,0,0,0,9.18-.3l5.59-3.24a10.76,10.76,0,0,0,4.91-8.47V111.33a9.28,9.28,0,0,0-.85-3.65,11.7,11.7,0,0,0-.58-1.18h0l-15.4,8.89h0a12.7,12.7,0,0,1,.85,1.79,8.8,8.8,0,0,1,.59,3V445.67C129.61,448.54,127.75,449.85,125.32,448.8Z" transform="translate(24.8 -18.159)" fill="#c86897"/>
      <path id="Path_4013" data-name="Path 4013" d="M125.32,448.8a10.94,10.94,0,0,0,9.18-.3l5.59-3.24a10.76,10.76,0,0,0,4.91-8.47V111.33a9.28,9.28,0,0,0-.85-3.65,11.7,11.7,0,0,0-.58-1.18h0l-15.4,8.89h0a12.7,12.7,0,0,1,.85,1.79,8.8,8.8,0,0,1,.59,3V445.67C129.61,448.54,127.75,449.85,125.32,448.8Z" transform="translate(24.8 -18.159)" opacity="0.6"/>
      <path id="Path_4014" data-name="Path 4014" d="M214.32,384.4h0c-2.5,0-2.77,2.8-2.77,4a15.69,15.69,0,0,0,7,12.08,5.69,5.69,0,0,0,2.7.85c2.5,0,2.77-2.81,2.77-4a15.66,15.66,0,0,0-7-12.08,5.58,5.58,0,0,0-2.7-.85m0-1.5a7.05,7.05,0,0,1,3.45,1.05,17.08,17.08,0,0,1,7.67,13.38c0,3.49-1.74,5.51-4.27,5.51a7,7,0,0,1-3.45-1.06A17,17,0,0,1,210,388.41c0-3.49,1.74-5.51,4.27-5.51Z" transform="translate(-140.32 -18.159)" fill="#37474f"/>
      <path id="Path_4015" data-name="Path 4015" d="M217.81,75c-1.81-1-3.28-.2-3.28,1.89a7.26,7.26,0,0,0,3.28,5.68c1.81,1,3.28.2,3.28-1.9A7.23,7.23,0,0,0,217.81,75Z" transform="translate(-140.5 -18.159)" fill="#37474f"/>
      <path id="Path_4016" data-name="Path 4016" d="M235.64,95.27,200.19,74.79c-1.51-.87-2.74-.25-2.74,1.38a5.89,5.89,0,0,0,2.74,4.55l35.45,20.48c1.52.87,2.74.25,2.74-1.39a5.88,5.88,0,0,0-2.74-4.54Z" transform="translate(-140.71 -18.159)" fill="#37474f"/>
      <path id="Path_4017" data-name="Path 4017" d="M147.26,333.23c0,2.67,1.87,4.37,4.19,5.7l132.44,76.48c2.31,1.33,4.19.25,4.19-2.43V143.36a9.3,9.3,0,0,0-4.19-7.27L151.45,59.63c-2.32-1.34-4.19-.25-4.19,2.42Z" transform="translate(-140.22 -18.159)" fill="#c86897"/>
      <path id="Path_4018" data-name="Path 4018" d="M147.26,333.23c0,2.67,1.87,4.37,4.19,5.7l132.44,76.48c2.31,1.33,4.19.25,4.19-2.43V143.36a9.3,9.3,0,0,0-4.19-7.27L151.45,59.63c-2.32-1.34-4.19-.25-4.19,2.42Z" transform="translate(-140.22 -18.159)" fill="#fff" opacity="0.8"/>
      <path id="Path_4019" data-name="Path 4019" d="M161.21,340.46l98,56.58c1.85,1.07,3.35-.37,3.35-3.22V388c0-2.85-1.5-6-3.35-7.09l-98-56.58c-1.85-1.07-3.35.37-3.35,3.22v5.81C157.86,336.22,159.36,339.39,161.21,340.46Z" transform="translate(-125.3 -18.159)" fill="#fff"/>
      <path id="Path_4020" data-name="Path 4020" d="M281.118,332.92V322c0-1.42-.44-2.08-1.93-2.21l-10.35-.62c-1.07.2-1.37,1.13-.67,2.07l11.69,12.6C280.518,334.54,281.118,334.35,281.118,332.92Z" transform="translate(-253.788 -18.159)" fill="#c86897"/>
      <path id="Path_4021" data-name="Path 4021" d="M126.74,30.25c.35-2.54,2.39-3.46,4.84-2l144.65,83.47a9.839,9.839,0,0,1,3.45,3.66l15.4-8.89a9.87,9.87,0,0,0-3.47-3.63L146.98,19.33a10.82,10.82,0,0,0-9.79,0l-5.61,3.22a11,11,0,0,0-4.84,7.7Z" transform="translate(-126.7 -18.159)" fill="#c86897"/>
      <path id="Path_4022" data-name="Path 4022" d="M126.74,30.25c.35-2.54,2.39-3.46,4.84-2l144.65,83.47a9.839,9.839,0,0,1,3.45,3.66l15.4-8.89a9.87,9.87,0,0,0-3.47-3.63L146.98,19.33a10.82,10.82,0,0,0-9.79,0l-5.61,3.22a11,11,0,0,0-4.84,7.7Z" transform="translate(-126.7 -18.159)" opacity="0.3"/>
    </g>
  </g>
  <g id="freepik--speech-bubbles--inject-188" transform="translate(49.47 29.773)">
    <g id="freepik--black-bubble--inject-188" transform="translate(0 82.083)">
      <path id="Path_4023" data-name="Path 4023" d="M427.97,331.68l3.53-2a2.89,2.89,0,0,0,1.29-2.25V236.58a2.88,2.88,0,0,0-1.3-2.25l-180.2-104a2.84,2.84,0,0,0-2.6,0l-3.52,2a2.87,2.87,0,0,0-1.3,2.25v90.81a2.86,2.86,0,0,0,1.3,2.25l180.19,104a2.9,2.9,0,0,0,2.61.04Z" transform="translate(-243.87 -130.015)" fill="#37474f"/>
      <path id="Path_4024" data-name="Path 4024" d="M431.48,237.87l-180.19-104c-.72-.41-1.3-.08-1.3.75v90.81a2.86,2.86,0,0,0,1.3,2.25l180.19,104c.72.41,1.3.07,1.3-.75V240.12a2.86,2.86,0,0,0-1.3-2.25Z" transform="translate(-249.98 -130.015)" fill="#455a64"/>
      <path id="Path_4025" data-name="Path 4025" d="M243.88,331.81a2.87,2.87,0,0,0,2.3-.14l3.52-2a2.89,2.89,0,0,0,1.3-2.25V236.58a2.62,2.62,0,0,0-.38-1.28l-6.12,3.53a2.62,2.62,0,0,1,.38,1.28v90.81C244.88,331.63,244.47,332,243.88,331.81Z" transform="translate(-62.09 -130.015)" fill="#263238"/>
      <path id="Path_4026" data-name="Path 4026" d="M269.39,276.49l-10-5.78c-1.2-.69-2.17-.2-2.17,1.09a4.64,4.64,0,0,0,2.17,3.6l10,5.78c1.19.69,2.16.2,2.16-1.1a4.65,4.65,0,0,0-2.16-3.59Z" transform="translate(-95.98 -130.015)" fill="#e0e0e0"/>
      <path id="Path_4027" data-name="Path 4027" d="M302.29,266.41,276.81,251.7c-1.19-.69-2.16-.2-2.16,1.1a4.65,4.65,0,0,0,2.16,3.59l25.49,14.72c1.19.69,2.16.2,2.16-1.1a4.64,4.64,0,0,0-2.17-3.6Z" transform="translate(-146.32 -130.015)" fill="#e0e0e0"/>
      <path id="Path_4028" data-name="Path 4028" d="M336.13,248l-27.47-15.84c-1.2-.69-2.17-.2-2.17,1.09a4.64,4.64,0,0,0,2.17,3.6l27.47,15.84c1.2.69,2.17.2,2.17-1.09a4.64,4.64,0,0,0-2.17-3.6Z" transform="translate(-212 -130.015)" fill="#e0e0e0"/>
      <path id="Path_4029" data-name="Path 4029" d="M284.86,248.35l-25.49-14.71c-1.19-.69-2.16-.2-2.16,1.09a4.65,4.65,0,0,0,2.16,3.6L284.86,253c1.19.69,2.16.2,2.16-1.1A4.65,4.65,0,0,0,284.86,248.35Z" transform="translate(-111.44 -130.015)" fill="#e0e0e0"/>
      <path id="Path_4030" data-name="Path 4030" d="M314.77,230l-23.56-13.6c-1.2-.69-2.16-.2-2.16,1.1a4.62,4.62,0,0,0,2.16,3.59l23.57,13.61c1.19.69,2.16.2,2.16-1.1a4.64,4.64,0,0,0-2.17-3.6Z" transform="translate(-173.2 -130.015)" fill="#e0e0e0"/>
      <path id="Path_4031" data-name="Path 4031" d="M336.81,212.59l-15.54-9c-1.19-.69-2.16-.2-2.16,1.1a4.65,4.65,0,0,0,2.16,3.59l15.54,9c1.2.69,2.17.2,2.17-1.1a4.64,4.64,0,0,0-2.17-3.59Z" transform="translate(-225.3 -130.015)" fill="#e0e0e0"/>
      <path id="Path_4032" data-name="Path 4032" d="M284.86,290.54l-25.49-14.71c-1.19-.69-2.16-.2-2.16,1.1a4.65,4.65,0,0,0,2.16,3.59l25.49,14.72c1.19.69,2.16.2,2.16-1.1a4.65,4.65,0,0,0-2.16-3.6Z" transform="translate(-111.44 -130.015)" fill="#e0e0e0"/>
      <path id="Path_4033" data-name="Path 4033" d="M314.77,272.16l-23.56-13.6c-1.2-.7-2.16-.2-2.16,1.09a4.63,4.63,0,0,0,2.16,3.6l23.57,13.6c1.19.69,2.16.2,2.16-1.09a4.64,4.64,0,0,0-2.17-3.6Z" transform="translate(-173.2 -130.015)" fill="#e0e0e0"/>
      <path id="Path_4034" data-name="Path 4034" d="M336.81,254.78l-15.54-8.95c-1.19-.69-2.16-.2-2.16,1.09a4.65,4.65,0,0,0,2.16,3.6l15.54,9c1.2.69,2.17.2,2.17-1.1A4.64,4.64,0,0,0,336.81,254.78Z" transform="translate(-225.3 -130.015)" fill="#e0e0e0"/>
      <path id="Path_4035" data-name="Path 4035" d="M307.43,262.42l-48.05-27.73c-1.2-.69-2.17-.2-2.17,1.1a4.64,4.64,0,0,0,2.17,3.59l48.05,27.74c1.19.69,2.16.2,2.16-1.1A4.65,4.65,0,0,0,307.43,262.42Z" transform="translate(-134.01 -130.015)" fill="#e0e0e0"/>
      <path id="Path_4036" data-name="Path 4036" d="M336.1,230.65l-21.71-12.5c-1.2-.69-2.17-.2-2.17,1.09a4.64,4.64,0,0,0,2.17,3.6l21.71,12.5c1.2.7,2.17.2,2.17-1.09A4.64,4.64,0,0,0,336.1,230.65Z" transform="translate(-217.7 -130.015)" fill="#e0e0e0"/>
      <path id="Path_4037" data-name="Path 4037" d="M417.911,229.23l-1.45,12a1.5,1.5,0,0,0,2.24,1.48l11.48-6.58Z" transform="translate(-413.841 -130.015)" fill="#455a64"/>
      <path id="freepik--Check--inject-188" d="M258.782,299.24a1.51,1.51,0,0,1,2,.8l5.66,13.47,1.35-1.31a1.5,1.5,0,0,1,2.08,2.15l-2.92,2.84a1.49,1.49,0,0,1-1,.42,1.528,1.528,0,0,1-.3,0,1.49,1.49,0,0,1-1.08-.88l-6.51-15.5a1.5,1.5,0,0,1,.72-1.99Z" transform="translate(-95.382 -130.015)" fill="#c86897"/>
      <path id="freepik--check--inject-188-2" data-name="freepik--check--inject-188" d="M271.366,291.87a1.5,1.5,0,0,1,2,.8l5.66,13.47,1.35-1.31a1.5,1.5,0,1,1,2.06,2.17l-2.92,2.84a1.52,1.52,0,0,1-1.35.39,1.5,1.5,0,0,1-1.08-.89l-6.51-15.49a1.5,1.5,0,0,1,.79-1.98Z" transform="translate(-120.646 -130.015)" fill="#c86897"/>
      <path id="Path_4038" data-name="Path 4038" d="M387.1,163.25c20.14,11.64,36.47,39.91,36.47,63.17s-16.37,32.69-36.47,21.06-36.49-39.92-36.47-63.17S366.98,151.62,387.1,163.25Z" transform="translate(-341.41 -130.015)" fill="#c86897"/>
      <path id="Path_4039" data-name="Path 4039" d="M387.1,163.25c20.14,11.64,36.47,39.91,36.47,63.17s-16.37,32.69-36.47,21.06-36.49-39.92-36.47-63.17S366.98,151.62,387.1,163.25Z" transform="translate(-341.41 -130.015)" fill="#fff" opacity="0.4"/>
      <g id="freepik--character-bubble--inject-188" transform="translate(16.79 20.424)">
        <path id="Path_4040" data-name="Path 4040" d="M361.51,215.21a256.445,256.445,0,0,1-14.12,21.91c-1.25,1.68-4.77,6.31-6.61,6.77-2.35.58-4.34-1.27-5.58-2.13-4.24-2.95-26.18-24.76-26.18-24.76-6.83-9.52-5.11-15.59-4.18-15.59s7.93-1.84,13.92,4c4.54,4.43,20.05,20.46,20.05,20.46,3.66-4.3,6.06-6.43,9.71-10.74,1.78-2.1,4.48-4.36,4.61-7.24a24.877,24.877,0,0,0-.36-3.94,33.66,33.66,0,0,1,.58-9,1.32,1.32,0,0,1,.1-.39.8.8,0,0,1,.43-.36,1.58,1.58,0,0,1,1.8.72,4.26,4.26,0,0,1,.54,2,5.42,5.42,0,0,0,.45,2,.911.911,0,0,0,.26.33.86.86,0,0,0,.42.12c.84,0,1.28-.91,1.59-1.57a29.172,29.172,0,0,0,1.74-4.79c.3-1.13.82-2.22,1.21-3.34a3.41,3.41,0,0,1,1-1.74c.91-.66,2.19-.29,3.19.21a8.572,8.572,0,0,1,1.58,1,8.66,8.66,0,0,1,2.69,5,13.9,13.9,0,0,1-.44,6.68,25.171,25.171,0,0,1-4.2,8.37C364.31,211.19,362.77,213.1,361.51,215.21Z" transform="translate(-258.51 -150.439)" fill="#ffa8a7"/>
        <path id="Path_4041" data-name="Path 4041" d="M322.389,201.38s6.83-2.69,13,1.29,22.92,23.21,22.92,23.21l4.21-4.68s2.23,8.27,9.21,9c0,0-5.48,8.94-8.54,12.24s-5.5,2.69-9,0S333.629,224,333.629,224A23.9,23.9,0,0,1,322.389,201.38Z" transform="translate(-278.009 -150.439)" fill="#c86897"/>
        <path id="Path_4042" data-name="Path 4042" d="M322.389,201.38s6.83-2.69,13,1.29,22.92,23.21,22.92,23.21l4.21-4.68s2.23,8.27,9.21,9c0,0-5.48,8.94-8.54,12.24s-5.5,2.69-9,0S333.629,224,333.629,224A23.9,23.9,0,0,1,322.389,201.38Z" transform="translate(-278.009 -150.439)" opacity="0.25"/>
        <path id="Path_4043" data-name="Path 4043" d="M358.617,221.93l.3,8.63c.75,1,1.53,1.91,2.32,2.83a65.24,65.24,0,0,0,16.52,14.09c11.51,6.65,21.77,6.41,28.45.65.09-10.5.07-23.49-.49-29.35-1-10.68-4.59-16.11-10-17.29-2.58-.57-21.92,1.19-21.92,1.19l-10.71,2.68a6.1,6.1,0,0,0-.67.37c-1.64,1-2.45,2.87-3.3,5.56C358.507,213.24,358.617,218.3,358.617,221.93Z" transform="translate(-348.857 -150.439)" fill="#f5f5f5"/>
        <path id="Path_4044" data-name="Path 4044" d="M363.758,171a13.1,13.1,0,1,0,12.06-14A13.1,13.1,0,0,0,363.758,171Z" transform="translate(-337.648 -150.439)" fill="#263238"/>
        <path id="Path_4045" data-name="Path 4045" d="M392.08,181s2.88,9.79,3.86,11.36a4.51,4.51,0,0,0,2.76,1.89l-.69-7Z" transform="translate(-374.78 -150.439)" fill="#263238"/>
        <path id="Path_4046" data-name="Path 4046" d="M401.6,166.55a2.35,2.35,0,0,0-1.32-1.37,2.68,2.68,0,0,0-1.26-.07c-2.65.35-4.19,2.73-4.34,5.28a13.38,13.38,0,0,0,1.07,5.45,10.941,10.941,0,0,0,2.06,3.7,4.76,4.76,0,0,0,3.49,1.57,11.579,11.579,0,0,1,2.68.08q-.45-2.74-.92-5.47l-.75-4.48c-.11-.66-.25-1.32-.33-2a11.2,11.2,0,0,0-.36-2.64Z" transform="translate(-382.662 -150.439)" fill="#263238"/>
        <path id="Path_4047" data-name="Path 4047" d="M374.09,181.1c-.76.54-2-.91-3.09-1.87s-4.39-2.12-5.74,1.39,2,7.89,4.63,8.5c4.47,1,4.91-1.82,4.91-1.82l1.54,16.2h0c6,6.54,21.13,6.3,14.3-.49l-.5-6.28a28.08,28.08,0,0,0,5.91-.15c3.18-.74,5-3.43,5.71-7,1.14-5.71,1.39-10.26-.78-21.14-2.38-11.93-16.39-11-23.59-5.64S374.09,181.1,374.09,181.1Z" transform="translate(-351.57 -150.439)" fill="#ffa8a7"/>
        <path id="Path_4048" data-name="Path 4048" d="M365.058,171.11c-.32-1.15.25-2.33,0-3.5s-1-1.65-1.42-2.6c-.77-1.82.24-3.26,1.66-4.42,5.59-4.55,13.49-4.93,19.78-8.43a17.919,17.919,0,0,1,2.86-1.46,3.89,3.89,0,0,1,3.12.14,3.67,3.67,0,0,1,1.59,2.37,16.841,16.841,0,0,1,.13,2.92c.92,0,1.74-.63,2.68-.72a5.41,5.41,0,0,1,2.94.5,2.86,2.86,0,0,1,1.43,1.31,3.391,3.391,0,0,1,.23,1.48,10.19,10.19,0,0,1-4.52,8.15,14.59,14.59,0,0,1-3,1.46,14.94,14.94,0,0,1-5.55,1.08,7.79,7.79,0,0,1-5.19-2,9.06,9.06,0,0,1-4,4.12,6.21,6.21,0,0,1-5.66-.09c-.11,2.66-.43,5.3-.59,8a3.37,3.37,0,0,1-.79,2.37c-1.55,1.44-2.89-1.77-3.83-2.5-.55-.43-.6-1.51-.67-2.13s-.13-1.29-.15-1.93a6.793,6.793,0,0,0,.1-1.25C365.908,172.92,365.318,172.06,365.058,171.11Z" transform="translate(-347.438 -150.439)" fill="#263238"/>
        <path id="Path_4049" data-name="Path 4049" d="M404.513,166.17l-5-2.23a2.67,2.67,0,0,1,3.56-1.49,2.9,2.9,0,0,1,1.44,3.72Z" transform="translate(-388.243 -150.439)" fill="#263238"/>
        <path id="Path_4050" data-name="Path 4050" d="M390.89,196.73s-7.28-.9-9.89-2a8.26,8.26,0,0,1-3.72-3.16,11.249,11.249,0,0,0,2.28,3.89c2,2.21,11.48,3.22,11.48,3.22Z" transform="translate(-352.32 -150.439)" fill="#f28f8f"/>
        <path id="Path_4051" data-name="Path 4051" d="M382.079,178.2a1.44,1.44,0,1,1-1.55-1.39,1.47,1.47,0,0,1,1.55,1.39Z" transform="translate(-345.279 -150.439)" fill="#263238"/>
        <path id="Path_4052" data-name="Path 4052" d="M384.36,172.89l-2.94,1.93a1.84,1.84,0,0,1,.53-2.5,1.71,1.71,0,0,1,2.41.57Z" transform="translate(-349.5 -150.439)" fill="#263238"/>
        <path id="Path_4053" data-name="Path 4053" d="M375.268,187.6l4.1,1.19a2.11,2.11,0,0,1-2.61,1.53,2.24,2.24,0,0,1-1.49-2.72Z" transform="translate(-338.558 -150.439)" fill="#f28f8f"/>
        <path id="Path_4054" data-name="Path 4054" d="M369.874,173l-3-1.94a1.7,1.7,0,0,1,2.41-.56A1.86,1.86,0,0,1,369.874,173Z" transform="translate(-321.004 -150.439)" fill="#263238"/>
        <path id="Path_4055" data-name="Path 4055" d="M370.579,176.91a1.44,1.44,0,1,1-1.55-1.39,1.47,1.47,0,0,1,1.55,1.39Z" transform="translate(-322.279 -150.439)" fill="#263238"/>
        <path id="Path_4056" data-name="Path 4056" d="M368.96,176.1l1.14,8.61,4.39-1.89Z" transform="translate(-327.45 -150.439)" fill="#f28f8f"/>
        <path id="Path_4057" data-name="Path 4057" d="M398.6,214.31a89.568,89.568,0,0,0,10.1,16.25c.75,1,1.53,1.91,2.32,2.83,5.07-9,6.3-24,3.56-28.46l-2.83.43A17.55,17.55,0,0,0,398.6,214.31Z" transform="translate(-398.596 -150.439)" fill="#c86897"/>
        <g id="Group_129" data-name="Group 129" transform="translate(0 54.491)" opacity="0.25">
          <path id="Path_4058" data-name="Path 4058" d="M398.6,214.31a89.568,89.568,0,0,0,10.1,16.25c.75,1,1.53,1.91,2.32,2.83,5.07-9,6.3-24,3.56-28.46l-2.83.43A17.55,17.55,0,0,0,398.6,214.31Z" transform="translate(-398.596 -204.93)"/>
        </g>
      </g>
    </g>
    <g id="freepik--color-bubble--inject-188" transform="translate(85.3)">
      <path id="Path_4059" data-name="Path 4059" d="M342.65,249.58l3.53-2a2.87,2.87,0,0,0,1.3-2.25V154.49a2.86,2.86,0,0,0-1.3-2.25l-180.19-104a2.9,2.9,0,0,0-2.6,0l-3.53,2a2.87,2.87,0,0,0-1.3,2.25V143.3a2.86,2.86,0,0,0,1.3,2.25L340.04,249.58a2.84,2.84,0,0,0,2.61,0Z" transform="translate(-158.55 -47.932)" fill="#c86897"/>
      <path id="Path_4060" data-name="Path 4060" d="M158.95,52.1c.17-.54.67-.71,1.25-.36L340.38,155.77a2.77,2.77,0,0,1,.92,1l6.13-3.53a2.69,2.69,0,0,0-.92-1l-180.2-104a2.9,2.9,0,0,0-2.6,0l-3.52,2A2.86,2.86,0,0,0,158.95,52.1Z" transform="translate(-158.89 -47.932)" fill="#fff" opacity="0.4"/>
      <path id="Path_4061" data-name="Path 4061" d="M346.19,155.78,166,51.78c-.72-.41-1.3-.08-1.3.75V143.3a2.86,2.86,0,0,0,1.3,2.25L346.19,249.58c.72.42,1.3.08,1.3-.75V158a2.86,2.86,0,0,0-1.3-2.22Z" transform="translate(-164.7 -47.932)" fill="#c86897"/>
      <path id="Path_4062" data-name="Path 4062" d="M158.57,249.72a2.85,2.85,0,0,0,2.29-.14l3.52-2a2.89,2.89,0,0,0,1.3-2.25V154.49a2.61,2.61,0,0,0-.37-1.28l-6.13,3.53a2.64,2.64,0,0,1,.39,1.28v90.81C159.57,249.54,159.14,249.89,158.57,249.72Z" transform="translate(23.24 -47.932)" opacity="0.15"/>
      <path id="Path_4063" data-name="Path 4063" d="M185,248v9.26a1.5,1.5,0,0,1-2.74.85l-13.51-19.5Z" transform="translate(-6.26 -47.932)" fill="#c86897"/>
      <path id="Path_4064" data-name="Path 4064" d="M266.22,145.89l-10-5.78c-1.19-.69-2.16-.2-2.16,1.1a4.65,4.65,0,0,0,2.16,3.59l10,5.78c1.2.69,2.17.2,2.17-1.09A4.64,4.64,0,0,0,266.22,145.89Z" transform="translate(-174.96 -47.932)" fill="#fafafa"/>
      <path id="Path_4065" data-name="Path 4065" d="M299.14,135.82l-25.48-14.71c-1.2-.69-2.17-.2-2.17,1.09a4.64,4.64,0,0,0,2.17,3.6l25.48,14.71c1.2.69,2.17.2,2.17-1.1a4.64,4.64,0,0,0-2.17-3.59Z" transform="translate(-225.31 -47.932)" fill="#fafafa"/>
      <path id="Path_4066" data-name="Path 4066" d="M334.26,117.43,305.5,100.84c-1.19-.69-2.16-.2-2.16,1.1a4.65,4.65,0,0,0,2.16,3.59l28.76,16.59c1.19.69,2.16.2,2.16-1.09a4.65,4.65,0,0,0-2.16-3.6Z" transform="translate(-292.27 -47.932)" fill="#fafafa"/>
      <path id="Path_4067" data-name="Path 4067" d="M281.69,117.75,256.21,103c-1.2-.69-2.16-.2-2.16,1.1a4.62,4.62,0,0,0,2.16,3.59l25.48,14.71c1.2.69,2.17.2,2.17-1.09A4.64,4.64,0,0,0,281.69,117.75Z" transform="translate(-190.42 -47.932)" fill="#fafafa"/>
      <path id="Path_4068" data-name="Path 4068" d="M311.62,99.37,288.06,85.76c-1.2-.69-2.17-.2-2.17,1.1a4.64,4.64,0,0,0,2.17,3.59l23.56,13.61c1.2.69,2.17.2,2.17-1.1A4.66,4.66,0,0,0,311.62,99.37Z" transform="translate(-252.19 -47.932)" fill="#fafafa"/>
      <path id="Path_4069" data-name="Path 4069" d="M334.95,82l-16.82-9.71c-1.2-.69-2.17-.2-2.17,1.1A4.64,4.64,0,0,0,318.13,77l16.82,9.71c1.19.69,2.16.2,2.16-1.09A4.65,4.65,0,0,0,334.95,82Z" transform="translate(-305.58 -47.932)" fill="#fafafa"/>
      <path id="Path_4070" data-name="Path 4070" d="M281.69,160l-25.48-14.71c-1.2-.69-2.16-.2-2.16,1.09a4.63,4.63,0,0,0,2.16,3.6l25.48,14.71c1.2.69,2.17.2,2.17-1.1A4.64,4.64,0,0,0,281.69,160Z" transform="translate(-190.42 -47.932)" fill="#fafafa"/>
      <path id="Path_4071" data-name="Path 4071" d="M311.62,141.56,288.06,128c-1.2-.69-2.17-.2-2.17,1.09a4.64,4.64,0,0,0,2.17,3.6l23.56,13.6c1.2.69,2.17.2,2.17-1.09A4.66,4.66,0,0,0,311.62,141.56Z" transform="translate(-252.19 -47.932)" fill="#fafafa"/>
      <path id="Path_4072" data-name="Path 4072" d="M334.95,124.19l-16.82-9.71c-1.2-.69-2.17-.2-2.17,1.09a4.64,4.64,0,0,0,2.17,3.6l16.82,9.71c1.19.69,2.16.2,2.16-1.1a4.65,4.65,0,0,0-2.16-3.59Z" transform="translate(-305.58 -47.932)" fill="#fafafa"/>
      <path id="Path_4073" data-name="Path 4073" d="M304.21,131.83l-48-27.74c-1.19-.69-2.16-.2-2.16,1.1a4.65,4.65,0,0,0,2.16,3.59l48,27.74c1.2.69,2.17.2,2.17-1.1A4.64,4.64,0,0,0,304.21,131.83Z" transform="translate(-212.94 -47.932)" fill="#fafafa"/>
      <path id="Path_4074" data-name="Path 4074" d="M334.24,100.06l-23-13.26c-1.2-.69-2.17-.2-2.17,1.09a4.64,4.64,0,0,0,2.17,3.6l23,13.26c1.2.69,2.17.2,2.16-1.1a4.65,4.65,0,0,0-2.16-3.59Z" transform="translate(-297.98 -47.932)" fill="#fafafa"/>
      <path id="freepik--check--inject-188-3" data-name="freepik--check--inject-188" d="M315.673,135.07a1.51,1.51,0,0,1,2,.8l5.66,13.48,1.31-1.35a1.5,1.5,0,0,1,2.09,2.15l-2.93,2.84a1.46,1.46,0,0,1-1,.43,1.531,1.531,0,0,1-.3,0,1.48,1.48,0,0,1-1.08-.89L314.873,137a1.51,1.51,0,0,1,.8-1.93Z" transform="translate(-294.433 -47.932)" fill="#455a64"/>
      <path id="freepik--check--inject-188-4" data-name="freepik--check--inject-188" d="M328.442,127.7a1.5,1.5,0,0,1,2,.8l5.63,13.5,1.31-1.34a1.5,1.5,0,0,1,2.09,2.15l-2.92,2.84a1.47,1.47,0,0,1-1.05.43h-.29a1.54,1.54,0,0,1-1.09-.89l-6.51-15.5a1.5,1.5,0,0,1,.83-1.99Z" transform="translate(-319.892 -47.932)" fill="#455a64"/>
      <path id="Path_4075" data-name="Path 4075" d="M209.27,135.65c20.14,11.64,36.47,39.91,36.46,63.17s-16.33,32.69-36.47,21.06-36.48-39.92-36.46-63.17S189.15,124,209.27,135.65Z" transform="translate(-71.04 -47.932)" fill="#455a64"/>
      <path id="Path_4076" data-name="Path 4076" d="M197.723,191c6.8-.28,24.86-2.58,24.86-2.58h0a36,36,0,0,0,16.26-32.72l-.4-5.62A22.84,22.84,0,0,0,219.163,129a20.92,20.92,0,0,0-24,22.15c.2,2.76-.1,5.28-2,7.44a20.46,20.46,0,0,1-3.61,2.86,17.94,17.94,0,0,0-4.77,4.54,8.08,8.08,0,0,0-1.33,6.3,7.52,7.52,0,0,0,2.22,3.58.9.9,0,0,1,.37.57.93.93,0,0,1-.15.47c-1.62,2.94-2.1,6.73-.37,9.61a9.25,9.25,0,0,0,5,3.76,18.64,18.64,0,0,0,6.27.8A3.288,3.288,0,0,1,197.723,191Z" transform="translate(-74.733 -47.932)" fill="#263238"/>
      <path id="Path_4077" data-name="Path 4077" d="M172.949,191.18a14.48,14.48,0,0,0,5.47,9.51,12.349,12.349,0,0,0,3.26,1.84h0l5.13,15.91c3.78-4.45,6-11.12,6-19.64a57.18,57.18,0,0,0-1-10.21h0c-2.63-6.52-6-9.24-13.34-10h0C178.109,178.81,171.709,183.16,172.949,191.18Z" transform="translate(-18.109 -47.932)" fill="#ffa8a7"/>
      <path id="Path_4078" data-name="Path 4078" d="M222.483,190.45a255.1,255.1,0,0,0,14.11,21.91c1.26,1.68,4.78,6.32,6.62,6.77,2.34.58,4.33-1.27,5.58-2.13,4.24-2.94,26.18-24.75,26.18-24.75,6.83-9.52,5.11-15.59,4.18-15.6s-7.93-1.84-13.92,4c-4.54,4.43-20.05,20.46-20.05,20.46-3.66-4.3-6.06-6.43-9.71-10.74-1.78-2.1-4.49-4.36-4.61-7.25a25,25,0,0,1,.35-3.94,33.15,33.15,0,0,0-.57-9,1.24,1.24,0,0,0-.1-.39.84.84,0,0,0-.43-.36,1.58,1.58,0,0,0-1.8.71,4.31,4.31,0,0,0-.55,2,5.4,5.4,0,0,1-.44,2,.85.85,0,0,1-.26.33.72.72,0,0,1-.43.12c-.83,0-1.28-.9-1.58-1.56a28.39,28.39,0,0,1-1.74-4.8c-.3-1.13-.82-2.22-1.21-3.34a3.4,3.4,0,0,0-1-1.73c-.9-.67-2.18-.3-3.19.21a8.83,8.83,0,0,0-1.57,1,8.58,8.58,0,0,0-2.69,5,13.74,13.74,0,0,0,.44,6.67,24.89,24.89,0,0,0,4.2,8.37C219.653,186.43,221.2,188.34,222.483,190.45Z" transform="translate(-145.993 -47.932)" fill="#ffa8a7"/>
      <path id="Path_4079" data-name="Path 4079" d="M188.153,204.59l.25,5.35a60.681,60.681,0,0,0,12.67,9.94,35.61,35.61,0,0,0,13.49,4.81,20.45,20.45,0,0,0,9.95-1.13l-.75-2.36,2.68-18.65h0a7.21,7.21,0,0,1-1.06-1.27c-.15-.21-.3-.44-.47-.71a9.63,9.63,0,0,1-.53-.93c-.12-.22-.23-.45-.35-.7s-.23-.5-.35-.77l-.2-.45c-.12-.3-.24-.63-.36-1a2.469,2.469,0,0,1-.1-.29h0a28.281,28.281,0,0,1-1.2-5.25c-1-7.41.84-11.85,1.43-12.61h0c-.31-.1-7.13-.48-7.13-.48l-13.67-1.6-6.55.25a27.19,27.19,0,0,0-11,13.15C181.413,198.48,188.153,204.59,188.153,204.59Z" transform="translate(-62.853 -47.932)" fill="#fafafa"/>
      <path id="Path_4080" data-name="Path 4080" d="M183.915,224.69a20.45,20.45,0,0,0,9.95-1.13l-.75-2.36,2.68-18.65h0a7.21,7.21,0,0,1-1.06-1.27c-.15-.21-.3-.44-.47-.71a9.63,9.63,0,0,1-.53-.93c-.12-.22-.23-.45-.35-.7s-.23-.5-.35-.77l-.2-.45c-.12-.3-.24-.63-.36-1a2.469,2.469,0,0,1-.1-.29c.06,1,.14,2.56.16,4.25a47.511,47.511,0,0,1-.26,5.72c-.6,4.88-5.83,15.52-7.88,17.21A1.07,1.07,0,0,0,183.915,224.69Z" transform="translate(-32.205 -47.932)" opacity="0.1"/>
      <path id="Path_4081" data-name="Path 4081" d="M189.723,141.35c-1.29,1.54-2.89,5.45-1.57,17.9,1.12,10.55,4.76,12.88,6.54,13.49s5.06-.13,8.24-.93l.43,5.15a33.641,33.641,0,0,0-7.73,8.57c-2.44,4.2,9.22,5,16.1-1.49,3.68-3.47,6-5.92,6-5.92l-1.35-15.26s2,1.69,5-1.39c2.46-2.54,3-6.53.79-8.47a4.64,4.64,0,0,0-7.24,2.08s-5.13.62-12.29-2.58S190.523,145.41,189.723,141.35Z" transform="translate(-63.733 -47.932)" fill="#ffa8a7"/>
      <path id="Path_4082" data-name="Path 4082" d="M209.33,155.89a1.34,1.34,0,1,0,.589-1.27,1.34,1.34,0,0,0-.589,1.27Z" transform="translate(-73.84 -47.932)" fill="#263238"/>
      <path id="Path_4083" data-name="Path 4083" d="M213.812,164.26l-3.43,1.41a1.82,1.82,0,0,0,2.39,1.08A2,2,0,0,0,213.812,164.26Z" transform="translate(-76.822 -47.932)" fill="#f28f8f"/>
      <path id="Path_4084" data-name="Path 4084" d="M220.156,153.21l2.92-1.47a1.57,1.57,0,0,0-2.15-.77,1.72,1.72,0,0,0-.77,2.24Z" transform="translate(-95.586 -47.932)" fill="#263238"/>
      <path id="Path_4085" data-name="Path 4085" d="M218.846,156.37a1.33,1.33,0,1,0,1.29-1.43,1.36,1.36,0,0,0-1.29,1.43Z" transform="translate(-92.856 -47.932)" fill="#263238"/>
      <path id="Path_4086" data-name="Path 4086" d="M218.9,154.46l.79,8.65-4.32-.95Z" transform="translate(-87.57 -47.932)" fill="#f28f8f"/>
      <path id="Path_4087" data-name="Path 4087" d="M197.29,171.81c3.37-.73,10.19-3.32,11-6.17a7.17,7.17,0,0,1-2.16,3.73c-1.94,2-8.71,4.55-8.71,4.55Z" transform="translate(-58.09 -47.932)" fill="#f28f8f"/>
      <path id="Path_4088" data-name="Path 4088" d="M198.18,158.91a2.67,2.67,0,1,1,0-5.34Z" transform="translate(-46.2 -47.932)" fill="#263238"/>
    </g>
  </g>
  <g id="freepik--paper-planes--inject-188" transform="translate(28.096 57.191)">
    <g id="freepik--paper-planes--inject-188-2" data-name="freepik--paper-planes--inject-188" transform="translate(0)">
      <path id="Path_4089" data-name="Path 4089" d="M423.19,331.88l-42.3-27.09-18.63,5.98Z" transform="translate(-331.286 -75.35)" fill="#c86897"/>
      <path id="Path_4090" data-name="Path 4090" d="M398.82,331.88l-36.56-30.49,8.13-9.38Z" transform="translate(-306.916 -75.35)" fill="#c86897"/>
      <path id="Path_4091" data-name="Path 4091" d="M362.26,301.39v7.08l36.56,23.41Z" transform="translate(-306.916 -75.35)" fill="#c86897"/>
      <path id="Path_4092" data-name="Path 4092" d="M362.26,301.39v7.08l36.56,23.41Z" transform="translate(-306.916 -75.35)" opacity="0.3"/>
      <path id="Path_4093" data-name="Path 4093" d="M406.18,115.58l31.2-19.98,13.74,4.41Z" transform="translate(-403.136 -75.35)" fill="#c86897"/>
      <path id="Path_4094" data-name="Path 4094" d="M424.15,115.58l26.97-22.49-6-6.92Z" transform="translate(-421.106 -75.35)" fill="#c86897"/>
      <path id="Path_4095" data-name="Path 4095" d="M451.12,93.09v5.22l-26.97,17.27Z" transform="translate(-421.106 -75.35)" fill="#c86897"/>
      <path id="Path_4096" data-name="Path 4096" d="M451.12,93.09v5.22l-26.97,17.27Z" transform="translate(-421.106 -75.35)" opacity="0.3"/>
      <path id="Path_4097" data-name="Path 4097" d="M417.421,91.58a1,1,0,0,0,.6-.2c.39-.3.79-.59,1.19-.88a1,1,0,1,0-1.17-1.62c-.41.29-.82.59-1.22.9a1,1,0,0,0,.6,1.8Z" transform="translate(-381.886 -75.35)" fill="#e0e0e0"/>
      <path id="Path_4098" data-name="Path 4098" d="M361.253,87.72a1,1,0,0,0,.53-.15q1.33-.84,2.7-1.62a1,1,0,1,0-1-1.74c-.94.54-1.86,1.09-2.77,1.66a1,1,0,0,0,.53,1.85Zm7.43-4.1a.94.94,0,0,0,.43-.1c.94-.45,1.91-.89,2.86-1.29a1,1,0,1,0-.78-1.84c-1,.42-2,.86-2.94,1.33a1,1,0,0,0,.43,1.9Zm7.86-3.19a1.19,1.19,0,0,0,.32-.05c1-.33,2-.64,3-.92a1,1,0,1,0-.53-1.92c-1,.28-2.07.6-3.09.94a1,1,0,0,0,.27,1.95Zm36.47-.2a1,1,0,0,0,.32-1.95c-1-.35-2.06-.66-3.09-1a1,1,0,1,0-.53,1.93c1,.28,2,.58,3,.91a.851.851,0,0,0,.27.11Zm-28.26-1.93h.19c1-.19,2.06-.36,3.08-.49a1.008,1.008,0,1,0-.26-2c-1.06.14-2.13.31-3.19.51a1,1,0,1,0,.18,2Zm20-.16a1,1,0,1,0,.17-2c-1.06-.18-2.14-.34-3.21-.46a1.007,1.007,0,1,0-.23,2c1,.12,2.07.27,3.1.45Zm-11.62-.79h3.13a1,1,0,0,0,0-2h-3.24a1,1,0,0,0,0,2Z" transform="translate(-320.089 -75.35)" fill="#e0e0e0"/>
      <path id="Path_4099" data-name="Path 4099" d="M356.312,82.76a1,1,0,0,0,.43-1.9l-1.39-.63a1,1,0,1,0-.81,1.83c.45.19.9.4,1.35.61A1,1,0,0,0,356.312,82.76Z" transform="translate(-257.088 -75.35)" fill="#e0e0e0"/>
      <path id="Path_4100" data-name="Path 4100" d="M412.416,297.66a1,1,0,0,0,.58-1.81l-1.22-.87a1.005,1.005,0,1,0-1.19,1.62l1.22.88A1,1,0,0,0,412.416,297.66Z" transform="translate(-369.422 -75.35)" fill="#e0e0e0"/>
      <path id="Path_4101" data-name="Path 4101" d="M452.147,293.84a1,1,0,0,0,.6-1.8l-2.37-1.8a1,1,0,0,0-1.22,1.58c.79.61,1.58,1.22,2.39,1.82a1,1,0,0,0,.6.2Zm-6.29-4.91a1,1,0,0,0,.63-1.77l-2.29-1.9a1,1,0,1,0-1.29,1.52c.76.65,1.54,1.29,2.32,1.93a1,1,0,0,0,.63.22Zm-6.06-5.19a1,1,0,0,0,.68-1.74c-.74-.67-1.47-1.34-2.18-2a1,1,0,1,0-1.42,1.41c.73.69,1.46,1.37,2.21,2.05A1,1,0,0,0,439.8,283.74Zm-5.74-5.54a.985.985,0,0,0,.7-1.69c-.69-.72-1.37-1.44-2-2.16a1,1,0,0,0-1.47,1.35c.67.74,1.36,1.47,2.06,2.2a1,1,0,0,0,.71.3Zm-5.31-5.94a1,1,0,0,0,.78-1.64c-.63-.77-1.24-1.54-1.83-2.32a1,1,0,0,0-1.59,1.21c.6.8,1.23,1.59,1.87,2.38a1,1,0,0,0,.77.37Zm-4.72-6.43a1,1,0,0,0,.84-1.54c-.54-.82-1.06-1.66-1.56-2.5a1,1,0,1,0-1.72,1c.51.87,1.05,1.74,1.6,2.58A1,1,0,0,0,424.027,265.83Zm-3.93-6.93a1.119,1.119,0,0,0,.43-.1,1,1,0,0,0,.47-1.34c-.43-.89-.83-1.79-1.2-2.68a1,1,0,1,0-1.85.77c.38.92.8,1.85,1.25,2.78A1,1,0,0,0,420.1,258.9Zm-2.9-7.42a.885.885,0,0,0,.95-1.24c-.28-.94-.54-1.89-.76-2.83a1,1,0,1,0-1.95.46c.23,1,.5,2,.8,3a1,1,0,0,0,.96.61Z" transform="translate(-414.393 -75.35)" fill="#e0e0e0"/>
      <path id="Path_4102" data-name="Path 4102" d="M453.166,243.68h.13a1,1,0,0,0,.86-1.12c-.06-.48-.11-1-.15-1.45a1,1,0,1,0-2,.18c.05.51.11,1,.17,1.52A1,1,0,0,0,453.166,243.68Z" transform="translate(-452.002 -75.35)" fill="#e0e0e0"/>
    </g>
  </g>
</svg>
