<svg xmlns="http://www.w3.org/2000/svg" width="500" height="399.439" viewBox="0 0 500 399.439">
  <g id="Messaging_fun-rafiki" data-name="Messaging fun-rafiki" transform="translate(0 -28.12)">
    <g id="freepik--background-complete--inject-169">
      <rect id="Rectangle_555" data-name="Rectangle 555" width="500" height="0.25" transform="translate(0 382.4)" fill="#ebebeb"/>
      <rect id="Rectangle_556" data-name="Rectangle 556" width="33.12" height="0.25" transform="translate(416.78 398.49)" fill="#ebebeb"/>
      <rect id="Rectangle_557" data-name="Rectangle 557" width="8.69" height="0.25" transform="translate(322.53 401.21)" fill="#ebebeb"/>
      <rect id="Rectangle_558" data-name="Rectangle 558" width="19.19" height="0.25" transform="translate(396.59 389.21)" fill="#ebebeb"/>
      <rect id="Rectangle_559" data-name="Rectangle 559" width="43.19" height="0.25" transform="translate(52.46 390.89)" fill="#ebebeb"/>
      <rect id="Rectangle_560" data-name="Rectangle 560" width="6.33" height="0.25" transform="translate(104.56 390.89)" fill="#ebebeb"/>
      <rect id="Rectangle_561" data-name="Rectangle 561" width="93.68" height="0.25" transform="translate(131.47 395.11)" fill="#ebebeb"/>
      <path id="Path_3931" data-name="Path 3931" d="M237,337.8H43.91a5.71,5.71,0,0,1-5.7-5.71V60.66A5.71,5.71,0,0,1,43.91,55H237a5.71,5.71,0,0,1,5.71,5.71V332.09A5.71,5.71,0,0,1,237,337.8ZM43.91,55.2a5.46,5.46,0,0,0-5.45,5.46V332.09a5.46,5.46,0,0,0,5.45,5.46H237a5.47,5.47,0,0,0,5.46-5.46V60.66A5.47,5.47,0,0,0,237,55.2Z" fill="#ebebeb"/>
      <path id="Path_3932" data-name="Path 3932" d="M453.31,337.8H260.21a5.72,5.72,0,0,1-5.71-5.71V60.66A5.72,5.72,0,0,1,260.21,55h193.1A5.71,5.71,0,0,1,459,60.66V332.09A5.71,5.71,0,0,1,453.31,337.8ZM260.21,55.2a5.47,5.47,0,0,0-5.46,5.46V332.09a5.47,5.47,0,0,0,5.46,5.46h193.1a5.47,5.47,0,0,0,5.46-5.46V60.66a5.47,5.47,0,0,0-5.46-5.46Z" fill="#ebebeb"/>
      <path id="Path_3933" data-name="Path 3933" d="M134.99,199.65H56.51l6.95-86.45h64.57Z" fill="#ebebeb"/>
      <rect id="Rectangle_562" data-name="Rectangle 562" width="4.27" height="182.75" transform="translate(93.61 199.65)" fill="#f5f5f5"/>
      <path id="Path_3934" data-name="Path 3934" d="M113.15,382.4H78.34a3.71,3.71,0,0,1,3.71-3.71h27.4a3.71,3.71,0,0,1,3.7,3.71Z" fill="#f0f0f0"/>
      <path id="Path_3935" data-name="Path 3935" d="M93.61,206.36l4.27-4.07v-2.64H93.61Z" fill="#e0e0e0"/>
      <rect id="Rectangle_563" data-name="Rectangle 563" width="247.74" height="118.66" transform="translate(165.9 77.9)" fill="#e0e0e0"/>
      <rect id="Rectangle_564" data-name="Rectangle 564" width="252.87" height="118.66" transform="translate(169.87 77.9)" fill="#f5f5f5"/>
      <rect id="Rectangle_565" data-name="Rectangle 565" width="77.08" height="226.7" transform="translate(182.96 175.77) rotate(-90)" fill="#fff"/>
      <rect id="Rectangle_566" data-name="Rectangle 566" width="62.88" height="112.2" rx="11.01" transform="translate(447.87 382.39) rotate(180)" fill="#f5f5f5"/>
      <rect id="Rectangle_567" data-name="Rectangle 567" width="62.88" height="112.2" rx="11.01" transform="translate(429.04 382.39) rotate(180)" fill="#e6e6e6"/>
      <rect id="Rectangle_568" data-name="Rectangle 568" width="21.93" height="3.1" rx="1.08" transform="translate(434.67 270.19) rotate(180)" fill="#f5f5f5"/>
      <rect id="Rectangle_569" data-name="Rectangle 569" width="21.93" height="3.1" rx="1.08" transform="translate(428.1 270.19) rotate(180)" fill="#e6e6e6"/>
      <rect id="Rectangle_570" data-name="Rectangle 570" width="238.99" height="52.31" rx="5.46" transform="translate(419.99 382.4) rotate(180)" fill="#f0f0f0"/>
      <path id="Path_3936" data-name="Path 3936" d="M164.71,233.43H359c6.11,0,11.49,5.52,12,12.32L376.17,314c.52,6.8-4,12.32-10.14,12.32H171.72c-6.12,0-11.49-5.52-12-12.32l-5.14-68.23C154.05,239,158.6,233.43,164.71,233.43Z" fill="#ebebeb"/>
      <path id="Path_3937" data-name="Path 3937" d="M179.74,233.43H374.05c6.12,0,11.49,5.52,12,12.32L391.2,314c.51,6.8-4,12.32-10.15,12.32H186.74c-6.12,0-11.49-5.52-12-12.32l-5.15-68.23C169.08,239,173.62,233.43,179.74,233.43Z" fill="#fafafa"/>
      <path id="Path_3938" data-name="Path 3938" d="M288.34,314l-5.15-68.22c-.49-6.47-5.59-11.74-11.37-11.74v-1.27c6.43,0,12.1,5.79,12.64,12.91l5.14,68.23Z" fill="#f0f0f0"/>
      <rect id="Rectangle_571" data-name="Rectangle 571" width="62.88" height="112.2" rx="11.01" transform="translate(222.16 382.39) rotate(180)" fill="#f5f5f5"/>
      <rect id="Rectangle_572" data-name="Rectangle 572" width="216.46" height="28.97" rx="6.52" transform="translate(426.18 334.85) rotate(180)" fill="#f5f5f5"/>
      <path id="Path_3939" data-name="Path 3939" d="M311.76,335.48v-1.26c3.06,0,5.55-2.81,5.55-6.25V312.76c0-3.45-2.49-6.25-5.55-6.25v-1.27c3.76,0,6.82,3.37,6.82,7.52V328C318.58,332.11,315.52,335.48,311.76,335.48Z" fill="#ebebeb"/>
      <rect id="Rectangle_573" data-name="Rectangle 573" width="62.88" height="112.2" rx="11.01" transform="translate(203.34 382.39) rotate(180)" fill="#e6e6e6"/>
      <path id="Path_3940" data-name="Path 3940" d="M349.57,229.09c27.29,2.45,31.57,36.81,33.5,49.79s-22.51-.49-37.75,1-20.2,7.43-37.2,4.71-24.1-4.64-35.79-2.71-32.25,2.63-34.37-1.05c-2-3.39-7.52-39.06-18.33-46.21-1.74-1.15-1.08-2.78,1.41-3.52C241.58,225,325,226.89,349.57,229.09Z" fill="#e6e6e6"/>
    </g>
    <g id="freepik--Shadow--inject-169">
      <ellipse id="freepik--path--inject-169" cx="193.89" cy="11.32" rx="193.89" ry="11.32" transform="translate(56.11 404.92)" fill="#f5f5f5"/>
    </g>
    <g id="freepik--bubble-speech--inject-169">
      <path id="Path_3941" data-name="Path 3941" d="M397.08,127.61a16.17,16.17,0,0,0-1.63-7.24c-.94-1.65-3.44-6-34.61-6v-1c31.75,0,34.27,4.42,35.48,6.54a17.069,17.069,0,0,1,1.75,7.7Z" fill="#fdafaf"/>
      <path id="Path_3942" data-name="Path 3942" d="M395.94,144.92l-1-.23a93.343,93.343,0,0,0,1.72-9.51l1,.13A90.488,90.488,0,0,1,395.94,144.92Z" fill="#fdafaf"/>
      <path id="Path_3943" data-name="Path 3943" d="M393.28,121.6c-4.19-7.36-63.18-4.8-74.12-1.66-14.8,4.26-21.45,42.47-22.58,51.69,0,0,8.69-9.12,16.35-11.43,3.65,1.28,43.88,8.31,51.37,10.31,8.56,2.29,17.65,0,21.83-7.46S397.65,129.29,393.28,121.6Z" fill="#029359"/>
      <path id="Path_3944" data-name="Path 3944" d="M380.05,132.25a2.188,2.188,0,0,1-.36,0c-27.9-4-60.19-1.15-60.51-1.12a2.51,2.51,0,1,1-.45-5c.33,0,33.2-2.91,61.67,1.15a2.506,2.506,0,0,1-.35,5Z" fill="#fff"/>
      <path id="Path_3945" data-name="Path 3945" d="M376,145.63a2.18,2.18,0,0,1-.44,0,295.408,295.408,0,0,0-61-4,2.5,2.5,0,1,1-.3-5,300.575,300.575,0,0,1,62.16,4,2.509,2.509,0,1,1-.42,5Z" fill="#fff"/>
      <path id="Path_3946" data-name="Path 3946" d="M359.48,159.33a2.72,2.72,0,0,1-.69-.09,156.541,156.541,0,0,0-47-5.71,2.505,2.505,0,0,1-.32-5,158.359,158.359,0,0,1,48.69,5.89,2.5,2.5,0,0,1-.69,4.9Z" fill="#fff"/>
    </g>
    <g id="freepik--Emoji--inject-169">
      <path id="Path_3947" data-name="Path 3947" d="M111.36,112.45c3.21-7.84,44.84-11.7,56.09-10,15.22,2.32,27.08,42.07,29,53,0,0-9.78-7.94-17.68-9.24-3.45,1.73-24.83,9.3-32.4,11-8.65,1.91-17.51,2.23-22.61-4.61S108,120.63,111.36,112.45Z" fill="#19c17e"/>
      <path id="Path_3948" data-name="Path 3948" d="M167.45,102.46c-11.25-1.72-52.88,2.15-56.08,10a12.85,12.85,0,0,0-.57,5.66c8,12.65,20.26,22.37,34.34,23,17.09.56,34.07-7.89,40.66-17.89C180.84,112.66,174.52,103.54,167.45,102.46Z" opacity="0.1"/>
      <circle id="Ellipse_265" data-name="Ellipse 265" cx="29.12" cy="29.12" r="29.12" transform="translate(120.489 102.346) rotate(-51.94)" fill="#fdafaf"/>
      <circle id="Ellipse_266" data-name="Ellipse 266" cx="29.12" cy="29.12" r="29.12" transform="translate(120.489 102.346) rotate(-51.94)" fill="#fff" opacity="0.4"/>
      <path id="Path_3949" data-name="Path 3949" d="M160,88.32c.35.71-.71,1.84-2.37,2.52s-3.28.67-3.64,0,.71-1.84,2.37-2.52S159.62,87.62,160,88.32Z" fill="#fdafaf"/>
      <path id="Path_3950" data-name="Path 3950" d="M152.22,81.18a16.57,16.57,0,0,1,5.88-1.09,19.08,19.08,0,0,1,3,.2,15.64,15.64,0,0,1,3,.74,1,1,0,0,1-.2,1.97h0c-.78.09-1.65.26-2.48.43a22.224,22.224,0,0,0-2.47.7,18.83,18.83,0,0,0-4.7,2.33A9.51,9.51,0,0,1,156,84.28a12.64,12.64,0,0,1,2.31-1.59,15.452,15.452,0,0,1,2.59-1.09,13.831,13.831,0,0,1,2.79-.63l-.27,1.92a24.141,24.141,0,0,0-2.64-.71c-.92-.21-1.84-.36-2.78-.49s-1.89-.25-2.85-.31S153.22,81.27,152.22,81.18Z" fill="#263238"/>
      <path id="Path_3951" data-name="Path 3951" d="M179.56,75.35a11.32,11.32,0,0,0-1.5.86,7.19,7.19,0,0,0-1.24,1,8.831,8.831,0,0,0-1,1.19,7.9,7.9,0,0,0-.76,1.29l-1.17-1a6.94,6.94,0,0,1,2-.84,7.151,7.151,0,0,1,2.11-.22,6.36,6.36,0,0,1,3.82,1.38,13.181,13.181,0,0,0-1.92-.26,8.64,8.64,0,0,0-1.84.08,9.24,9.24,0,0,0-1.74.44,8.68,8.68,0,0,0-1.56.74h0a.79.79,0,0,1-1.09-.25.8.8,0,0,1,0-.72,6.13,6.13,0,0,1,1-1.66A6.279,6.279,0,0,1,176,76.21a5.79,5.79,0,0,1,1.71-.75A5.09,5.09,0,0,1,179.56,75.35Z" fill="#263238"/>
      <path id="Path_3952" data-name="Path 3952" d="M184.13,82.75c.07.76-1.25,1.49-3,1.64S178,84,177.94,83.27s1.25-1.49,2.95-1.64S184.05,82,184.13,82.75Z" fill="#fdafaf"/>
      <path id="Path_3953" data-name="Path 3953" d="M160.73,92.16a60.85,60.85,0,0,1,21.66-6.25,1.17,1.17,0,0,1,1.25,1c.83,8.52-14.74,13-23,7a1,1,0,0,1,.09-1.75Z" fill="#263238"/>
      <path id="Path_3954" data-name="Path 3954" d="M176.25,90.61a7.73,7.73,0,0,0-1.49,1,6.37,6.37,0,0,0-4.34.56,6.13,6.13,0,0,0-3.59,4.3,19.11,19.11,0,0,0,6,.06,18.431,18.431,0,0,0,4.39-1.18,11.47,11.47,0,0,0,5.33-4C181.38,89.73,178.74,89.41,176.25,90.61Z" fill="#fdafaf"/>
    </g>
    <g id="freepik--Heart--inject-169">
      <path id="Path_3955" data-name="Path 3955" d="M238.63,34.36C225.5,21.05,196.15,30.48,207.34,49s36.22,32,41.11,39.07c3.33-14.43,12.61-23.63,18.64-35.69S257.28,22.53,238.63,34.36Z" fill="#fdafaf"/>
      <path id="Path_3956" data-name="Path 3956" d="M238.63,34.36C225.5,21.05,196.15,30.48,207.34,49s36.22,32,41.11,39.07c3.33-14.43,12.61-23.63,18.64-35.69S257.28,22.53,238.63,34.36Z" fill="#005257" opacity="0.3"/>
    </g>
    <g id="freepik--Character--inject-169">
      <path id="Path_3957" data-name="Path 3957" d="M287.68,315.58h7.84l32.33,100.66h-2.62Z" fill="#fdafaf"/>
      <path id="Path_3958" data-name="Path 3958" d="M255.98,315.58h7.85l12.24,100.66h-2.62Z" fill="#fdafaf"/>
      <path id="Path_3959" data-name="Path 3959" d="M210.3,315.58h-7.85L170.13,416.24h2.62Z" fill="#fdafaf"/>
      <path id="Path_3960" data-name="Path 3960" d="M241.99,315.58h-7.84L221.91,416.24h2.62Z" fill="#fdafaf"/>
      <path id="Path_3961" data-name="Path 3961" d="M280.93,337.89c-37.86.44-91.67-.82-115.46-47.41-16.12-31.57-33.36-98.62,13.87-117.79s119.76,2.47,119.07,39.59,38.22,46.21,51,71.48C365.2,315.15,330.82,337.31,280.93,337.89Z" fill="#fdafaf"/>
      <path id="Path_3962" data-name="Path 3962" d="M280.93,337.89c-37.86.44-91.67-.82-115.46-47.41-16.12-31.57-33.36-98.62,13.87-117.79s119.76,2.47,119.07,39.59,38.22,46.21,51,71.48C365.2,315.15,330.82,337.31,280.93,337.89Z" fill="#fff" opacity="0.7"/>
      <path id="Path_3963" data-name="Path 3963" d="M320.66,302.54c-.4,5.75-27.74,8.53-61.06,6.21s-54.38-4.08-60.48-17.2c-12.3-26.47-13.89-104,19.44-101.66S321.06,296.79,320.66,302.54Z" fill="#fdafaf" opacity="0.3"/>
      <path id="Path_3964" data-name="Path 3964" d="M270.46,187.63l.26,1.79.31,1.91.67,3.86c.49,2.57,1,5.15,1.57,7.71a149.35,149.35,0,0,0,4.16,15c.43,1.2.82,2.44,1.31,3.61s.88,2.4,1.41,3.54,1,2.42,1.37,3.23c.19.43.34.8.42,1s.13.22-.71-.21a5.55,5.55,0,0,0-2.65-.52,5.461,5.461,0,0,0-1.8.42,6.866,6.866,0,0,0-.68.36,5.131,5.131,0,0,0-.49.37,2.08,2.08,0,0,0-.7.89c0,.13,0,.14.11.07a8.3,8.3,0,0,0,1.35-2.39c.95-2.14,1.77-4.78,2.65-7.22l8.35.41a39.587,39.587,0,0,1,.56,9.28,19.46,19.46,0,0,1-1.12,5.54,10.908,10.908,0,0,1-.91,1.88,9.241,9.241,0,0,1-2.1,2.42,8.731,8.731,0,0,1-.93.65,6.849,6.849,0,0,1-1.15.58,8.07,8.07,0,0,1-2.81.63,9,9,0,0,1-4.62-1.08,13.66,13.66,0,0,1-3.75-3,21.831,21.831,0,0,1-1.9-2.43,38.684,38.684,0,0,1-2.43-4.17,87.41,87.41,0,0,1-3.84-8.15,120.863,120.863,0,0,1-5.55-16.79c-.73-2.84-1.34-5.7-1.88-8.58-.27-1.44-.51-2.88-.73-4.34-.1-.73-.2-1.47-.29-2.21s-.17-1.44-.26-2.34Z" fill="#ff8b7b"/>
      <path id="Path_3965" data-name="Path 3965" d="M248.81,184.86c-5.09,9.48,7.68,34.6,7.68,34.6l23-12.51s-1.73-6.65-7.41-19.37C265.85,173.73,255,173.37,248.81,184.86Z" fill="#263238"/>
      <path id="Path_3966" data-name="Path 3966" d="M278.64,223.77l.45-11.26,12.82,4.31S290.26,227,284.72,227Z" fill="#ff8b7b"/>
      <path id="Path_3967" data-name="Path 3967" d="M287.64,204.5l4.24,2.27a3.92,3.92,0,0,1,1.85,4.71l-1.82,5.34-12.82-4.31,3.22-6.33a3.92,3.92,0,0,1,5.33-1.68Z" fill="#ff8b7b"/>
      <path id="Path_3968" data-name="Path 3968" d="M260.88,176.64a125.751,125.751,0,0,0-39-2.21,18.3,18.3,0,0,0-16.3,15.83c-5.21,39.39-1.91,60.34-2.16,71.12l59.37,5.26c-.48-11.28.42-40.72,6-78.54A10.22,10.22,0,0,0,260.88,176.64Z" fill="#263238"/>
      <path id="Path_3969" data-name="Path 3969" d="M309.59,310.46l11.14.27,4.73-25.67-11.15-.28Z" fill="#ff8b7b"/>
      <path id="Path_3970" data-name="Path 3970" d="M322.31,308.78l-11.58-3.66a.85.85,0,0,0-1.06.46l-4.15,9.09a1.82,1.82,0,0,0,1.11,2.44c4.2,1.24,5.62,1.34,10.87,3,6.14,1.94,8.61,3.42,15.81,5.7,4.35,1.37,6.51-2.78,4.78-3.79-5.46-3.18-11.59-8.2-13.41-11.58a3.93,3.93,0,0,0-2.37-1.66Z" fill="#263238"/>
      <path id="Path_3971" data-name="Path 3971" d="M325.45,285.07l-2.43,13.23-11.15-.28,2.43-13.23Z" opacity="0.2"/>
      <path id="Path_3972" data-name="Path 3972" d="M330.5,218.31c-13.63-6.81-48.22,29.82-92.08,46.17-.95,16.73,17.79,25.34,37.85,22.9,19.87-2.42,27.21-12.95,33.32-27.45-3.44,14.89-.17,30.36-.17,30.36l17.29,4.88S343,224.53,330.5,218.31Z" fill="#fdafaf"/>
      <path id="Path_3973" data-name="Path 3973" d="M330.5,218.31c-13.63-6.81-48.22,29.82-92.08,46.17-.95,16.73,17.79,25.34,37.85,22.9,19.87-2.42,27.21-12.95,33.32-27.45-3.44,14.89-.17,30.36-.17,30.36l17.29,4.88S343,224.53,330.5,218.31Z" opacity="0.2"/>
      <path id="Path_3974" data-name="Path 3974" d="M328.71,297.32l-22.33-2.06-.48-7.35,24.93,1.91Z" fill="#263238"/>
      <path id="Path_3975" data-name="Path 3975" d="M321,308.75a.29.29,0,0,1-.14-.24.27.27,0,0,1,.18-.25c.53-.19,5.29-1.81,6.52-.87a.83.83,0,0,1,.33.76h0a1.47,1.47,0,0,1-.67,1.2c-1.36.9-4.46,0-6.18-.59Zm6.15-1c-.79-.41-3.32.17-5.19.75,2.38.75,4.21.9,5,.4a1,1,0,0,0,.44-.8.3.3,0,0,0-.13-.3Z" fill="#fdafaf"/>
      <path id="Path_3976" data-name="Path 3976" d="M321,308.75l-.06-.05a.25.25,0,0,1-.07-.25c0-.12.74-3.05,2.31-4a1.92,1.92,0,0,1,1.51-.24h0c.71.17.86.57.87.87,0,1.27-2.95,3.29-4.36,3.69a.27.27,0,0,1-.2-.02Zm3.82-3.95a1.26,1.26,0,0,0-.26-.09h0a1.46,1.46,0,0,0-1.11.18,6.36,6.36,0,0,0-1.93,3.2c1.47-.63,3.53-2.25,3.51-3-.03-.09-.03-.18-.26-.29Z" fill="#fdafaf"/>
      <path id="Path_3977" data-name="Path 3977" d="M252.19,177.08c-6.55-2.93-5.38-6.85-3.23-11.14l-13.78-12.55c.49,5.51.39,14.73-3.41,19.55a3.73,3.73,0,0,0,.36,5.11,29.78,29.78,0,0,0,15.58,7.6c6.73,1.18,8.23-1.65,7.79-4.5a5.5,5.5,0,0,0-3.31-4.07Z" fill="#ff8b7b"/>
      <path id="Path_3978" data-name="Path 3978" d="M240.8,158.51c-1.47-.51-1.8,1.49-1.8,4.31s4.79,7.78,8.39,7.35a15.45,15.45,0,0,1,1.59-4.23Z" opacity="0.2"/>
      <path id="Path_3979" data-name="Path 3979" d="M264.88,149.35c3.79-3.66,8.64-13.77,7.63-18.76A19.25,19.25,0,0,0,260,129.26a29.87,29.87,0,0,0-9.65,5l6.14,5.24-.12,3.54,3.42,3.79-1,3.42a1.61,1.61,0,0,0,2.28,1.88Z" fill="#263238"/>
      <path id="Path_3980" data-name="Path 3980" d="M237.89,136.29c-2.85,10.67-5.07,16.78-1.56,23.87,5.28,10.66,19.85,10.08,25.85.45,5.4-8.67,9.15-24.66.26-32.16a15.22,15.22,0,0,0-24.55,7.84Z" fill="#ff8b7b"/>
      <path id="Path_3981" data-name="Path 3981" d="M233,142.71c-.55-6.59-1-11.55-1-17.37,2.88-.73,7.32-2.71,12-.51a29.94,29.94,0,0,1,8.57,6.7l-7,4-.52,3.51-4,3.11.36,3.54a1.61,1.61,0,0,1-2.58,1.44Z" fill="#263238"/>
      <path id="Path_3982" data-name="Path 3982" d="M272.52,133.77c5.07-2.65,12-15.46.12-14.92-7.67.35-17.07,1.37-25.06-3.12,0,0,2.32,4,8.28,4.52,12.95,1.18,13.36-.92,17.23,0C279.9,121.73,272.52,133.77,272.52,133.77Z" fill="#263238"/>
      <path id="Path_3983" data-name="Path 3983" d="M273.54,122.21c-8.55-4.77-17.94-1.06-25.21-3.82s-15.08,1.56-16.4,7l20.61,6.19c7.81,5.61,9.6,6.78,13.88,5.51C272.64,135.21,282.08,127,273.54,122.21Z" fill="#263238"/>
      <path id="Path_3984" data-name="Path 3984" d="M233.68,124.2c-3.66.68-5.61,3.89-2.45,8-1.15-4.43,2.37-5.94,2.37-5.94Z" fill="#263238"/>
      <path id="Path_3985" data-name="Path 3985" d="M229.49,144.92a10.42,10.42,0,0,0,4.3,6.75c3,2.08,5.76-.34,5.94-3.82.15-3.13-1.24-8-4.78-8.68S228.94,141.57,229.49,144.92Z" fill="#ff8b7b"/>
      <path id="Path_3986" data-name="Path 3986" d="M252.16,143.67c-.28.85-.06,1.69.5,1.87s1.24-.36,1.53-1.21.06-1.69-.5-1.87S252.45,142.82,252.16,143.67Z" fill="#263238"/>
      <path id="Path_3987" data-name="Path 3987" d="M262.51,147.52c-.28.85-.06,1.69.5,1.87s1.24-.36,1.53-1.21.06-1.69-.5-1.87S262.8,146.67,262.51,147.52Z" fill="#263238"/>
      <path id="Path_3988" data-name="Path 3988" d="M259.3,147s.3,5.54,1.65,8.61c-2,.91-4.34-.56-4.34-.56Z" fill="#ff5652"/>
      <path id="Path_3989" data-name="Path 3989" d="M252.24,156.1a7.32,7.32,0,0,1-3.9-4.35.264.264,0,1,1,.51-.14,7.09,7.09,0,0,0,4.64,4.43.25.25,0,0,1,.17.33.26.26,0,0,1-.33.17,7.739,7.739,0,0,1-1.09-.44Z" fill="#263238"/>
      <path id="Path_3990" data-name="Path 3990" d="M250.82,138.54a.6.6,0,0,1-.21-.18.53.53,0,0,1,.14-.73,5.3,5.3,0,0,1,4.78-.74.539.539,0,1,1-.4,1h0a4.24,4.24,0,0,0-3.78.62.51.51,0,0,1-.53.03Z" fill="#263238"/>
      <path id="Path_3991" data-name="Path 3991" d="M268,144.86a.51.51,0,0,1-.34-.37,4.12,4.12,0,0,0-2.43-2.92.53.53,0,0,1,.35-1,5.21,5.21,0,0,1,3.11,3.66.54.54,0,0,1-.39.64.51.51,0,0,1-.3-.01Z" fill="#263238"/>
      <path id="Path_3992" data-name="Path 3992" d="M347.39,400.35l9.14-6.38-11.41-23.48-9.14,6.38Z" fill="#ff8b7b"/>
      <path id="Path_3993" data-name="Path 3993" d="M356.29,390.94l-11.1,4.92a.85.85,0,0,0-.49,1.05l2.9,9.56a1.82,1.82,0,0,0,2.45,1.09c4-1.84,5.09-2.71,10.13-4.93,5.89-2.61,8.72-3.13,15.63-6.19,4.17-1.85,3-6.39,1.08-6-6.2,1.22-14.12,1.51-17.72.18A4,4,0,0,0,356.29,390.94Z" fill="#263238"/>
      <path id="Path_3994" data-name="Path 3994" d="M345.12,370.5,351,382.6l-9.14,6.38-5.88-12.1Z" opacity="0.2"/>
      <path id="Path_3995" data-name="Path 3995" d="M295.85,308.81c-75.19-2.35-94-1.71-92.41-47.43l38.21,3.39s66.6,4.11,74.86,26.28c12.42,33.35,35.09,84.74,35.09,84.74l-15,9.92S305.8,348.06,295.85,308.81Z" fill="#fdafaf"/>
      <path id="Path_3996" data-name="Path 3996" d="M355,378.44l-19.2,11.58-4.75-5.64,21.22-13.24Z" fill="#263238"/>
      <path id="Path_3997" data-name="Path 3997" d="M355.26,391.82a.28.28,0,0,1-.27-.09.27.27,0,0,1,0-.3c.28-.5,2.77-4.85,4.32-5a.86.86,0,0,1,.75.35h0a1.47,1.47,0,0,1,.29,1.34c-.43,1.58-3.33,3-5,3.65Zm3.95-4.81c-.86.21-2.38,2.32-3.39,4,2.28-1,3.75-2.11,4-3a1,1,0,0,0-.2-.89.31.31,0,0,0-.3-.14Z" fill="#fdafaf"/>
      <path id="Path_3998" data-name="Path 3998" d="M355.26,391.82h-.08a.24.24,0,0,1-.22-.14c-.06-.11-1.46-2.78-.92-4.53a1.94,1.94,0,0,1,1-1.18h0c.65-.34,1-.15,1.23.07.86.94,0,4.42-.83,5.66A.26.26,0,0,1,355.26,391.82Zm.25-5.49a1,1,0,0,0-.25.11h0a1.4,1.4,0,0,0-.72.87c-.35,1.15.3,2.86.67,3.67.69-1.44,1.16-4,.64-4.58-.03-.04-.11-.12-.34-.07ZM355.14,386.2Z" fill="#fdafaf"/>
      <path id="Path_3999" data-name="Path 3999" d="M291,209.34l-12-.19a3.11,3.11,0,0,0-2.3.93l-14.93,20a1,1,0,0,0,.11,1.36c.38.39.86.29,1.59.3l11.81.18a3.13,3.13,0,0,0,2.31-.92l14.77-19.77C292.87,210.56,292.94,209.34,291,209.34Z" fill="#fdafaf"/>
      <path id="Path_4000" data-name="Path 4000" d="M228.36,187.76l.19,2.38.23,2.51c.17,1.68.35,3.36.55,5,.41,3.36.86,6.72,1.45,10a110.631,110.631,0,0,0,4.8,19.09c.52,1.49,1.15,2.95,1.76,4.31.28.71.41.86.37,1s.23.38,1.08.43a10.639,10.639,0,0,0,3.35-.44,33,33,0,0,0,4.13-1.49c1.43-.63,2.87-1.36,4.32-2.14s2.9-1.62,4.33-2.52,2.91-1.83,4.23-2.7l5.82,6c-1.26,1.58-2.46,2.95-3.8,4.34s-2.69,2.69-4.16,3.95a48.827,48.827,0,0,1-4.67,3.64,36.352,36.352,0,0,1-5.46,3.17,24.359,24.359,0,0,1-7,2.11,17.49,17.49,0,0,1-4.45,0,15.3,15.3,0,0,1-4.82-1.51,15.13,15.13,0,0,1-4.08-3,18.4,18.4,0,0,1-2.7-3.68c-1-1.81-1.92-3.57-2.73-5.39a106,106,0,0,1-6.87-21.94c-.74-3.69-1.37-7.38-1.82-11.08-.24-1.86-.44-3.71-.59-5.58-.08-.94-.16-1.87-.21-2.82s-.1-1.84-.13-2.94Z" fill="#ff8b7b"/>
      <path id="Path_4001" data-name="Path 4001" d="M209.93,182.46c-6.08,8.88,3.93,35.22,3.93,35.22l24.18-10s-1-6.8-5.3-20C228.06,173.21,217.3,171.7,209.93,182.46Z" fill="#263238"/>
      <path id="Path_4002" data-name="Path 4002" d="M257.09,224.77l8.27-7.66,6,12.09s-8.33,6-12.25,2.12Z" fill="#ff8b7b"/>
      <path id="Path_4003" data-name="Path 4003" d="M277.07,217.47l1.4,4.59a3.9,3.9,0,0,1-2,4.64l-5.06,2.5-6-12.09,6.75-2.22a3.92,3.92,0,0,1,4.91,2.58Z" fill="#ff8b7b"/>
    </g>
  </g>
</svg>
