<svg xmlns="http://www.w3.org/2000/svg" width="872.686" height="912" viewBox="0 0 872.686 912">
  <g id="contact-3" transform="translate(-10.103 -40.276)">
    <g id="freepik--Floor--inject-253" transform="translate(10.102 382.035)">
      <path id="freepik--floor--inject-253-2" data-name="freepik--floor--inject-253" d="M137.9,289.746c-170.4,111.344-170.4,291.88,0,403.224s446.688,111.344,617.084,0,170.415-291.88,0-403.224S308.314,178.4,137.9,289.746Z" transform="translate(-10.102 -206.237)" fill="#fafafa"/>
    </g>
    <g id="freepik--Plants--inject-253" transform="translate(47.022 361.684)">
      <g id="freepik--plants--inject-253-2" data-name="freepik--plants--inject-253" transform="translate(738.797 12.137)">
        <path id="Path_4670" data-name="Path 4670" d="M473.342,202.684c-10.189,2.492-25.782,17.957-32.405,48.1a176.957,176.957,0,0,0-2.329,67.3c2.056,1.689,4.076,3.377,6.077,5.107l1.565,1.339q3.148,2.739,6.168,5.5l1.456,1.359c.437-5.951,1.164-13.323,2.384-22.281.437-3.089.91-6.034,1.4-8.834,7.515-41.185,23.926-50.843,31.477-69.006C497.633,210.9,484.769,199.863,473.342,202.684Z" transform="translate(-436.437 -202.248)" fill="#e0e0e0"/>
        <path id="Path_4671" data-name="Path 4671" d="M472.527,208.89c-15.921,16.474-33.9,59.719-29.8,110.109l-1.51-1.3c-3.639-50.349,14.41-93.532,30.367-109.985a.67.67,0,0,1,1.037,0,.9.9,0,0,1,.173.609.861.861,0,0,1-.264.565Z" transform="translate(-432.91 -196.717)" fill="#fff"/>
        <path id="Path_4672" data-name="Path 4672" d="M469.745,281.7a96.95,96.95,0,0,0-14.556,31.713c-1.346-1.318-2.693-2.656-4.057-3.954l-1.383-1.318c-1.019-.988-2.038-1.956-3.093-2.9l-1.456-1.359a158.449,158.449,0,0,1,5.677-35.008c3.639-11.182,9.352-23.6,14.356-29.612,12.427-14.909,26.874-16.309,31.969-4.118S482.882,262.078,469.745,281.7Z" transform="translate(-429.255 -176.1)" fill="#f0f0f0"/>
        <path id="Path_4673" data-name="Path 4673" d="M480.034,236.441c-10.317,7.084-27.838,38.076-30.932,64.579L447.72,299.7c3.475-26.956,20.906-57.35,31.568-64.681a.685.685,0,0,1,1,.288A.89.89,0,0,1,480.034,236.441Z" transform="translate(-427.19 -167.658)" fill="#fff"/>
      </g>
      <g id="freepik--plants--inject-253-3" data-name="freepik--plants--inject-253" transform="translate(0)">
        <path id="Path_4674" data-name="Path 4674" d="M91.4,313.5c-2.329,1.73-4.64,3.48-6.9,5.23q-4.258,3.336-8.333,6.693a183.691,183.691,0,0,0-10.79-62.766A118.467,118.467,0,0,0,55.724,242.2c-17.067-27.759-14.083-41.329-3.766-45.3s37.427,13.509,41.849,60.151C95.735,277.665,93.479,299.782,91.4,313.5Z" transform="translate(-19.595 -196.355)" fill="#f0f0f0"/>
        <path id="Path_4675" data-name="Path 4675" d="M74.965,314.047h-.127a1.051,1.051,0,0,1-.728-1.215c7.278-43.018-6.041-91.328-22.489-111.447a1.128,1.128,0,0,1,0-1.462.852.852,0,0,1,1.292,0C69.652,220.391,83.19,269.5,75.857,313.182A.953.953,0,0,1,74.965,314.047Z" transform="translate(-13.217 -192.89)" fill="#fff"/>
        <path id="Path_4676" data-name="Path 4676" d="M96.708,289.286a40.67,40.67,0,0,1-1.4,7.187q-4.258,3.336-8.333,6.693-6.769,5.6-13.028,11.367l-1.82,1.647q-9.9,9.2-18.541,18.822h0c-1.965,1.133-7.187-3.954-8.643-5.169a20.61,20.61,0,0,1-5.731-8.237,21.893,21.893,0,0,1-1-11.717,53.03,53.03,0,0,1,1.583-6.178c.6-2.059,1.2-3.933,1.819-5.91a16.65,16.65,0,0,0,1.055-6.013c-.291-4.119-3.366-7.187-6.186-9.823-3.111-2.924-6.314-6.734-6.077-11.676A18.46,18.46,0,0,1,34.7,260.148c2.22-2.862,4.822-5.375,6.841-8.422a13.155,13.155,0,0,0,2.547-7.537,14.02,14.02,0,0,0-1.274-4.88,74.635,74.635,0,0,1-4.2-9.885c-.91-3.521-.564-7.8,1.929-10.152a9.066,9.066,0,0,1,7.606-1.668,16.2,16.2,0,0,1,6.86,3.171c6.732,4.757,10.28,14.271,17.467,18.039a19.94,19.94,0,0,0,3.785,1.462c1.656.515,3.366.906,5,1.5a11.363,11.363,0,0,1,7.1,6.178c2.42,6.178-2.911,13.488-1.31,20.078,1,4.119,3.639,6.569,6.114,9.555a20.282,20.282,0,0,1,1.674,2.306,14.349,14.349,0,0,1,.983,1.75,13.831,13.831,0,0,1,.892,7.64Z" transform="translate(-30.393 -174.101)" fill="#e0e0e0"/>
        <path id="Path_4677" data-name="Path 4677" d="M65.451,310.317l-1.82,1.647c1.2-36.943-12.063-76.584-22.616-88.96a1.06,1.06,0,0,1,0-1.38.8.8,0,0,1,1.219,0C52.9,234.062,66.179,273.353,65.451,310.317Z" transform="translate(-21.898 -169.885)" fill="#fff"/>
        <path id="Path_4678" data-name="Path 4678" d="M63.336,249.931a.563.563,0,0,1-.255,0A105.116,105.116,0,0,0,38.354,244a.828.828,0,0,1-.584-.341,1.055,1.055,0,0,1-.2-.71,1,1,0,0,1,.3-.676.77.77,0,0,1,.644-.209,104.963,104.963,0,0,1,25.164,6.054,1.025,1.025,0,0,1,.506,1.106.908.908,0,0,1-.852.789Z" transform="translate(-24.513 -147.945)" fill="#fff"/>
      </g>
    </g>
    <g id="freepik--Shadows--inject-253" transform="translate(86.781 472.381)">
      <path id="freepik--Shadow--inject-253" d="M348.783,252.087,97.364,416.4c-4.039,2.636-4.039,6.919,0,9.576L442.779,651.048a14.557,14.557,0,0,0,14.647,0L708.845,486.7c4.058-2.636,4.058-6.919,0-9.576L363.43,252.087a14.557,14.557,0,0,0-14.647,0Z" transform="translate(-17.752 -250.11)" fill="#e0e0e0"/>
      <path id="freepik--shadow--inject-253-2" data-name="freepik--shadow--inject-253" d="M251.38,351.249c45.488,30.106,45.488,78.932,0,109.038s-119.432,30.106-164.993,0-45.488-78.932,0-109.038S205.82,321.122,251.38,351.249Z" transform="translate(-52.245 -166.904)" fill="#e0e0e0"/>
    </g>
    <g id="freepik--Lines--inject-253" transform="translate(71.153 761.131)">
      <path id="freepik--Line--inject-253" d="M52.051,400.458c33.861,28.088,69.632,34.143,108.042,36.161,25.473,1.318,50.946-.638,76.2-3.521,11.3-1.3,22.562-2.821,33.806-4.386,12.154-1.709,24.29-3.48,36.554-3.048,8.952.309,18.5,1.4,26.874,6.034,8.1,4.469,13.537,13.8,10.371,24.2a33.985,33.985,0,0,1-6.932,11.841c-9.571,11.429-21.4,19.254-28.239,33.648-2.329,4.942-4.185,12.912-1.692,17.751,6.114,11.82,27.293,11.8,36.881,11.367,26.692-1.236,42.813-5.931,60.826-13.406,27.675-11.511,49.563-28.83,69.523-46.272,5.932-5.189,12.227-9.905,18.2-15.177,1-.906,1.492,1.771.764,2.492-9.552,9.534-20.142,17.421-29.858,26.606a166.854,166.854,0,0,1-29.294,22.075c-20.742,12.356-33.279,19.131-58.024,25.061A252.091,252.091,0,0,1,348.921,536a118.738,118.738,0,0,1-31.514-.989c-6.3-1.153-14.847-5.5-17.249-13.385-2.729-8.937,0-17.73,4.276-25.473a83.709,83.709,0,0,1,15.648-19.316c4.076-4.119,10.753-10.42,13.956-15.362,12.1-18.76-5.459-27.162-19.651-28.974a133.976,133.976,0,0,0-33.115.6c-10.917,1.5-22.4,3.707-33.26,5.086a520.564,520.564,0,0,1-74.836,5.127,394.615,394.615,0,0,1-40.284-2.883c-40.156-4.983-72.653-23.393-86.263-41.947-1.51-2.059-3.821-6.3-2.656-7a52.681,52.681,0,0,0,8.079,8.978Z" transform="translate(-43.656 -389.113)" fill="#ba68c8"/>
      <path id="freepik--line--inject-253-2" data-name="freepik--line--inject-253" d="M541.226,390.453a39.212,39.212,0,0,0-21.27,7.557,33.129,33.129,0,0,0-10.48,15.239c-3.821,10.461-3.639,21.437-8.279,31.795s-17.212,18.925-34.243,20.963a58.992,58.992,0,0,1-21.325-1.5c9.461-7.969,15.484-17.854,11.154-27.924-3.208-6.947-9.228-11.667-16.1-12.623-9.1-1.442-18.559,4.242-23.126,8.772-10.771,10.729-1.31,24.546,13.064,31.589,1.328.659,2.729,1.236,4.148,1.792a100.667,100.667,0,0,1-33.5,14.25,104.264,104.264,0,0,1-46.434.741,93.426,93.426,0,0,1-42.94-24.135c-2.784-2.574-5.6-5.107-8.552-7.6-1.128-.947-5.677-.741-4.658.844,8.133,12.726,23.089,24.711,41.448,31.774,15.539,5.91,33.934,7.063,51.328,4.654a118.417,118.417,0,0,0,45.306-15.712c1.437-.885,2.838-1.833,4.221-2.8a71.812,71.812,0,0,0,41.648-1.5c16.266-5.766,24.618-16.083,27.911-27.635,3.166-11.141,2.566-22.94,9.552-33.5,4.167-6.342,11.681-11.388,22.507-12.253a33.906,33.906,0,0,1,23.926,6.487,19.127,19.127,0,0,1,6.3,8.69c.127.371,1.492.844,1.492.226C574.123,397.5,557.747,389.217,541.226,390.453ZM424.232,452.231c-4.185-5.066-6.041-11.264-1.819-16.577a23.35,23.35,0,0,1,8.661-6.178,14.9,14.9,0,0,1,5.459-1.647,10.9,10.9,0,0,1,5.549,1.73c6.35,3.748,9.1,9.637,8.843,15.115-.291,6.178-4.349,11.923-9.971,16.845-.437.391-.928.741-1.383,1.133a37.385,37.385,0,0,1-15.338-10.461Z" transform="translate(165.221 -390.331)" fill="#455a64"/>
    </g>
    <g id="freepik--Notebook--inject-253" transform="translate(185.043 445.383)">
      <g id="freepik--notebook--inject-253-2" data-name="freepik--notebook--inject-253">
        <path id="Path_4679" data-name="Path 4679" d="M354.3,252.45,111.254,397.36l-5,8.9v7.166a10.476,10.476,0,0,0,5,8.9L431.613,631.7a16,16,0,0,0,16.685,0l237.718-155.33v-7.166Z" transform="translate(-106.25 -220.634)" fill="#263238"/>
        <path id="Path_4680" data-name="Path 4680" d="M439.963,630.477a15.28,15.28,0,0,1-8.351-2.348L111.252,418.743a10.415,10.415,0,0,1,0-17.792L343.6,249.06,686.014,472.8,448.3,628.129a15.263,15.263,0,0,1-8.333,2.347Z" transform="translate(-106.248 -224.225)" fill="#ba68c8"/>
        <path id="Path_4681" data-name="Path 4681" d="M341.269,238.85l-229.8,150.162-2.365,3.727v27.924h0a4.533,4.533,0,0,0,2.365,3.727L431.916,633.776a11.215,11.215,0,0,0,11.408,0L673.146,483.614v-27.9Z" transform="translate(-103.914 -235.04)" fill="#ebebeb"/>
        <path id="Path_4682" data-name="Path 4682" d="M673.164,455.711l-2.875,1.874-37.354,24.443-6.951,4.551L443.343,605.873a11.311,11.311,0,0,1-11.408,0L111.447,396.466c-3.13-2.059-3.13-5.416,0-7.475l3.057-2.059L341.269,238.85,670.307,453.837l.691.474Z" transform="translate(-103.914 -235.04)" fill="#f0f0f0"/>
        <path id="Path_4683" data-name="Path 4683" d="M437.611,528.258v27.924a10.278,10.278,0,0,1-5.677-1.565L111.447,345.21a4.517,4.517,0,0,1-2.347-3.727v-27.9a4.622,4.622,0,0,0,2.347,3.727L431.934,526.714a10.257,10.257,0,0,0,5.677,1.544Z" transform="translate(-103.914 -155.882)" fill="#e0e0e0"/>
        <path id="Path_4684" data-name="Path 4684" d="M671.354,453.943l-41.394,27.038-6.477,4.119L441.533,604a11.311,11.311,0,0,1-11.408,0L143.135,416.588c-2.584-1.606-4.985-3.192-7.278-4.716-11.681-8.052-18.7-15.239-23.217-22.92l-.546-.947a5.326,5.326,0,0,1-.728-1.936,5.821,5.821,0,0,1,4.021-6.569,99.468,99.468,0,0,0,21.634-10.193l.291-.185L339.459,237Z" transform="translate(-102.105 -237)" fill="#fff"/>
        <path id="Path_4685" data-name="Path 4685" d="M396.549,341.507c-2.929,1.936-2.929,5.066,0,7a10.512,10.512,0,0,0,10.662,0c2.948-1.936,2.948-5.066,0-7A10.512,10.512,0,0,0,396.549,341.507Z" transform="translate(129.851 -127.838)" opacity="0.1"/>
        <path id="Path_4686" data-name="Path 4686" d="M428.951,330.672c-4.057-2.656-9.1-2.245-14.338,1.133-8.024,5.272-14.993,17.03-18.013,29.344a9.289,9.289,0,0,0,3.93.536c2.784-10.976,8.952-21.313,16.066-26.009a12.44,12.44,0,0,1,6.532-2.265,7.076,7.076,0,0,1,3.857,1.133c3.421,2.245,5.459,7.7,5.459,14.95a33.737,33.737,0,0,1-.182,3.583l3.73,2.43a44.942,44.942,0,0,0,.4-6.013C436.338,340.6,433.718,333.74,428.951,330.672Z" transform="translate(131.693 -139.613)" fill="#263238"/>
        <path id="Path_4687" data-name="Path 4687" d="M418.393,343a7.823,7.823,0,0,1-.182,1.03l-.691-.474Z" transform="translate(148.837 -124.718)" fill="#263238"/>
        <path id="Path_4688" data-name="Path 4688" d="M378.91,331.317c-2.929,1.936-2.929,5.066,0,6.981a10.481,10.481,0,0,0,10.644,0c2.966-1.915,2.966-5.045,0-6.981a10.48,10.48,0,0,0-10.644,0Z" transform="translate(115.395 -138.631)" opacity="0.1"/>
        <path id="Path_4689" data-name="Path 4689" d="M411.319,320.482c-4.076-2.656-9.1-2.245-14.356,1.133-8.024,5.272-14.993,17.03-18.013,29.344a9.63,9.63,0,0,0,3.93.535c2.784-10.976,8.952-21.334,16.066-26.009a12.307,12.307,0,0,1,6.532-2.265,7.075,7.075,0,0,1,3.857,1.133c3.421,2.224,5.458,7.7,5.458,14.93a33.737,33.737,0,0,1-.182,3.583l3.73,2.451a45.25,45.25,0,0,0,.4-6.034C418.688,330.407,416,323.55,411.319,320.482Z" transform="translate(117.228 -150.407)" fill="#263238"/>
        <path id="Path_4690" data-name="Path 4690" d="M361.25,321.127c-2.929,1.915-2.929,5.045,0,6.981a10.512,10.512,0,0,0,10.662,0c2.948-1.936,2.948-5.066,0-6.981A10.512,10.512,0,0,0,361.25,321.127Z" transform="translate(100.922 -149.425)" opacity="0.1"/>
        <path id="Path_4691" data-name="Path 4691" d="M393.659,310.278c-4.057-2.656-9.1-2.224-14.338,1.133-8.042,5.292-14.993,17.03-18.031,29.365a10.049,10.049,0,0,0,3.93.535c2.8-10.976,8.97-21.334,16.084-26.008a12.3,12.3,0,0,1,6.532-2.286,6.916,6.916,0,0,1,3.857,1.153c3.421,2.224,5.458,7.681,5.458,14.93a33.753,33.753,0,0,1-.182,3.583l3.748,2.451a48.836,48.836,0,0,0,.4-6.034C401.046,320.224,398.353,313.346,393.659,310.278Z" transform="translate(102.756 -161.208)" fill="#263238"/>
        <path id="Path_4692" data-name="Path 4692" d="M343.6,310.937c-2.929,1.915-2.929,5.045,0,6.981a10.512,10.512,0,0,0,10.662,0c2.948-1.936,2.948-5.066,0-6.981A10.513,10.513,0,0,0,343.6,310.937Z" transform="translate(86.458 -160.219)" opacity="0.1"/>
        <path id="Path_4693" data-name="Path 4693" d="M376.009,300.087c-4.057-2.656-9.1-2.224-14.338,1.153-8.042,5.272-14.993,17.03-18.031,29.345a10.048,10.048,0,0,0,3.93.535c2.8-10.976,8.97-21.334,16.084-26.009a12.256,12.256,0,0,1,6.532-2.265,6.962,6.962,0,0,1,3.839,1.133c3.439,2.224,5.458,7.681,5.458,14.93a33.721,33.721,0,0,1-.182,3.583l3.748,2.451a48.846,48.846,0,0,0,.4-6.034C383.4,309.972,380.685,303.176,376.009,300.087Z" transform="translate(88.292 -172.001)" fill="#263238"/>
        <path id="Path_4694" data-name="Path 4694" d="M325.99,300.737c-2.929,1.936-2.929,5.066,0,7a10.48,10.48,0,0,0,10.644,0c2.966-1.936,2.966-5.066,0-7A10.607,10.607,0,0,0,325.99,300.737Z" transform="translate(72.027 -171.003)" opacity="0.1"/>
        <path id="Path_4695" data-name="Path 4695" d="M358.359,289.888c-4.058-2.656-9.1-2.224-14.338,1.133-8.042,5.292-14.993,17.03-18.031,29.365a10.05,10.05,0,0,0,3.93.535c2.8-10.976,8.952-21.334,16.084-26.008a12.3,12.3,0,0,1,6.532-2.286,6.819,6.819,0,0,1,3.839,1.153c3.439,2.224,5.458,7.681,5.458,14.93a33.753,33.753,0,0,1-.182,3.583l3.748,2.451a48.713,48.713,0,0,0,.382-6.034C365.728,299.855,363.053,292.977,358.359,289.888Z" transform="translate(73.828 -182.807)" fill="#263238"/>
        <path id="Path_4696" data-name="Path 4696" d="M308.29,290.547c-2.929,1.936-2.929,5.066,0,7a10.512,10.512,0,0,0,10.662,0c2.948-1.936,2.948-5.066,0-7A10.512,10.512,0,0,0,308.29,290.547Z" transform="translate(57.521 -181.818)" opacity="0.1"/>
        <path id="Path_4697" data-name="Path 4697" d="M340.691,279.712c-4.057-2.656-9.1-2.245-14.338,1.133-8.024,5.292-14.993,17.03-18.013,29.344a9.6,9.6,0,0,0,3.912.556c2.8-10.976,8.97-21.334,16.084-26.029a12.44,12.44,0,0,1,6.532-2.265,7.075,7.075,0,0,1,3.857,1.133c3.421,2.245,5.458,7.7,5.458,14.95a33.754,33.754,0,0,1-.182,3.583l3.639,2.45a45.477,45.477,0,0,0,.4-6.034C348.078,289.637,345.385,282.78,340.691,279.712Z" transform="translate(59.363 -193.593)" fill="#263238"/>
        <path id="Path_4698" data-name="Path 4698" d="M290.633,280.357c-2.911,1.936-2.911,5.066,0,7a10.512,10.512,0,0,0,10.662,0c2.948-1.936,2.948-5.066,0-7A10.512,10.512,0,0,0,290.633,280.357Z" transform="translate(43.063 -192.612)" opacity="0.1"/>
        <path id="Path_4699" data-name="Path 4699" d="M323.041,269.522c-4.058-2.656-9.1-2.245-14.338,1.133-8.024,5.272-14.993,17.03-18.013,29.344a9.209,9.209,0,0,0,3.912.535c2.8-10.976,8.97-21.313,16.084-26.008a12.49,12.49,0,0,1,6.532-2.265,7.075,7.075,0,0,1,3.857,1.133c3.421,2.245,5.458,7.7,5.458,14.95a33.753,33.753,0,0,1-.182,3.583l3.73,2.451a45.487,45.487,0,0,0,.4-6.034C330.428,279.447,327.735,272.59,323.041,269.522Z" transform="translate(44.899 -204.387)" fill="#263238"/>
        <path id="Path_4700" data-name="Path 4700" d="M272.99,270.167c-2.929,1.936-2.929,5.066,0,7a10.512,10.512,0,0,0,10.662,0c2.948-1.936,2.948-5.066,0-7A10.512,10.512,0,0,0,272.99,270.167Z" transform="translate(28.593 -203.406)" opacity="0.1"/>
        <path id="Path_4701" data-name="Path 4701" d="M305.4,259.332c-4.057-2.656-9.1-2.245-14.338,1.133-8.042,5.272-14.993,17.03-18.031,29.345a9.339,9.339,0,0,0,3.93.535c2.8-10.976,8.952-21.313,16.084-26.008a12.438,12.438,0,0,1,6.532-2.265,7.011,7.011,0,0,1,3.839,1.133c3.439,2.245,5.458,7.7,5.458,14.95a33.751,33.751,0,0,1-.182,3.583l3.748,2.451a48.847,48.847,0,0,0,.4-6.034C312.786,269.257,310.093,262.4,305.4,259.332Z" transform="translate(30.427 -215.181)" fill="#263238"/>
        <path id="Path_4702" data-name="Path 4702" d="M255.34,259.977c-2.929,1.915-2.929,5.066,0,6.981a10.512,10.512,0,0,0,10.662,0c2.948-1.915,2.948-5.066,0-6.981A10.512,10.512,0,0,0,255.34,259.977Z" transform="translate(14.129 -214.199)" opacity="0.1"/>
        <path id="Path_4703" data-name="Path 4703" d="M287.749,249.142c-4.057-2.656-9.1-2.245-14.338,1.133-8.042,5.272-14.993,17.03-18.031,29.344a9.726,9.726,0,0,0,3.93.535c2.8-10.976,8.97-21.334,16.084-26.009a12.257,12.257,0,0,1,6.532-2.265,6.962,6.962,0,0,1,3.839,1.133c3.439,2.224,5.459,7.7,5.459,14.95a33.366,33.366,0,0,1-.182,3.563l3.748,2.451a48.433,48.433,0,0,0,.4-6.013C295.136,259.067,292.443,252.21,287.749,249.142Z" transform="translate(15.962 -225.975)" fill="#263238"/>
        <path id="Path_4704" data-name="Path 4704" d="M237.69,249.747c-2.929,1.936-2.929,5.066,0,6.981a10.48,10.48,0,0,0,10.644,0c2.966-1.915,2.966-5.045,0-6.981A10.48,10.48,0,0,0,237.69,249.747Z" transform="translate(-0.335 -225.036)" opacity="0.1"/>
        <path id="Path_4705" data-name="Path 4705" d="M270.1,238.952c-4.076-2.656-9.1-2.245-14.338,1.133-8.042,5.272-14.993,17.03-18.031,29.345a9.727,9.727,0,0,0,3.93.535c2.784-10.976,8.952-21.334,16.066-26.009a12.321,12.321,0,0,1,6.55-2.265,7.061,7.061,0,0,1,3.839,1.133c3.421,2.245,5.458,7.7,5.458,14.95a33.368,33.368,0,0,1-.182,3.563l3.73,2.451a45.176,45.176,0,0,0,.4-6.013C277.468,248.877,274.775,242.02,270.1,238.952Z" transform="translate(1.498 -236.769)" fill="#263238"/>
        <path id="Path_4706" data-name="Path 4706" d="M300.1,481.571a7.88,7.88,0,0,1-4.294-1.236l-19.487-12.623a4.139,4.139,0,0,1-2.129-3.46,3.384,3.384,0,0,1,1.656-2.883L460.18,340.862a7.642,7.642,0,0,1,7.715.309l19.487,12.747a4.133,4.133,0,0,1,2.147,3.46,3.4,3.4,0,0,1-1.674,2.883L303.52,480.665A6.2,6.2,0,0,1,300.1,481.571ZM463.582,342.2a4.416,4.416,0,0,0-2.4.618L276.846,463.223c-.255.165-.673.494-.673.927s.309.968,1.146,1.524L296.806,478.4a5.859,5.859,0,0,0,5.732.309L486.872,358.3c.237-.165.655-.494.655-.927s-.291-.968-1.146-1.524l-19.487-12.726a6.33,6.33,0,0,0-3.312-.927Z" transform="translate(31.377 -127.934)" fill="#e0e0e0"/>
        <path id="Path_4793" data-name="Path 4793" d="M0,14.756,228.014,2.187,227.9,4.374-.113,16.944Z" transform="translate(312.286 334.566) rotate(-29.887)" fill="#e0e0e0"/>
        <path id="Path_4707" data-name="Path 4707" d="M382.775,547.075a8.037,8.037,0,0,1-4.294-1.215L124.9,380.151a4.133,4.133,0,0,1-2.147-3.46,3.4,3.4,0,0,1,1.674-2.883l184.37-120.343a7.548,7.548,0,0,1,7.715.329L570.093,419.483a4.134,4.134,0,0,1,2.147,3.46,3.4,3.4,0,0,1-1.674,2.883L386.2,546.169a6.2,6.2,0,0,1-3.421.906ZM312.16,254.659a4.529,4.529,0,0,0-2.42.618L125.406,375.765c-.237.165-.655.494-.655.927s.291.968,1.146,1.524L379.482,543.821a5.763,5.763,0,0,0,5.713.309L569.547,423.725c.237-.165.655-.494.655-.927s-.309-.947-1.146-1.5L315.472,255.668a6.33,6.33,0,0,0-3.311-.927Z" transform="translate(-92.728 -220.517)" fill="#e0e0e0"/>
        <path id="Path_4794" data-name="Path 4794" d="M0,14.734,227.281,2.179l-.113,2.179L-.113,16.913Z" transform="translate(268.88 304.417) rotate(-30)" fill="#e0e0e0"/>
        <path id="Path_4795" data-name="Path 4795" d="M0,14.734,227.281,2.179l-.113,2.179L-.113,16.913Z" transform="translate(255.835 295.87) rotate(-30)" fill="#e0e0e0"/>
        <path id="Path_4796" data-name="Path 4796" d="M0,14.734,227.281,2.179l-.113,2.179L-.113,16.913Z" transform="translate(242.765 287.316) rotate(-30)" fill="#e0e0e0"/>
        <path id="Path_4797" data-name="Path 4797" d="M0,14.734,227.281,2.179l-.113,2.179L-.113,16.913Z" transform="translate(229.72 278.81) rotate(-30)" fill="#e0e0e0"/>
        <path id="Path_4798" data-name="Path 4798" d="M0,14.732,227.277,2.179l-.113,2.179L-.113,16.911Z" transform="matrix(0.866, -0.5, 0.5, 0.866, 216.62, 270.338)" fill="#e0e0e0"/>
        <path id="Path_4799" data-name="Path 4799" d="M0,14.734,227.281,2.179l-.113,2.179L-.113,16.913Z" transform="translate(203.599 261.758) rotate(-30)" fill="#e0e0e0"/>
        <path id="Path_4800" data-name="Path 4800" d="M0,14.734,227.281,2.179l-.113,2.179L-.113,16.913Z" transform="translate(190.527 253.255) rotate(-30)" fill="#e0e0e0"/>
        <path id="Path_4801" data-name="Path 4801" d="M0,14.734,227.281,2.179l-.113,2.179L-.113,16.913Z" transform="translate(177.485 244.698) rotate(-30)" fill="#e0e0e0"/>
        <path id="Path_4802" data-name="Path 4802" d="M0,14.734,227.281,2.179l-.113,2.179L-.113,16.913Z" transform="translate(164.44 236.172) rotate(-30)" fill="#e0e0e0"/>
        <path id="Path_4803" data-name="Path 4803" d="M0,14.734,227.281,2.179l-.113,2.179L-.113,16.913Z" transform="translate(151.352 227.659) rotate(-30)" fill="#e0e0e0"/>
        <path id="Path_4804" data-name="Path 4804" d="M0,14.732,227.277,2.179l-.113,2.179L-.113,16.911Z" transform="matrix(0.866, -0.5, 0.5, 0.866, 138.286, 219.139)" fill="#e0e0e0"/>
        <path id="Path_4805" data-name="Path 4805" d="M0,14.734,227.281,2.179l-.113,2.179L-.113,16.913Z" transform="translate(125.265 210.576) rotate(-30)" fill="#e0e0e0"/>
        <path id="Path_4806" data-name="Path 4806" d="M0,14.734,227.281,2.179l-.113,2.179L-.113,16.913Z" transform="translate(112.22 202.029) rotate(-30)" fill="#e0e0e0"/>
        <path id="Path_4807" data-name="Path 4807" d="M0,14.734,227.281,2.179l-.113,2.179L-.113,16.913Z" transform="translate(99.132 193.537) rotate(-30)" fill="#e0e0e0"/>
        <path id="Path_4808" data-name="Path 4808" d="M0,14.734,227.281,2.179l-.113,2.179L-.113,16.913Z" transform="translate(86.09 184.98) rotate(-30)" fill="#e0e0e0"/>
        <path id="Path_4809" data-name="Path 4809" d="M0,14.734,227.281,2.179l-.113,2.179L-.113,16.913Z" transform="translate(73.045 176.454) rotate(-30)" fill="#e0e0e0"/>
        <path id="Path_4810" data-name="Path 4810" d="M0,14.734,227.281,2.179l-.113,2.179L-.113,16.913Z" transform="translate(59.984 167.917) rotate(-30)" fill="#e0e0e0"/>
        <path id="Path_4811" data-name="Path 4811" d="M0,14.732,227.277,2.179l-.113,2.179L-.113,16.911Z" transform="matrix(0.866, -0.5, 0.5, 0.866, 46.892, 159.421)" fill="#e0e0e0"/>
        <path id="Path_4812" data-name="Path 4812" d="M0,14.734,227.281,2.179l-.113,2.179L-.113,16.913Z" transform="translate(33.87 150.858) rotate(-30)" fill="#e0e0e0"/>
        <path id="Path_4708" data-name="Path 4708" d="M482.919,427.632a.948.948,0,0,1-.51-.165L221.62,257.083a1.078,1.078,0,0,1-.479-.682,1.215,1.215,0,0,1,.115-.862,1.01,1.01,0,0,1,.6-.523.883.883,0,0,1,.749.111l260.789,170.4a1.1,1.1,0,0,1,.462.676,1.242,1.242,0,0,1-.1.848A.957.957,0,0,1,482.919,427.632Z" transform="translate(-12.123 -217.957)" fill="#ba68c8"/>
      </g>
    </g>
    <g id="freepik--light-bulb--inject-253" transform="translate(398.455 40.276)">
      <g id="freepik--Bulb--inject-253">
        <g id="freepik--bulb--inject-253-2" data-name="freepik--bulb--inject-253" transform="translate(60.256 66.39)">
          <g id="freepik--Socket--inject-253" transform="translate(55.905 258.033)">
            <path id="Path_4709" data-name="Path 4709" d="M297.893,238.868c-7.042-5.622-6.4-13.509,1.419-17.586a26.869,26.869,0,0,1,26.947,2.8c7.041,5.642,6.386,13.509-1.437,17.607a26.886,26.886,0,0,1-26.929-2.821Z" transform="translate(-282.779 -175.502)" fill="#263238"/>
            <path id="Path_4710" data-name="Path 4710" d="M329.383,232.715l-3.075-.329a10.569,10.569,0,0,0-3.639-4.839,21.825,21.825,0,0,0-21.834-2.286,10.025,10.025,0,0,0-4.331,4.016l-3.075-.309,3.02,6.713h0a11.142,11.142,0,0,0,3.2,3.892,21.92,21.92,0,0,0,21.834,2.286,10.617,10.617,0,0,0,3.766-3.171h0Z" transform="translate(-282.428 -170.791)" fill="#263238"/>
            <path id="Path_4711" data-name="Path 4711" d="M295.647,240.69c-10.408-8.361-9.425-20.016,2.165-26.009s29.421-4.119,39.829,4.263,9.407,20.016-2.183,26.009S306.036,249.051,295.647,240.69Z" transform="translate(-286.519 -183.667)" fill="#455a64"/>
            <path id="Path_4712" data-name="Path 4712" d="M295.539,239.166c-10.771-8.67-9.753-20.737,2.274-26.976s30.513-4.242,41.285,4.427,9.771,20.757-2.256,26.976S306.328,247.856,295.539,239.166Z" transform="translate(-286.811 -186.447)" fill="#37474f"/>
            <path id="Path_4713" data-name="Path 4713" d="M295.555,237.269c-11.044-8.9-10.007-21.293,2.329-27.677s31.277-4.345,42.34,4.551,10.007,21.272-2.329,27.656S306.617,246.145,295.555,237.269Z" transform="translate(-286.955 -189.286)" fill="#455a64"/>
            <path id="Path_4714" data-name="Path 4714" d="M295.531,235.361c-11.317-9.122-10.262-21.808,2.384-28.356s32.06-4.469,43.377,4.654,10.262,21.808-2.365,28.356S306.94,244.462,295.531,235.361Z" transform="translate(-287.131 -192.134)" fill="#37474f"/>
            <path id="Path_4715" data-name="Path 4715" d="M295.615,233.444c-11.59-9.349-10.5-22.343,2.438-29.036s32.751-4.572,44.432,4.757,10.5,22.343-2.438,29.036S307.169,242.711,295.615,233.444Z" transform="translate(-287.215 -194.975)" fill="#455a64"/>
            <path id="Path_4716" data-name="Path 4716" d="M295.6,231.531c-11.863-9.555-10.753-22.858,2.493-29.715s33.606-4.675,45.488,4.88,10.753,22.837-2.493,29.715S307.465,241.086,295.6,231.531Z" transform="translate(-287.383 -197.819)" fill="#37474f"/>
          </g>
          <path id="Path_4717" data-name="Path 4717" d="M355.268,214.093c.455-5.622-2.365-11.594-8.57-16.577-12.427-10.008-33.734-12.356-47.58-5.107-6.932,3.583-10.7,8.855-11.154,14.415-.182,2.183-.91,10.749-1.092,12.932-.473,5.642,2.347,11.614,8.57,16.6,12.427,10.008,33.734,12.356,47.6,5.107,6.914-3.583,10.68-8.855,11.135-14.415C354.358,224.863,355.086,216.3,355.268,214.093Z" transform="translate(-231.939 50.017)" fill="#ba68c8"/>
          <path id="Path_4718" data-name="Path 4718" d="M368.106,73.04c-55.9-6.017-105.53,40.41-110.826,103.684-7.624,90.917,57.405,113.136,54.33,149.77-.473,5.848,2.438,12.047,8.879,17.236,12.9,10.3,35.007,12.747,49.381,5.292,7.278-3.727,11.081-9.2,11.572-15.033h0c3.075-36.655,70.633-44.645,78.239-135.561,5.3-63.242-35.7-119.373-91.576-125.389Z" transform="translate(-256.658 -72.515)" fill="#ba68c8"/>
          <path id="Path_4719" data-name="Path 4719" d="M368.106,73.04c-55.9-6.017-105.53,40.41-110.826,103.684-7.624,90.917,57.405,113.136,54.33,149.77-.473,5.848,2.438,12.047,8.879,17.236,12.9,10.3,35.007,12.747,49.381,5.292,7.278-3.727,11.081-9.2,11.572-15.033h0c3.075-36.655,70.633-44.645,78.239-135.561,5.3-63.242-35.7-119.373-91.576-125.389Z" transform="translate(-256.658 -72.515)" fill="#fff" opacity="0.9" style="mix-blend-mode: screen;isolation: isolate"/>
          <path id="Path_4720" data-name="Path 4720" d="M297.465,218.986c-10.79-8.67-9.771-20.737,2.256-26.976s30.513-4.242,41.284,4.427,9.771,20.757-2.256,27S308.2,227.676,297.465,218.986Z" transform="translate(-229.34 50.211)" fill="#ba68c8"/>
          <path id="Path_4721" data-name="Path 4721" d="M297.465,218.986c-10.79-8.67-9.771-20.737,2.256-26.976s30.513-4.242,41.284,4.427,9.771,20.757-2.256,27S308.2,227.676,297.465,218.986Z" transform="translate(-229.34 50.211)" fill="#fff" opacity="0.55"/>
          <path id="Path_4722" data-name="Path 4722" d="M342.736,210.184a22.157,22.157,0,0,1-5.295,3.748c-12.027,6.178-30.513,4.242-41.284-4.427a23.928,23.928,0,0,1-4.567-4.8,21.825,21.825,0,0,1,5.277-3.748c12.027-6.178,30.531-4.263,41.3,4.427A23.366,23.366,0,0,1,342.736,210.184Z" transform="translate(-228.031 59.713)" fill="#ba68c8" opacity="0.25"/>
          <path id="Path_4723" data-name="Path 4723" d="M342.736,210.184a22.157,22.157,0,0,1-5.295,3.748c-12.027,6.178-30.513,4.242-41.284-4.427a23.928,23.928,0,0,1-4.567-4.8,21.825,21.825,0,0,1,5.277-3.748c12.027-6.178,30.531-4.263,41.3,4.427A23.366,23.366,0,0,1,342.736,210.184Z" transform="translate(-228.031 59.713)" fill="#ba68c8"/>
          <path id="Path_4724" data-name="Path 4724" d="M342.736,210.184a22.157,22.157,0,0,1-5.295,3.748c-12.027,6.178-30.513,4.242-41.284-4.427a23.928,23.928,0,0,1-4.567-4.8,21.825,21.825,0,0,1,5.277-3.748c12.027-6.178,30.531-4.263,41.3,4.427A23.366,23.366,0,0,1,342.736,210.184Z" transform="translate(-228.031 59.713)" fill="#fff" opacity="0.35"/>
          <path id="Path_4725" data-name="Path 4725" d="M375.483,115.476c-5.458-11.552-14.556-21.5-26.892-17.01a14.962,14.962,0,0,0-3.748,2.059,17.874,17.874,0,0,0-6.223,15.074c.509,11.244,9.352,19.151,14.083,28.356a107.667,107.667,0,0,1,10.589,32.639,67.74,67.74,0,0,0,2.365,12.232c1.649,4.235,5.867,6.363,9.753,4.922,4.13-1.936,6.641-7.29,7.551-11.594C388.474,156.538,385.363,136.666,375.483,115.476Zm-5.2,85.212c-3.7-.554-7.265,1.744-8.734,5.622a14.2,14.2,0,0,0,.2,10.3c1.629,3.59,5.505,5.031,8.7,3.233a12.057,12.057,0,0,0,5.64-9.39C376.392,206.31,374.373,201.636,370.279,200.688Z" transform="translate(-189.526 -46.192)" fill="#fff" opacity="0.35"/>
          <path id="Path_4726" data-name="Path 4726" d="M335.518,280.418l-1.165-.124c3.4-40.753,7.642-66.082,14.156-84.656a87.068,87.068,0,0,1,6.132-13.776,63.886,63.886,0,0,1-21.343-17.5,59.763,59.763,0,0,1-23.854,12.664,87.5,87.5,0,0,1,3.73,14.827c3.33,19.625,3.275,45.407-.127,86.16l-1.183-.124c3.4-40.629,3.457-66.288.164-85.789a86.7,86.7,0,0,0-3.785-14.827,26.371,26.371,0,0,1-3.439.494c-11.954.968-18.486-3.6-20.615-8.237a9.627,9.627,0,0,1,1.037-9.823,7.267,7.267,0,0,1,8.443-2.7c5.04,1.421,11.044,7.125,15.429,18.76a58.121,58.121,0,0,0,23.563-12.356,31.316,31.316,0,0,1-2.984-4.9c-4.713-10.049-3.639-18.225-1.183-22.508a7.878,7.878,0,0,1,7.657-4.238,8.354,8.354,0,0,1,6.809,5.8c1.819,4.736,1.419,12.973-4.895,21.849a28.664,28.664,0,0,1-3.748,4.119,62.052,62.052,0,0,0,21.088,17.195c6.241-10.482,13.082-14.806,18.2-15.136a7.616,7.616,0,0,1,7.751,4.427,9.676,9.676,0,0,1-.619,9.884c-2.857,4.118-10.044,7.166-21.616,3.686a31.87,31.87,0,0,1-3.293-1.215,81.156,81.156,0,0,0-6.168,13.756C343.2,214.665,338.975,239.788,335.518,280.418Zm20.942-99.174a29.319,29.319,0,0,0,2.929,1.05c11.026,3.315,17.758.515,20.378-3.233a8.074,8.074,0,0,0,.491-8.4,6.462,6.462,0,0,0-6.623-3.748c-4.585.391-11.1,4.51-17.121,14.333Zm-64.52-23.208a6.01,6.01,0,0,0-5.75,2.533,8.072,8.072,0,0,0-.91,8.361c1.947,4.222,8.115,8.422,19.487,7.516a27.113,27.113,0,0,0,3.057-.432c-4.276-11.017-9.989-16.474-14.556-17.71a8.782,8.782,0,0,0-1.328-.268Zm44.05-25.02a6.674,6.674,0,0,0-6.568,3.665c-2.929,4.983-2.438,13.282,1.256,21.149a29.445,29.445,0,0,0,2.838,4.7,27.2,27.2,0,0,0,3.639-4.119c4.931-6.94,6.787-14.971,4.731-20.49a7,7,0,0,0-5.9-4.9Z" transform="translate(-234.823 -9.8)" fill="#455a64"/>
        </g>
        <path id="Path_4727" data-name="Path 4727" d="M318.862,81.552a2.946,2.946,0,0,1-2.1-1.186,3.761,3.761,0,0,1-.738-2.521L318.134,43.5a3.216,3.216,0,0,1,3.275-3.212,3.356,3.356,0,0,1,2.838,3.707L322.137,78.34A3.227,3.227,0,0,1,318.862,81.552Z" transform="translate(-147.759 -40.276)" fill="#f0f0f0"/>
        <path id="Path_4728" data-name="Path 4728" d="M353.468,90.792a2.919,2.919,0,0,1-1.51-.6,3.491,3.491,0,0,1-1.293-2.206,3.809,3.809,0,0,1,.475-2.592l17.012-28.541a3.026,3.026,0,0,1,2.826-1.9,3.087,3.087,0,0,1,2.712,2.1,3.817,3.817,0,0,1-.534,3.668L356.142,89.269a3,3,0,0,1-2.675,1.524Z" transform="translate(-119.409 -24.722)" fill="#f0f0f0"/>
        <path id="Path_4729" data-name="Path 4729" d="M377.408,111.331a3.214,3.214,0,0,1-2.8-2.792,3.6,3.6,0,0,1,1.674-3.777l27.293-15.094a2.927,2.927,0,0,1,3.789,1.729,3.724,3.724,0,0,1-1.115,4.449l-27.292,15.074a2.707,2.707,0,0,1-1.547.412Z" transform="translate(-99.79 11.822)" fill="#f0f0f0"/>
        <path id="Path_4730" data-name="Path 4730" d="M414.649,142.027l-30.331-2.409a3.062,3.062,0,0,1-2.607-1.915,3.85,3.85,0,0,1,.222-3.508,2.935,2.935,0,0,1,2.821-1.475l30.349,2.389a3.355,3.355,0,0,1,2.838,3.707,3.216,3.216,0,0,1-3.275,3.212Z" transform="translate(-94.183 57.628)" fill="#f0f0f0"/>
        <path id="Path_4731" data-name="Path 4731" d="M397.449,193.46a2.881,2.881,0,0,1-1.492-.577L370.738,173.63a3.755,3.755,0,0,1-.828-4.808,2.848,2.848,0,0,1,4.249-.937l25.218,19.254a3.712,3.712,0,0,1,1.185,4A3.077,3.077,0,0,1,397.449,193.46Z" transform="translate(-104.02 94.269)" fill="#f0f0f0"/>
        <path id="Path_4732" data-name="Path 4732" d="M234.967,180.418a3.214,3.214,0,0,1-2.8-2.792,3.6,3.6,0,0,1,1.674-3.777l27.293-15.094a2.759,2.759,0,0,1,3.244-.012,3.625,3.625,0,0,1,1.427,3.3,3.416,3.416,0,0,1-2,2.894l-27.293,15.094A2.8,2.8,0,0,1,234.967,180.418Z" transform="translate(-216.52 84.66)" fill="#f0f0f0"/>
        <path id="Path_4733" data-name="Path 4733" d="M256.818,130.527l-30.349-2.409a3.062,3.062,0,0,1-2.607-1.915,3.85,3.85,0,0,1,.222-3.508,2.935,2.935,0,0,1,2.821-1.475l30.349,2.389a3.356,3.356,0,0,1,2.838,3.707,3.216,3.216,0,0,1-3.275,3.212Z" transform="translate(-223.541 45.446)" fill="#f0f0f0"/>
        <path id="Path_4734" data-name="Path 4734" d="M266.509,104.59a2.83,2.83,0,0,1-1.492-.577L239.8,84.76a3.755,3.755,0,0,1-.828-4.808,2.848,2.848,0,0,1,4.249-.937l25.218,19.254a3.713,3.713,0,0,1,1.185,4A3.077,3.077,0,0,1,266.509,104.59Z" transform="translate(-211.326 0.132)" fill="#f0f0f0"/>
        <path id="Path_4735" data-name="Path 4735" d="M288.837,86.462a3.1,3.1,0,0,1-2.547-1.936L272.953,53.638a3.653,3.653,0,0,1,1.528-4.288,2.866,2.866,0,0,1,3.931,1.261L291.749,81.5a3.878,3.878,0,0,1,.141,2.65,3.353,3.353,0,0,1-1.56,1.983A2.64,2.64,0,0,1,288.837,86.462Z" transform="translate(-183.2 -31.039)" fill="#f0f0f0"/>
      </g>
    </g>
    <g id="freepik--Character--inject-253" transform="translate(124.545 71.331)">
      <g id="freepik--character--inject-253-2" data-name="freepik--character--inject-253">
        <g id="freepik--Bottom--inject-253" transform="translate(0 237.584)">
          <path id="Path_4736" data-name="Path 4736" d="M128.163,443.242c1.328-6.4-4.276-10.44-6.932-14.127-4.094-5.684-5.458-18.925-5.313-25.679,0-8.443-.855-14.415,3.785-22.075,5.459-9.04,13.137-19.6,38.719-45.469L126.98,300c-6.587,11.7-23.217,52.7-23.217,52.7l-1.092,2.533A44.339,44.339,0,0,1,92.737,366l-1.82,1.009c-3,2.306-10.644,4.778-10.517,12.87s2.911,10.07,6.15,16.68a26.465,26.465,0,0,1,3.639,14.415c.109,6.507-.127,13.756-.182,19.584,0,4.9,3.948,12.005,12.282,15.2C114.5,450.491,126.853,449.523,128.163,443.242Z" transform="translate(-66.936 -33.799)" fill="#ffbda7"/>
          <path id="Path_4737" data-name="Path 4737" d="M82.1,338.93A94.437,94.437,0,0,0,73,356.66l8.37,13.262,7.023-13.385A51.875,51.875,0,0,1,82.1,338.93Z" transform="translate(-73 7.438)" fill="#263238"/>
          <path id="Path_4738" data-name="Path 4738" d="M77.62,360.885l11.5-.906a12.249,12.249,0,0,0-1.146-8.011,15.8,15.8,0,0,0-3.33-4.469Z" transform="translate(-69.214 16.516)"/>
          <path id="Path_4739" data-name="Path 4739" d="M80.332,337.47a9.293,9.293,0,0,0-2.22,2.718,26.557,26.557,0,0,0,2.475,13.653c2.384,4.119,6.277,8.237,7.278,14.044s-1.055,18.966.964,26.976,8.861,17.195,23.763,19.357c10.644,1.544,14.665-.741,18.2-3.254,1.292-5.21,1.164-6.569-4.658-10.955S80.332,337.47,80.332,337.47Z" transform="translate(-68.887 5.892)" fill="#263238"/>
          <path id="Path_4740" data-name="Path 4740" d="M99.315,329.171c-4.785,6.425-6.5,8.9-10.917,11.779-5.331,3.5-6.423,4.9-8.97,9.39-1.074,6.96.164,9.823,5.8,18.719,3.876,6.075,5.131,10.07,5.022,18.43-.127,10.111-3.166,19.337,7.715,29.674,8.479,8.072,27.038,8.608,32.06,3.007,4.312-13.8-7.151-13.076-9.753-27.718-1.437-8.093-1.565-20.325.673-28.418a71.809,71.809,0,0,1,3.766-10.585c1.819-3.439,3.366-5.951,1.929-7.743l-2.711,3.768c-2.693.659-9.225-.927-13.537-4.86-10.371-9.431-6.75-16.145-6.75-16.145l1.092-2.533C103.719,324.517,102.026,325.526,99.315,329.171Z" transform="translate(-68.02 -6.979)" fill="#37474f"/>
          <path id="Path_4741" data-name="Path 4741" d="M193.195,170.73c2.62,19.934,11.1,44.933,15.811,92.111,4.421,44.274,6.386,67.358,3.639,89.351-.983,7.846-4.567,17.03-11.372,28.644-21.343,36.346-63.337,93.573-63.337,93.573s-9.534-.185-21.07-10.585a37.978,37.978,0,0,1-11.627-24.917s1.11-8.237,18.723-41.8a193.857,193.857,0,0,0,19.869-69.747L132.351,185.268C159.643,187.987,180.44,182.324,193.195,170.73Z" transform="translate(-46.579 -170.73)" fill="#263238"/>
          <path id="Path_4742" data-name="Path 4742" d="M116.837,440.948a37.978,37.978,0,0,1-11.627-24.917s1.11-8.237,18.723-41.8A193.857,193.857,0,0,0,143.8,304.481l-8.788-108.709c21.4-3.748,51.237-3.439,51.237-3.439.564,15.568-2.475,34.843-22.289,46.457,0,0,3.639,76.522,4.112,98.845.346,17.092-4.039,60.584-6.15,80.311-13.337,19.11-24.017,33.669-24.017,33.669S128.372,451.347,116.837,440.948Z" transform="translate(-46.604 -147.853)"/>
          <path id="Path_4743" data-name="Path 4743" d="M149.688,390.54l.127-3.439L152.8,317.21l-43.45,12.356,9.662,56.033.327,2.9s.455,14.25,19.869,15.053C149.143,403.905,149.688,390.54,149.688,390.54Z" transform="translate(-43.211 -15.569)" fill="#ffbda7"/>
          <path id="Path_4744" data-name="Path 4744" d="M118.62,395.359l15.084-6.322.473-16.227-15.338,6.548Z" transform="translate(-35.614 43.326)"/>
          <path id="Path_4745" data-name="Path 4745" d="M110.588,366.1c-.619,5.972,3.639,28.83,3.639,28.83l10.917,7.516.218-16s3.039,2.945,6.259,11.408c3.039,7.99,7.278,15.671,14.374,19.707s19.56,5.7,30.076,4.119c7.478-1.091,12.081-4.716,13.337-6.857a8.655,8.655,0,0,0,.437-3.4Z" transform="translate(-42.247 36.218)" fill="#263238"/>
          <path id="Path_4746" data-name="Path 4746" d="M148.8,351.966c2.074-.185,1.819,2.059,4.458,15.444,1.819,10.029,6.059,27.306,22.162,38.694,6.641,4.7,15.83,7.66,14.556,22.014-4.6,6.981-20.651,8.814-30.258,6.9-19.414-3.871-22.307-12.541-27.165-25.473-3.876-10.3-7.278-11.449-12.482-15.609-3.439-2.739-8.1-6.693-9.461-11.182-.255-9.843,3.039-16.268,4.2-21.231s.473-10.42,3.257-11.141l.327,2.9s2.6,7.908,16.1,8.237,14.247-6.075,14.247-6.075Z" transform="translate(-42.193 19.567)" fill="#37474f"/>
          <path id="Path_4747" data-name="Path 4747" d="M206.435,170.73s3.475,25.741-3.93,49.2c-6.441,20.387-18.814,31.877-31.823,36.655,0,0,4.33,91.534,5.458,104.281s-1.528,58.916-3.985,89.31-3.166,40.794-3.166,40.794-5.731,6.837-21.834,7.187S126,491.007,126,491.007s-10.153-35.131-10.571-62.7c-.255-15.795,2.82-23.64.164-39.311s-22.253-85.4-25.564-118.449,1.656-62.107,22.434-95.962C134.82,191.1,186.075,186.957,206.435,170.73Z" transform="translate(-59.82 -170.73)" fill="#263238"/>
          <path id="Path_4748" data-name="Path 4748" d="M116.741,175.483c-11.263,17.586-27.493,53.87-15.975,105.8q4.913,22.178,9.7,42.812c7.405,32.289,13.246,57.8,14.028,67.523a87.579,87.579,0,0,1-.71,16.474,155.071,155.071,0,0,0,0,38.611c2.02,16.639,4.949,34.1,7.06,45.942a16.805,16.805,0,0,1-1.82-.638c-2.111-11.82-4.931-28.83-6.914-45.036a157.027,157.027,0,0,1,0-39.126,85.018,85.018,0,0,0,.691-16.021c-.764-9.576-6.6-35.007-13.974-67.214-3.166-13.8-6.441-28.068-9.716-42.833C87.52,229.456,103.7,192.76,115.122,174.7A5.461,5.461,0,0,0,116.741,175.483Z" transform="translate(-54.878 -166.525)"/>
        </g>
        <g id="freepik--Top--inject-253" transform="translate(20.866)">
          <path id="Path_4749" data-name="Path 4749" d="M244.979,214.308c6.623,4.654,11.918,4.119,17.176,5.519,6.678,1.75,11.936,5.478,20.979,10.193,1.565.8,3.093,1.647,4.64,2.471a17.232,17.232,0,0,0,2.274,1.153c.728.268,1.346.535,1.328,1.647a3.44,3.44,0,0,1-.928,2.059,7.77,7.77,0,0,1-6.4,2.389,37.388,37.388,0,0,1-6.8-1.5c-1.729-.432-.91,1.647-.4,2.574,2.529,4.53,15.266,8.052,19.414,10.42,1.819,1.071,4.385,1.05,4.749,3.871a17.753,17.753,0,0,0,.364,2.821,12.7,12.7,0,0,0,1.419,2.553,6.949,6.949,0,0,1,1.146,4.119,3.79,3.79,0,0,1-2.274,3.357c-1.019.309-2.147,0-3.093.453a11.176,11.176,0,0,0-1.219.947c-1.819,1.38-4.221.659-6.423.577-1.82,0-3.639.6-5.459.618a33.373,33.373,0,0,1-6.059-.206,65.451,65.451,0,0,1-13.392-4.118,48.168,48.168,0,0,1-15.12-12.026,31.125,31.125,0,0,0-12.536-10.008c-8.17-4.119-39.683-17.813-50.8-26.873-4.039-3.295-6.059-6.837-18.923-21.808-19.1-22.219-25.091-31.445-25.091-31.445L129.75,112.21c15.884.556,22.78-.947,34.716,13.632,16.721,20.407,41.849,55.6,41.849,55.6S239.375,210.375,244.979,214.308Z" transform="translate(-47.359 4.866)" fill="#ffbda7"/>
          <path id="Path_4750" data-name="Path 4750" d="M216.8,174.233c-6.114,4.963-15.811,2.224-19.833-.453,0,0,5.313,5.622,10.444,5.622C213.054,179.381,215.22,177.157,216.8,174.233Z" transform="translate(7.728 70.085)" fill="#f0997a"/>
          <path id="Path_4751" data-name="Path 4751" d="M237.54,325.627l58.224,67.956a2.322,2.322,0,0,0,2.921.624,2.956,2.956,0,0,0,1.428-2.951l-9.68-94.726Z" transform="translate(40.975 200.11)" fill="#ffa8a7"/>
          <path id="Path_4752" data-name="Path 4752" d="M279.01,352.983a2.956,2.956,0,0,1-1.428,2.951,2.322,2.322,0,0,1-2.921-.624L263.29,342.027h0c5.277.323,10.271-2.722,12.937-7.887l.71-1.4Z" transform="translate(62.077 238.466)" fill="#455a64"/>
          <path id="Path_4753" data-name="Path 4753" d="M199.695,104.53l3.311,7.928,4.021,9.555L364.96,500.073c-2.6,10.3-9.407,18.369-17.449,23.826-12.227,8.34-27.293,10.585-35.426,5.086L154.262,151.111l-7.642-18.286C152.151,144.356,205.1,116.185,199.695,104.53Z" transform="translate(-33.534 -3.269)" fill="#455a64"/>
          <path id="Path_4754" data-name="Path 4754" d="M206.749,119.16l7.278,17.71c2.274,5.066-6.023,13.509-16.685,20.593-14.174,9.452-33.515,14.188-36.554,7.5l-5.459-13.035-1.819-4.716c3.057,6.693,22.4,2.059,36.554-7.475,10.226-6.816,18.2-14.95,16.83-20.016h0a1.426,1.426,0,0,0-.146-.556Z" transform="translate(-27.888 12.228)" fill="#ebebeb"/>
          <path id="Path_4755" data-name="Path 4755" d="M211.066,130.43c5.331,11.717-47.871,39.806-53.2,28.068l-7.424-17.689c5.331,11.717,58.515-16.474,53.184-28.088Z" transform="translate(-30.403 5.406)" fill="#ba68c8"/>
          <path id="Path_4756" data-name="Path 4756" d="M199.728,104.53l7.278,17.483c5.313,11.47-45.815,39.126-52.766,29.1a2.52,2.52,0,0,1-.382-.618l-7.278-17.668C152.184,144.356,205.132,116.185,199.728,104.53Z" transform="translate(-33.567 -3.269)" fill="#ebebeb"/>
          <path id="Path_4757" data-name="Path 4757" d="M154.262,137.817l-7.642-18.286c2.493,5.21,14.993,3.439,27.293-2.451L340.051,514.95l30.295,68.8-58.224-67.956h0Z" transform="translate(-33.534 10.025)" opacity="0.1"/>
          <path id="Path_4758" data-name="Path 4758" d="M129.651,99.276c0-.185-.218-.371-.309-.577-3.184-7.7,6.114-20.263,20.779-28.047s29.112-7.866,32.333-.206h0l31.9,76.193c2.311,4.983-5.859,13.406-16.376,20.593-14.138,9.514-33.515,14.415-36.663,7.784h0L130.087,100.45c-.146-.329-.273-.659-.4-1.009S129.669,99.338,129.651,99.276Z" transform="translate(-48.206 -45.399)" fill="#f28f8f"/>
          <path id="Path_4759" data-name="Path 4759" d="M147,68.48l41.521,100.08c-12.154,5.725-24.745,7.681-27.293,2.451h0l-31.15-74.5c-.146-.329-.273-.659-.4-1.009s0,0,0-.165-.218-.371-.309-.577C126.367,87.631,134.173,76.305,147,68.48Z" transform="translate(-48.197 -41.456)" opacity="0.1"/>
          <path id="Path_4760" data-name="Path 4760" d="M129.341,98.706c3.2,7.7,17.667,7.619,32.351-.165s23.945-20.366,20.779-28.068-17.686-7.619-32.351.185S126.157,91,129.341,98.706Z" transform="translate(-48.206 -45.405)" fill="#ffa8a7"/>
          <path id="Path_4761" data-name="Path 4761" d="M90.21,192.613s8.57-4.7,10.917-25.761c1.055-9.576-1.82-22.055-5.459-36.449L120,118.418s8.042-2.512,25.782-6.178h16.376s29.658,14.168,41.721,32.063c6.568,9.761,13.392,30.58,1.819,46.4.892,14.168,1.055,43.039,1.055,43.039s-6.8,13.962-39.5,18.183C120.341,258.1,107.2,238.638,107.2,238.638,106.422,223.5,95.159,207.213,90.21,192.613Z" transform="translate(-79.762 4.898)" fill="#ba68c8"/>
          <path id="Path_4762" data-name="Path 4762" d="M90.21,192.613s8.57-4.7,10.917-25.761c1.055-9.576-1.82-22.055-5.459-36.449L120,118.418s8.042-2.512,25.782-6.178h16.376s29.658,14.168,41.721,32.063c6.568,9.761,13.392,30.58,1.819,46.4.892,14.168,1.055,43.039,1.055,43.039s-6.8,13.962-39.5,18.183C120.341,258.1,107.2,238.638,107.2,238.638,106.422,223.5,95.159,207.213,90.21,192.613Z" transform="translate(-79.762 4.898)" fill="#fff" opacity="0.2"/>
          <path id="Path_4763" data-name="Path 4763" d="M156.42,154.1s-6.787,12.973-24.927,12.479S107.93,151.51,107.93,151.51s1.4,19.666,23.09,20.16C152.38,172.144,156.42,154.1,156.42,154.1Z" transform="translate(-65.24 46.495)" fill="#ba68c8"/>
          <g id="freepik--Head--inject-253" transform="translate(7.729)">
            <path id="Path_4764" data-name="Path 4764" d="M105.845,72.826a18.978,18.978,0,0,1,10.062-7.166c3.785-1.05,6.1-.988,9.7-2.656s6.368-4.283,9.789-5.91c7.515-3.583,16.557-1.359,23.017,4.263,2.857,2.492,5.458,5.725,9.1,6.322a30.8,30.8,0,0,0,5.331,0c5.725.354,10.912,3.935,13.81,9.534a36.328,36.328,0,0,1,3.93,14.127c.437,4.922-1.074,9.514-.8,14.415a18.621,18.621,0,0,0,4.112,9.473,32.365,32.365,0,0,1,6.041,11.079,25.471,25.471,0,0,1,.964,11.058,11.045,11.045,0,0,1-5.859,8.443,12.6,12.6,0,0,0-1.274-10.605,14.249,14.249,0,0,1-1.692,9.72,25.531,25.531,0,0,1-6.332,7.146,30.941,30.941,0,0,1-18.977,7.825c-7.278,0-14.556-2.78-21.616-.659a54.686,54.686,0,0,0-5.768,2.368,46.827,46.827,0,0,1-10.135,3.089c-3.312.618-6.678.329-9.953.865a19.639,19.639,0,0,1-15.429-4.119,28.845,28.845,0,0,1-9.316-21.4,13.48,13.48,0,0,0-2.2,6.178,19.6,19.6,0,0,1-3.111-15.9c1-4.263,3.4-8.072,3.639-12.459.237-3.81-1.146-7.475-1.51-11.264-.653-9.142,4.44-17.552,12.209-20.16a19.837,19.837,0,0,1,2.274-13.612Z" transform="translate(-88.715 -55.357)" fill="#263238"/>
            <path id="Path_4765" data-name="Path 4765" d="M100.689,106.243c4.585-2.183,8.57-.371,11.226,5.045,2.293,4.716,6.8,2.842,5.458-4.572,10.1-11.655-2.256-18.369,6.041-29.571,5.167-6.981,16.685-5.6,21.4-1.524,2.425-5.212,7.7-7.854,12.737-6.384,4.876,1.73,8.024,4.86,10.571,12.356,2.638,7.784.182,9.37,1.528,14.888a45.835,45.835,0,0,1,2.929,11.82c1.164,26.05-3.421,32.8-8.388,37.293-3.4,3.068-7.806,4.8-15.393,5.169l.71,11.347a62.664,62.664,0,0,1,11.463,30.374c-21.834-6.343-33.3-14.724-46.124-25.658l-2.183-37.767h0c-.983,3.007-6.241,6.466-11.772,1.689C93.9,124.776,92.592,110.114,100.689,106.243Z" transform="translate(-83.468 -41.081)" fill="#ffbda7"/>
            <path id="Path_4766" data-name="Path 4766" d="M137.368,83.944l-7.478-3.13a4.2,4.2,0,0,1,1.964-2.6,3.4,3.4,0,0,1,3.021-.157A4.971,4.971,0,0,1,137.368,83.944Z" transform="translate(-54.973 -31.611)" fill="#263238"/>
            <path id="Path_4767" data-name="Path 4767" d="M121.317,80.847l-6.86,4.654a4.8,4.8,0,0,1-.563-3.4,4.318,4.318,0,0,1,1.818-2.779A3.923,3.923,0,0,1,121.317,80.847Z" transform="translate(-68.161 -30.635)" fill="#263238"/>
            <path id="Path_4768" data-name="Path 4768" d="M120.32,94.81l11.154,3.913a6.438,6.438,0,0,1-3.12,4.014,5.239,5.239,0,0,1-4.722.1,5.762,5.762,0,0,1-3.156-3.223,6.928,6.928,0,0,1-.156-4.808Z" transform="translate(-63.107 -13.565)" fill="#b16668"/>
            <path id="Path_4769" data-name="Path 4769" d="M126.807,102.013c-.383-3.536-3.076-6.165-6.223-6.075a2.493,2.493,0,0,0-.564,0,5.782,5.782,0,0,0,3.639,5.663,5.891,5.891,0,0,0,3.148.412Z" transform="translate(-63.062 -12.387)" fill="#f28f8f"/>
            <path id="Path_4770" data-name="Path 4770" d="M123.9,81.83l2.438,23.29,11.263-4.8Z" transform="translate(-59.882 -27.314)" fill="#f0997a"/>
            <ellipse id="Ellipse_279" data-name="Ellipse 279" cx="3.33" cy="3.768" rx="3.33" ry="3.768" transform="translate(48.935 57.749)" fill="#263238"/>
            <ellipse id="Ellipse_280" data-name="Ellipse 280" cx="3.33" cy="3.768" rx="3.33" ry="3.768" transform="translate(74.881 56.101)" fill="#263238"/>
            <path id="Path_4771" data-name="Path 4771" d="M136.47,113.44c-7.405-.227-20.015-.227-26.31-9.39,0,0,.964,5.56,8.606,9.637,5.459,2.862,17.922,3.686,17.922,3.686Z" transform="translate(-71.142 -3.778)" fill="#f0997a"/>
          </g>
          <path id="Path_4772" data-name="Path 4772" d="M266.276,223.158c-.655,1.441-2.2,2.059-2.729,3.418a6.255,6.255,0,0,0,0,2.265,7.79,7.79,0,0,1-2,5.622,6.832,6.832,0,0,0-1.219,1.359,6.582,6.582,0,0,0-.546,1.895,15.412,15.412,0,0,1-4.239,7.413c-.855.824-1.82,1.647-2.693,2.389a27.236,27.236,0,0,1-7.715,4.51,71.787,71.787,0,0,1-20.251,3.048c-7.278,0-13.956-2.059-25.364-1.318-16.667,1.009-51.365,1.771-62.736,1.524s-16.266-1.318-23.235-17.38c-5.586-12.829-7.369-16.742-18.614-45.757-14.774-38.261-14.738-60.6,5.459-71.086,10.917,3.645,18.377,18.533,23.908,34.451,6.459,18.369,21.379,58.483,21.379,58.483s51.4,6.013,60.335,5.539c8.388-.474,16.048-4.551,23.854-7.619,2.329-.927,4.549-2.059,6.841-2.986l3.421,8.237a12.878,12.878,0,0,1-2.147,2.636c-1.019.988-3.421,3.068-1.819,4.592s4.312.721,6.878-.165c1.656-.577,3.166-1.277,4.13-1.627a76.852,76.852,0,0,1,12.118-4.119,7.168,7.168,0,0,1,6.1.927,2.6,2.6,0,0,1,1.173,1.652,2.935,2.935,0,0,1-.281,2.1Z" transform="translate(-84.468 14.241)" fill="#ffbda7"/>
          <path id="Path_4773" data-name="Path 4773" d="M172.3,167.73a14.931,14.931,0,0,1-2.529,3.665c-.928,1.009-1.819,2.471-1.019,2.842,1.82,1.359,4.894,0,6.987-.721,5.149-1.874,10.335-4.119,15.775-4.407-5.167,1.874-10.062,4.427-15.229,6.363a12.772,12.772,0,0,1-6.314,1.112c-1.82-.165-3.639-2.183-2.347-4.221s3.312-2.759,4.676-4.633Z" transform="translate(-16.676 63.676)" fill="#f0997a"/>
          <path id="Path_4774" data-name="Path 4774" d="M118.09,168.775c15.211.906,31.1,2.574,46.252,3.768,3.857.329,7.7.68,11.536.824,7.678.371,15.047-2.677,22.234-5.5l11.008-4.119c-10.735,4.86-21.416,11.717-33.279,11.532a500.064,500.064,0,0,1-57.751-6.466Z" transform="translate(-56.914 59.461)" fill="#f0997a"/>
        </g>
      </g>
    </g>
    <g id="freepik--Shapes--inject-253" transform="translate(305.777 441.485)">
      <g id="freepik--abstract-forms--inject-253">
        <path id="Path_4775" data-name="Path 4775" d="M319.369,369.624c-15.229-9.39-33.461-11.182-50.564-8.011s-33.26,11-48.672,19.954c-5.968,3.48-12.737,7.228-19.087,4.88s-10.28-10.935-9.68-18.719,4.6-14.744,9.37-20.387c17.485-20.7,46.234-28.274,70.251-19.254,21.179,7.928,36.772,23.62,48.381,41.535" transform="translate(-157.279 -140.586)" fill="#ba68c8"/>
        <path id="Path_4776" data-name="Path 4776" d="M319.369,369.624c-15.229-9.39-33.461-11.182-50.564-8.011s-33.26,11-48.672,19.954c-5.968,3.48-12.737,7.228-19.087,4.88s-10.28-10.935-9.68-18.719,4.6-14.744,9.37-20.387c17.485-20.7,46.234-28.274,70.251-19.254,21.179,7.928,36.772,23.62,48.381,41.535" transform="translate(-157.279 -140.586)" fill="#fff" opacity="0.6"/>
        <path id="Path_4777" data-name="Path 4777" d="M235.3,327.5a35.72,35.72,0,0,1,10.025-.8c1.528.1,2.984.474,4.512.721a27.852,27.852,0,0,1,4.8,1.174,13.373,13.373,0,0,0-2.038-2.7,30.91,30.91,0,0,0-7.533-6.342A66.632,66.632,0,0,0,216.355,310a61.071,61.071,0,0,0-19.887,1.524c-8.606,2.059-17.431,6.672-21.834,15.383-2.02,4.119-2.875,9.226-.946,13.344a11.453,11.453,0,0,0,7.569,6.075,20.5,20.5,0,0,0,9.48-.206c7.787-1.709,15.065-5.519,22.253-9.308S227.508,329.214,235.3,327.5Z" transform="translate(-172.605 -156.023)" fill="#ba68c8"/>
        <path id="Path_4778" data-name="Path 4778" d="M235.3,327.5a35.72,35.72,0,0,1,10.025-.8c1.528.1,2.984.474,4.512.721a27.852,27.852,0,0,1,4.8,1.174,13.373,13.373,0,0,0-2.038-2.7,30.91,30.91,0,0,0-7.533-6.342A66.632,66.632,0,0,0,216.355,310a61.071,61.071,0,0,0-19.887,1.524c-8.606,2.059-17.431,6.672-21.834,15.383-2.02,4.119-2.875,9.226-.946,13.344a11.453,11.453,0,0,0,7.569,6.075,20.5,20.5,0,0,0,9.48-.206c7.787-1.709,15.065-5.519,22.253-9.308S227.508,329.214,235.3,327.5Z" transform="translate(-172.605 -156.023)" fill="#fff" opacity="0.35"/>
        <path id="Path_4779" data-name="Path 4779" d="M217.054,347.836c13.537,14.229,28.948,22.878,45.906,30.271-9.734-11.7-16.012-25.988-20.961-40.9s-6.441-30.889-8.879-46.6c-1.365-8.875-3.912-17.813-9.225-24.505s-13.846-10.667-21.434-7.99c-6.641,2.368-11.408,9.411-13.191,17.03a52.767,52.767,0,0,0,.764,23.352C194.365,317.688,204.244,334.348,217.054,347.836Z" transform="translate(-159.731 -211.63)" fill="#ba68c8"/>
        <g id="Group_185" data-name="Group 185" transform="translate(28.585 45.641)" opacity="0.2">
          <path id="Path_4780" data-name="Path 4780" d="M217.054,347.836c13.537,14.229,28.948,22.878,45.906,30.271-9.734-11.7-16.012-25.988-20.961-40.9s-6.441-30.889-8.879-46.6c-1.365-8.875-3.912-17.813-9.225-24.505s-13.846-10.667-21.434-7.99c-6.641,2.368-11.408,9.411-13.191,17.03a52.767,52.767,0,0,0,.764,23.352C194.365,317.688,204.244,334.348,217.054,347.836Z" transform="translate(-188.315 -257.27)" fill="#fff"/>
        </g>
        <path id="Path_4781" data-name="Path 4781" d="M204.667,255.14c-7.336,3.186-12.963,10.025-15.247,18.533-.382,1.5-.946,3.336-2.311,3.563s-2.547-1.853-2.766-3.624C182.706,259.794,195.788,255.346,204.667,255.14Z" transform="translate(-163.101 -213.887)" fill="#ba68c8"/>
        <path id="Path_4782" data-name="Path 4782" d="M315.912,363.723c-16.23,13.406-32.114,32.042-37.718,54.55-5.622-36.552,4.64-76.955,22.616-107.349,17.322-29.3,49.491-56.4,82.187-41.329,8.333,3.83,15.357,12.356,16.175,22.652.728,8.978-3.4,17.73-9.1,23.949s-13.009,10.3-20.178,14.209C351.356,340.391,332.488,350.008,315.912,363.723Z" transform="translate(-87.338 -203.135)" fill="#ba68c8"/>
        <path id="Path_4783" data-name="Path 4783" d="M315.912,363.723c-16.23,13.406-32.114,32.042-37.718,54.55-5.622-36.552,4.64-76.955,22.616-107.349,17.322-29.3,49.491-56.4,82.187-41.329,8.333,3.83,15.357,12.356,16.175,22.652.728,8.978-3.4,17.73-9.1,23.949s-13.009,10.3-20.178,14.209C351.356,340.391,332.488,350.008,315.912,363.723Z" transform="translate(-87.338 -203.135)" fill="#fff" opacity="0.35"/>
        <path id="Path_4784" data-name="Path 4784" d="M264.229,261.328c.819,15.486,7.387,34,11.008,46,5.459,18.019,10.553,37.437,6.2,55.847,11.5-16.783,22.4-35.955,27.493-56.547,5.331-21.643,4.731-46.313-9.862-63.446-9.516-11.161-29.276-11.985-33.825,5.354a42.469,42.469,0,0,0-1.019,12.788Z" transform="translate(-97.609 -235.107)" fill="#ba68c8"/>
        <path id="Path_4785" data-name="Path 4785" d="M264.229,261.328c.819,15.486,7.387,34,11.008,46,5.459,18.019,10.553,37.437,6.2,55.847,11.5-16.783,22.4-35.955,27.493-56.547,5.331-21.643,4.731-46.313-9.862-63.446-9.516-11.161-29.276-11.985-33.825,5.354a42.469,42.469,0,0,0-1.019,12.788Z" transform="translate(-97.609 -235.107)" fill="#fff" opacity="0.6"/>
        <path id="Path_4786" data-name="Path 4786" d="M342.3,257.09a23.073,23.073,0,0,0-14.556,1.544A26.806,26.806,0,0,0,315.43,270.99c4.894-3.171,12.573-5.91,25.327-3.851,12.227,1.956,19.505,8.484,22.089,12.047-.218-6.9-5.076-14.209-10.3-17.751A28.992,28.992,0,0,0,342.3,257.09Z" transform="translate(-55.56 -212.397)" fill="#ba68c8"/>
      </g>
    </g>
    <g id="freepik--text-icon--inject-253" transform="translate(637.426 357.683)">
      <g id="freepik--speech-bubble--inject-253">
        <g id="freepik--speech-bubble--inject-253-2" data-name="freepik--speech-bubble--inject-253">
          <path id="Path_4787" data-name="Path 4787" d="M387.43,284.116l3.02-12.15c-1.328-6.96,23.781,9.452,25.109,16.474l-8.1,24.711a3.816,3.816,0,0,1-1.365,1.792c-1.82,1.236-13.755,8.937-14.338,9.328a3.158,3.158,0,0,1-3.046.335,3.8,3.8,0,0,1-2.121-2.5l-10.48-40.691C375.458,277.938,381.244,280.142,387.43,284.116Z" transform="translate(-337.521 -114.046)" fill="#37474f"/>
          <path id="Path_4788" data-name="Path 4788" d="M376.04,195.293l95.433,62.334a8.292,8.292,0,0,1,3.221,6.322V391.974a8.179,8.179,0,0,1-3.239,6.178l-11.317,7.516a6.525,6.525,0,0,1-6.477,0L358.19,343.334a8.292,8.292,0,0,1-3.221-6.322V208.843a8.283,8.283,0,0,1,3.239-6.3l11.354-7.29A6.525,6.525,0,0,1,376.04,195.293Z" transform="translate(-354.806 -194.412)" fill="#37474f"/>
          <path id="Path_4789" data-name="Path 4789" d="M358.15,200.643l95.469,62.334a8.351,8.351,0,0,1,3.239,6.322V397.343c0,2.327-1.456,3.274-3.239,2.059l-36.536-23.846-6.714,21.066A3.484,3.484,0,0,1,406.99,399a3.6,3.6,0,0,1-3.153-2.745l-8.825-35.131L358.241,337.11a8.292,8.292,0,0,1-3.221-6.322V202.764C354.984,200.437,356.367,199.489,358.15,200.643Z" transform="translate(-354.766 -188.332)" fill="#fafafa"/>
          <path id="Path_4790" data-name="Path 4790" d="M356.918,201.9a1.312,1.312,0,0,1,.655.247l95.469,62.334a6.379,6.379,0,0,1,2.438,4.778V397.3c0,.556-.127.783-.218.824a1.235,1.235,0,0,1-.655-.268L417.98,374.055l-1.619-1.071-.637,2.059-6.7,21a1.934,1.934,0,0,1-1.878,1.371,1.989,1.989,0,0,1-1.761-1.556l-8.916-35.172-.182-.7-.546-.35-36.772-24.011a6.508,6.508,0,0,1-2.438-4.778V202.765a1.359,1.359,0,0,1,.164-.824h0m0-1.792c-1.055,0-1.82.968-1.82,2.615V330.79a8.292,8.292,0,0,0,3.22,6.322l37.027,24.011,8.916,35.172a3.507,3.507,0,0,0,3.348,2.739,3.419,3.419,0,0,0,3.184-2.368l6.714-21.066,36.536,23.846a2.824,2.824,0,0,0,1.437.494c1.074,0,1.82-.947,1.82-2.595V269.3a8.351,8.351,0,0,0-3.239-6.322l-95.469-62.334a2.707,2.707,0,0,0-1.437-.494Z" transform="translate(-354.88 -188.334)" fill="#37474f"/>
          <path id="Path_4791" data-name="Path 4791" d="M355,208.184c.255-1.853,1.583-2.512,3.2-1.462l95.451,62.334a7.223,7.223,0,0,1,2.274,2.739l17.795-11.573a6.967,6.967,0,0,0-2.274-2.615l-95.469-62.334a6.525,6.525,0,0,0-6.477,0l-11.354,7.29A8.414,8.414,0,0,0,355,208.184Z" transform="translate(-354.782 -194.412)" fill="#455a64"/>
        </g>
        <path id="Path_4792" data-name="Path 4792" d="M367.82,220.19v31.218l2.511,1.586v-9.843c0-5.313,3.821-7.125,8.515-4.119l11.718,7.64v56.321c0,6.178-3.33,8.958-7.442,6.281l-7.278-4.8v3.4l39.811,26.008v-3.295l-7.278-4.8c-4.112-2.677-7.442-9.843-7.442-16V253.468l11.718,7.66c4.712,3.068,8.515,9.864,8.515,15.177v9.843l2.511,1.689V256.618Z" transform="translate(-344.276 -167.106)" fill="#455a64"/>
      </g>
    </g>
  </g>
</svg>
