<svg xmlns="http://www.w3.org/2000/svg" width="621.078" height="507.987" viewBox="0 0 621.078 507.987">
  <g id="Students-rafiki" transform="translate(0 -55)">
    <g id="freepik--background-complete--inject-116" transform="translate(0 55)">
      <rect id="Rectangle_139" data-name="Rectangle 139" width="41.14" height="0.341" transform="translate(517.706 469.042)" fill="#ebebeb"/>
      <rect id="Rectangle_140" data-name="Rectangle 140" width="10.794" height="0.341" transform="translate(400.633 472.756)" fill="#ebebeb"/>
      <rect id="Rectangle_141" data-name="Rectangle 141" width="23.837" height="0.341" transform="translate(492.627 456.37)" fill="#ebebeb"/>
      <rect id="Rectangle_142" data-name="Rectangle 142" width="53.649" height="0.341" transform="translate(65.164 458.664)" fill="#ebebeb"/>
      <rect id="Rectangle_143" data-name="Rectangle 143" width="7.863" height="0.341" transform="translate(129.88 458.664)" fill="#ebebeb"/>
      <rect id="Rectangle_144" data-name="Rectangle 144" width="116.365" height="0.341" transform="translate(163.306 464.426)" fill="#ebebeb"/>
      <path id="Path_1432" data-name="Path 1432" d="M286.543,441.169H46.683c-3.917,0-7.093-3.491-7.093-7.8V62.729c.034-4.28,3.2-7.729,7.093-7.729h239.86c3.917,0,7.093,3.491,7.093,7.8V433.372C293.636,437.678,290.46,441.169,286.543,441.169ZM46.683,55.273c-3.743.008-6.775,3.341-6.782,7.456V433.372c.007,4.115,3.039,7.448,6.782,7.456H286.543c3.743-.008,6.775-3.341,6.782-7.456V62.729c-.007-4.115-3.039-7.448-6.782-7.456Z" transform="translate(9.587 -55)" fill="#ebebeb"/>
      <path id="Path_1433" data-name="Path 1433" d="M502.843,441.169H262.983c-3.917,0-7.093-3.491-7.093-7.8V62.729c.034-4.28,3.2-7.729,7.093-7.729H502.843c3.917,0,7.093,3.491,7.093,7.8V433.372C509.936,437.678,506.76,441.169,502.843,441.169ZM262.983,55.273c-3.743.008-6.775,3.341-6.782,7.456V433.372c.007,4.115,3.039,7.448,6.782,7.456H502.843c3.743-.008,6.775-3.341,6.782-7.456V62.729c-.007-4.115-3.039-7.448-6.782-7.456Z" transform="translate(61.966 -55)" fill="#ebebeb"/>
      <rect id="Rectangle_145" data-name="Rectangle 145" width="621.078" height="0.341" transform="translate(0 447.071)" fill="#ebebeb"/>
      <rect id="Rectangle_146" data-name="Rectangle 146" width="198.099" height="178.91" transform="translate(549.605 447.194) rotate(180)" fill="#f5f5f5"/>
      <path id="Path_1434" data-name="Path 1434" d="M282.97,268.295H489.081L452.4,215.49H282.97Z" transform="translate(68.523 3.662)" fill="#ebebeb"/>
      <path id="Path_1435" data-name="Path 1435" d="M402.45,348.219c0-9.985,7.363-18.079,16.446-18.079s16.446,8.094,16.446,18.079v44.611H402.45Z" transform="translate(97.456 45.569)" fill="#e6e6e6"/>
      <path id="Path_1436" data-name="Path 1436" d="M355.86,348.219c0-9.985,7.363-18.079,16.446-18.079s16.446,8.094,16.446,18.079v44.611H355.86Z" transform="translate(86.174 45.569)" fill="#e6e6e6"/>
      <path id="Path_1437" data-name="Path 1437" d="M309.271,348.352a18.545,18.545,0,0,1,8.087-16.071,15.176,15.176,0,0,1,16.706,0,18.544,18.544,0,0,1,8.087,16.071v44.611h-32.88Z" transform="translate(74.891 45.436)" fill="#e6e6e6"/>
      <path id="Path_1438" data-name="Path 1438" d="M402.45,277.22c0-9.985,7.363-18.08,16.446-18.079s16.446,8.094,16.446,18.079v44.611H402.45Z" transform="translate(97.456 19.617)" fill="#e6e6e6"/>
      <path id="Path_1439" data-name="Path 1439" d="M355.86,277.22c0-9.985,7.363-18.08,16.446-18.079s16.446,8.094,16.446,18.079v44.611H355.86Z" transform="translate(86.174 19.617)" fill="#e6e6e6"/>
      <path id="Path_1440" data-name="Path 1440" d="M309.271,277.352a18.545,18.545,0,0,1,8.087-16.071,15.177,15.177,0,0,1,16.706,0,18.545,18.545,0,0,1,8.087,16.071v44.611h-32.88Z" transform="translate(74.891 19.484)" fill="#e6e6e6"/>
      <rect id="Rectangle_147" data-name="Rectangle 147" width="198.261" height="10.255" transform="translate(557.604 358.49) rotate(180)" fill="#e6e6e6"/>
      <rect id="Rectangle_148" data-name="Rectangle 148" width="198.099" height="178.91" transform="translate(73.287 268.283)" fill="#f5f5f5"/>
      <path id="Path_1441" data-name="Path 1441" d="M258.671,268.295H52.56l36.681-52.8h169.43Z" transform="translate(12.728 3.662)" fill="#ebebeb"/>
      <path id="Path_1442" data-name="Path 1442" d="M105.412,348.219c0-9.985-7.363-18.079-16.446-18.079S72.52,338.234,72.52,348.219v44.611h32.892Z" transform="translate(17.561 45.569)" fill="#e6e6e6"/>
      <path id="Path_1443" data-name="Path 1443" d="M152.012,348.219c0-9.985-7.363-18.079-16.446-18.079s-16.446,8.094-16.446,18.079v44.611h32.892Z" transform="translate(28.846 45.569)" fill="#e6e6e6"/>
      <path id="Path_1444" data-name="Path 1444" d="M198.6,348.352a18.545,18.545,0,0,0-8.087-16.071,15.177,15.177,0,0,0-16.706,0,18.545,18.545,0,0,0-8.087,16.071v44.611H198.6Z" transform="translate(40.129 45.436)" fill="#e6e6e6"/>
      <path id="Path_1445" data-name="Path 1445" d="M105.412,277.22c0-9.985-7.363-18.079-16.446-18.079S72.52,267.234,72.52,277.22v44.611h32.892Z" transform="translate(17.561 19.617)" fill="#e6e6e6"/>
      <path id="Path_1446" data-name="Path 1446" d="M152.012,277.22c0-9.985-7.363-18.079-16.446-18.079s-16.446,8.094-16.446,18.079v44.611h32.892Z" transform="translate(28.846 19.617)" fill="#e6e6e6"/>
      <path id="Path_1447" data-name="Path 1447" d="M198.6,277.352a18.545,18.545,0,0,0-8.087-16.071,15.177,15.177,0,0,0-16.706,0,18.545,18.545,0,0,0-8.087,16.071v44.611H198.6Z" transform="translate(40.129 19.484)" fill="#e6e6e6"/>
      <rect id="Rectangle_149" data-name="Rectangle 149" width="198.261" height="10.255" transform="translate(65.288 348.248)" fill="#e6e6e6"/>
      <rect id="Rectangle_150" data-name="Rectangle 150" width="123.396" height="158.55" transform="translate(250.046 288.657)" fill="#f5f5f5"/>
      <path id="Path_1448" data-name="Path 1448" d="M306.365,306.7H213.65V187.571L260.007,143l46.357,44.571Z" transform="translate(51.737 -22.834)" fill="#f5f5f5"/>
      <path id="Path_1449" data-name="Path 1449" d="M285.895,333.041c.006-17.745-13.08-32.131-29.222-32.131s-29.228,14.385-29.228,32.131l.006,79.268h58.444Z" transform="translate(55.077 34.885)" fill="#e6e6e6"/>
      <rect id="Rectangle_151" data-name="Rectangle 151" width="134.066" height="10.255" transform="translate(244.717 279.317)" fill="#e6e6e6"/>
      <ellipse id="Ellipse_248" data-name="Ellipse 248" cx="28.011" cy="30.792" rx="28.011" ry="30.792" transform="translate(283.733 148.773)" fill="#e6e6e6"/>
      <path id="Path_1450" data-name="Path 1450" d="M252.745,199.755H248l.708-29.563a1.734,1.734,0,0,1,1.652-1.762h0a1.709,1.709,0,0,1,1.64,1.762Z" transform="translate(60.055 -13.539)" fill="#fafafa"/>
      <path id="Path_1451" data-name="Path 1451" d="M248,192.759V187.57l18.993.778c.634,0,1.13.833,1.13,1.816h0c0,.983-.5,1.775-1.13,1.8Z" transform="translate(60.055 -6.543)" fill="#fafafa"/>
      <path id="Path_1452" data-name="Path 1452" d="M71.014,125.619c30.408,12.986,128.824-1.816,128.278-26.4-.969-45.7-35.116-6.377-35.116-6.377s-12.1-23.664-30.259-25.494S112.6,93.762,112.6,93.762,94.2,83.739,85.92,86.47,77.3,105.587,77.3,105.587,44.544,114.286,71.014,125.619Z" transform="translate(14.695 -50.516)" fill="#f5f5f5"/>
      <path id="Path_1453" data-name="Path 1453" d="M195.974,143.615c28.644,17.192,127.942,16.386,130.3-8.057,4.335-45.458-34.147-11.293-34.147-11.293S282.9,99.085,265.1,94.716s-24.222,23.214-24.222,23.214-17.055-12.522-25.588-10.924S204.5,124.757,204.5,124.757,170.994,128.635,195.974,143.615Z" transform="translate(45.215 -40.655)" fill="#f5f5f5"/>
      <path id="Path_1454" data-name="Path 1454" d="M336.618,117.637c13.1,10.323,59.81,7.333,61.412-8.466,2.981-29.359-15.813-6.4-15.813-6.4S378.4,86.79,370.131,84.428,358.256,99.94,358.256,99.94s-7.751-7.62-11.8-6.418-5.428,11.675-5.428,11.675S325.19,108.625,336.618,117.637Z" transform="translate(80.511 -44.322)" fill="#f5f5f5"/>
      <path id="Path_1455" data-name="Path 1455" d="M379.2,144.408c15.577,12.29,71.1,8.712,73.014-10.05,3.54-34.9-18.806-7.62-18.806-7.62s-4.534-18.994-14.372-21.848-14.049,18.489-14.049,18.489-9.217-9.067-14.024-7.633-6.472,13.887-6.472,13.887S365.61,133.689,379.2,144.408Z" transform="translate(90.635 -36.86)" fill="#f0f0f0"/>
    </g>
    <g id="freepik--Shadow--inject-116" transform="translate(69.697 532.071)">
      <ellipse id="freepik--path--inject-116" cx="240.842" cy="15.458" rx="240.842" ry="15.458" fill="#f5f5f5"/>
    </g>
    <g id="freepik--character-3--inject-116" transform="translate(311.489 213.786)">
      <path id="Path_1456" data-name="Path 1456" d="M285.837,208.4h28.57c11.881-.016,21.835,9.877,23.017,22.872v.178c1.441,17.642,1.242,53.255,0,70.87a24.933,24.933,0,0,1-.236,2.553c-1.384,12.675-11.169,22.211-22.781,22.2H274.385c-9.787.07-18.517-6.749-21.676-16.932a11.534,11.534,0,0,1-.31-1.174c-1.851-8.9-2.484-27.843,0-36.569,1.391-4.861,9.2-11.866,10.583-16.728,2.149-7.51-2.733-24.211,0-31.489.907-2.4,4.112-6.022,7.267-9.176A21.943,21.943,0,0,1,285.837,208.4Z" transform="translate(-250.764 -157.715)" fill="#407bff"/>
      <path id="Path_1457" data-name="Path 1457" d="M285.837,208.4h28.57c11.881-.016,21.835,9.877,23.017,22.872v.178c1.441,17.642,1.242,53.255,0,70.87a24.933,24.933,0,0,1-.236,2.553c-1.384,12.675-11.169,22.211-22.781,22.2H274.385c-9.787.07-18.517-6.749-21.676-16.932a11.534,11.534,0,0,1-.31-1.174c-1.851-8.9-2.484-27.843,0-36.569,1.391-4.861,9.2-11.866,10.583-16.728,2.149-7.51-2.733-24.211,0-31.489.907-2.4,4.112-6.022,7.267-9.176A21.943,21.943,0,0,1,285.837,208.4Z" transform="translate(-250.764 -157.715)" opacity="0.5"/>
      <path id="Path_1458" data-name="Path 1458" d="M274.422,212.685a4.266,4.266,0,0,0-1.3-1.215,22.614,22.614,0,0,0-2.869,2.417c-3.155,3.154-6.36,6.828-7.267,9.176-2.733,7.278,2.149,23.979,0,31.489-1.379,4.861-9.192,11.866-10.583,16.728-2.484,8.726-1.851,27.665,0,36.569a11.547,11.547,0,0,0,.311,1.174c2.7,8.768,9.605,15.162,17.924,16.591a7.688,7.688,0,0,0,2.112-1.557C276.111,320.288,278.819,219.69,274.422,212.685Z" transform="translate(-250.764 -156.593)" fill="#407bff"/>
      <path id="Path_1459" data-name="Path 1459" d="M274.422,212.685a4.266,4.266,0,0,0-1.3-1.215,22.614,22.614,0,0,0-2.869,2.417c-3.155,3.154-6.36,6.828-7.267,9.176-2.733,7.278,2.149,23.979,0,31.489-1.379,4.861-9.192,11.866-10.583,16.728-2.484,8.726-1.851,27.665,0,36.569a11.547,11.547,0,0,0,.311,1.174c2.7,8.768,9.605,15.162,17.924,16.591a7.688,7.688,0,0,0,2.112-1.557C276.111,320.288,278.819,219.69,274.422,212.685Z" transform="translate(-250.764 -156.593)" fill="#fff" opacity="0.2"/>
      <path id="Path_1460" data-name="Path 1460" d="M263.767,293.675l-7.913-4.233a4.895,4.895,0,0,1-2.484-4.342V266.46a4.618,4.618,0,0,1,4.385-4.82h8.7a4.2,4.2,0,0,1,3.154,1.469,5.1,5.1,0,0,1,1.23,3.515l-.745,22.886a4.908,4.908,0,0,1-2.123,3.987A4.03,4.03,0,0,1,263.767,293.675Z" transform="translate(-250.133 -138.255)" opacity="0.3"/>
      <path id="Path_1461" data-name="Path 1461" d="M338.754,389.86l-15.564,1.42,2.633,20.114,13.018-1.174Z" transform="translate(-233.226 -91.388)" fill="#ce7a63"/>
      <path id="Path_1462" data-name="Path 1462" d="M314.948,367.816c-6.074-25.726-24.384-55.986-12.223-79.6l43.4,4.452s1.59,44.816,1.888,68.877c.323,25.03-1.64,72.372-1.64,72.372L328.538,435.4S316.377,396.7,314.948,367.816Z" transform="translate(-239.17 -128.54)" fill="#407bff"/>
      <path id="Path_1463" data-name="Path 1463" d="M314.948,367.816c-6.074-25.726-24.384-55.986-12.223-79.6l43.4,4.452s1.59,44.816,1.888,68.877c.323,25.03-1.64,72.372-1.64,72.372L328.538,435.4S316.377,396.7,314.948,367.816Z" transform="translate(-239.17 -128.54)" opacity="0.3"/>
      <path id="Path_1464" data-name="Path 1464" d="M322.473,399.449l19.266-1.557a.72.72,0,0,0,.634-.7l.41-7.865a.777.777,0,0,0-.211-.586.633.633,0,0,0-.546-.192l-21.39,3.127a.667.667,0,0,0-.478.329.8.8,0,0,0-.081.613l1.7,6.3a.665.665,0,0,0,.7.533Z" transform="translate(-233.987 -91.869)" fill="#407bff"/>
      <path id="Path_1465" data-name="Path 1465" d="M302.07,305.14a143.237,143.237,0,0,0,.671,18.216c2.136,8.1,4.857,16.2,7.291,24.06C313.237,325.158,313.249,299.213,302.07,305.14Z" transform="translate(-238.353 -122.669)" opacity="0.2"/>
      <path id="Path_1466" data-name="Path 1466" d="M284.979,389.519l-14.856-5.339-5.913,19.2,12.409,4.479Z" transform="translate(-247.508 -93.464)" fill="#ce7a63"/>
      <path id="Path_1467" data-name="Path 1467" d="M277.058,360.514c-2.112-26.013-9.937-64.016-1.354-75.1l50.779,5.462s-10.012,48.585-14.285,72.591c-4.435,24.866-29.675,68.863-29.675,68.863L266.5,426.441S271.667,390.2,277.058,360.514Z" transform="translate(-246.954 -129.567)" fill="#407bff"/>
      <path id="Path_1468" data-name="Path 1468" d="M277.058,360.514c-2.112-26.013-9.937-64.016-1.354-75.1l50.779,5.462s-10.012,48.585-14.285,72.591c-4.435,24.866-29.675,68.863-29.675,68.863L266.5,426.441S271.667,390.2,277.058,360.514Z" transform="translate(-246.954 -129.567)" opacity="0.3"/>
      <path id="Path_1469" data-name="Path 1469" d="M265.544,390.9l18.135,6.732a.622.622,0,0,0,.77-.328l3.366-6.636a.833.833,0,0,0,.032-.665.722.722,0,0,0-.455-.441L267.357,383.2a.6.6,0,0,0-.5.064.706.706,0,0,0-.306.441l-1.466,6.268a.794.794,0,0,0,.46.928Z" transform="translate(-247.302 -93.834)" fill="#407bff"/>
      <path id="Path_1470" data-name="Path 1470" d="M351,257.428l-3.428.287a1.821,1.821,0,0,0-.534.26l-.609.341a14,14,0,0,1-1.242.683c-.795.451-1.6.847-2.373,1.188a15.143,15.143,0,0,1-2.422.874l-.745-15.021c-.124-2.99-.323-5.967-.484-8.958s-.373-6.008-.621-8.862v-.191c-.664-6.119-5.548-10.611-11.143-10.249s-9.967,5.452-9.973,11.614c0,3.25.248,6.3.472,9.422s.522,6.213.907,9.313l.559,4.656.683,4.643c.435,3.1,1.006,6.186,1.578,9.286l.261,1.366a7.541,7.541,0,0,0,.981,2.513,22.7,22.7,0,0,0,3.726,4.67,16.4,16.4,0,0,0,5.9,3.66,13.981,13.981,0,0,0,6.708.574,16.485,16.485,0,0,0,5.229-1.789,24.221,24.221,0,0,0,6.708-5.694,34.729,34.729,0,0,0,2.36-3.209c.36-.56.7-1.12,1.019-1.693l.484-.888.509-.983a5.6,5.6,0,0,0,.609-2.991A4.936,4.936,0,0,0,351,257.428Z" transform="translate(-234.623 -154.294)" fill="#263238"/>
      <path id="Path_1471" data-name="Path 1471" d="M335.853,217.766c8.124,7.469,8.857,33.087,8.857,33.087-3.652,8.261-12.347,9.627-19.763,10.924,0,0-9.44-6.951-11.49-25.194C311.954,223.133,319.444,202.65,335.853,217.766Z" transform="translate(-235.629 -156.239)" fill="#407bff"/>
      <g id="Group_37" data-name="Group 37" transform="translate(77.64 56.198)" opacity="0.2">
        <path id="Path_1472" data-name="Path 1472" d="M335.853,217.766c8.124,7.469,8.857,33.087,8.857,33.087-3.652,8.261-12.347,9.627-19.763,10.924,0,0-9.44-6.951-11.49-25.194C311.954,223.133,319.444,202.65,335.853,217.766Z" transform="translate(-313.268 -212.438)"/>
      </g>
      <path id="Path_1473" data-name="Path 1473" d="M335.38,213.054a179.5,179.5,0,0,0-43.314-3.837c-8.4.4-14.757,5.462-15.39,24.238-1.242,38.1-7.043,67.293-3.851,81.385,0,0,62.008,26.86,81.9,9.559,8.422-45.062-3.13-84.539-8.534-101.048A15.081,15.081,0,0,0,335.38,213.054Z" transform="translate(-245.652 -157.453)" fill="#407bff"/>
      <path id="Path_1474" data-name="Path 1474" d="M338.4,399.51H325.257a.952.952,0,0,0-.932.888l-1.5,11.429a2.212,2.212,0,0,0,.473,1.606,1.817,1.817,0,0,0,1.4.688c4.584-.1,6.795-.382,12.571-.382,3.565,0,8.968.4,13.887.4s5.167-5.339,3.13-5.817c-9.18-2.171-10.832-5.162-13.925-8.016A2.885,2.885,0,0,0,338.4,399.51Z" transform="translate(-233.318 -87.861)" fill="#263238"/>
      <path id="Path_1475" data-name="Path 1475" d="M339.661,402.032a4.153,4.153,0,0,0,2.845-.792,1.819,1.819,0,0,0,.5-1.488,1.022,1.022,0,0,0-.472-.806c-1.428-.86-6.1,1.748-6.621,2.048a.294.294,0,0,0-.149.314.277.277,0,0,0,.224.259,18.015,18.015,0,0,0,3.677.464Zm2.087-2.731a1.007,1.007,0,0,1,.522.109.376.376,0,0,1,.174.328,1.157,1.157,0,0,1-.31.983c-.708.7-2.633.819-5.23.341a14.084,14.084,0,0,1,4.844-1.693Z" transform="translate(-230.183 -88.13)" fill="#407bff"/>
      <path id="Path_1476" data-name="Path 1476" d="M336.054,402.384h.112c1.391-.7,4.161-3.468,3.938-4.929,0-.341-.273-.778-1.043-.86a1.87,1.87,0,0,0-1.528.519c-1.478,1.366-1.751,4.82-1.751,4.957a.314.314,0,0,0,.112.287A.32.32,0,0,0,336.054,402.384Zm2.782-5.216h.174c.5,0,.534.287.547.355.124.874-1.739,3.059-3.167,4a7.5,7.5,0,0,1,1.491-3.96,1.374,1.374,0,0,1,.932-.41Z" transform="translate(-230.178 -88.932)" fill="#407bff"/>
      <path id="Path_1477" data-name="Path 1477" d="M279.608,397.057l-12.658-3.905a.909.909,0,0,0-1.118.574l-4.248,10.569a2.248,2.248,0,0,0,.071,1.668,1.929,1.929,0,0,0,1.171,1.063c4.435,1.27,20.558,6.828,25.29,8.193s6.3-3.605,4.435-4.67c-8.3-4.82-8.981-8.562-11.254-12.29A3.058,3.058,0,0,0,279.608,397.057Z" transform="translate(-248.175 -90.201)" fill="#263238"/>
      <path id="Path_1478" data-name="Path 1478" d="M279.7,399.305a4.115,4.115,0,0,0,2.931.082,1.705,1.705,0,0,0,.845-1.284,1.033,1.033,0,0,0-.248-.915c-1.168-1.27-6.31-.123-6.894,0a.279.279,0,0,0-.211.259.294.294,0,0,0,.149.3,18.923,18.923,0,0,0,3.428,1.557Zm2.671-1.953a1.1,1.1,0,0,1,.46.259.408.408,0,0,1,.1.382,1.107,1.107,0,0,1-.547.847c-.857.464-2.733,0-5.118-1.215a13.761,13.761,0,0,1,5.143-.273Z" transform="translate(-244.625 -88.926)" fill="#407bff"/>
      <path id="Path_1479" data-name="Path 1479" d="M276.36,398.779h.112c1.515-.246,4.857-2.1,4.969-3.564a1.136,1.136,0,0,0-.8-1.147,1.88,1.88,0,0,0-1.6,0c-1.751.86-2.857,4.1-2.907,4.26a.342.342,0,0,0,0,.3.259.259,0,0,0,.224.15Zm3.962-4.192h.161c.472.2.447.423.447.505-.1.874-2.484,2.431-4.037,2.909a7.038,7.038,0,0,1,2.41-3.373A1.276,1.276,0,0,1,280.323,394.587Z" transform="translate(-244.629 -89.916)" fill="#407bff"/>
      <path id="Path_1480" data-name="Path 1480" d="M273.581,259.637c-.584,6.473-1.106,12.385-1.441,17.683,5.975.983,16.272-2.1,32.681-20.333l-4.608-2.868Z" transform="translate(-245.588 -141.004)" opacity="0.2"/>
      <path id="Path_1481" data-name="Path 1481" d="M323.735,220.985c-1.5-1.953-3.317-1.106-3.888-3.878a10.02,10.02,0,0,1,1.453-6.063L302.668,197.28c-.311,8-.571,14.311-4.049,17.137-1.453,5.831,8.024,12.809,21.452,14.324C328.579,229.67,325.884,223.8,323.735,220.985Z" transform="translate(-239.212 -161.78)" fill="#ce7a63"/>
      <path id="Path_1482" data-name="Path 1482" d="M319.527,209.416,304.36,203.49c3.329,7.21,10.074,11.675,14.024,10.433A9.875,9.875,0,0,1,319.527,209.416Z" transform="translate(-237.786 -159.51)" opacity="0.2"/>
      <path id="Path_1483" data-name="Path 1483" d="M317.79,179.035c-10.061-3.591-19.75,4.848-18.632,15.294s2.062,17.506,8.186,21.671c12.186,8.289,19.017,2.267,21-8.316C330.037,198.152,328.013,182.681,317.79,179.035Z" transform="translate(-239.067 -168.756)" fill="#ce7a63"/>
      <path id="Path_1484" data-name="Path 1484" d="M315.72,201.028a7.24,7.24,0,0,0,1.3-.082.282.282,0,0,0,.224-.314.293.293,0,0,0-.1-.192.243.243,0,0,0-.2-.054,6.593,6.593,0,0,1-5.975-2.185.244.244,0,0,0-.36,0,.292.292,0,0,0,0,.4,6.867,6.867,0,0,0,5.105,2.431Z" transform="translate(-236.29 -161.472)" fill="#263238"/>
      <path id="Path_1485" data-name="Path 1485" d="M312.58,192.631c0,.915.509,1.639,1.056,1.6s.956-.792.919-1.707-.509-1.639-1.056-1.611S312.543,191.716,312.58,192.631Z" transform="translate(-235.796 -164.108)" fill="#263238"/>
      <path id="Path_1486" data-name="Path 1486" d="M320.46,192.341c0,.915.509,1.639,1.043,1.6s.969-.792.932-1.707-.509-1.639-1.056-1.611S320.423,191.426,320.46,192.341Z" transform="translate(-233.888 -164.214)" fill="#263238"/>
      <path id="Path_1487" data-name="Path 1487" d="M317.861,192.34l-.211,7.7a4.034,4.034,0,0,0,3.615-.642,16.235,16.235,0,0,0-3.4-7.06Z" transform="translate(-234.568 -163.586)" fill="#ba4d3c"/>
      <path id="Path_1488" data-name="Path 1488" d="M310.269,191.493a.4.4,0,0,1-.248,0,.508.508,0,0,1-.269-.285.582.582,0,0,1,0-.411,5.194,5.194,0,0,1,3.279-3.373.491.491,0,0,1,.584.41.541.541,0,0,1-.373.642h0a4.147,4.147,0,0,0-2.571,2.731.509.509,0,0,1-.4.287Z" transform="translate(-236.49 -165.387)" fill="#263238"/>
      <path id="Path_1489" data-name="Path 1489" d="M324.024,190.085a.524.524,0,0,1-.36-.218,3.811,3.811,0,0,0-2.931-2.158.466.466,0,0,1-.344-.17.565.565,0,0,1-.129-.389.532.532,0,0,1,.509-.519,4.854,4.854,0,0,1,3.726,2.731.578.578,0,0,1,.06.406.532.532,0,0,1-.221.332.522.522,0,0,1-.311-.014Z" transform="translate(-233.936 -165.673)" fill="#263238"/>
      <path id="Path_1490" data-name="Path 1490" d="M304.448,204.767s3.726,1.366,3.118-4.643a99.044,99.044,0,0,1,.062-13.805s24.408,2.854,22.086-5.353c-1.242-4.534-6.434.259-6.434.259s2.273-5.271-1.031-6.336c-2.845-.915-3.925,4.1-3.925,4.1s-18.2-5.38-20.843,9.081S304.448,204.767,304.448,204.767Z" transform="translate(-239.563 -170.005)" fill="#263238"/>
      <path id="Path_1491" data-name="Path 1491" d="M297.338,176.058c-11.353,11.061-4.969,21.275-.783,25.945-2.112,3.045-7.192,10.924-5.143,13.273s6.1-7.278,7.515-10.924l.385.328s2.758-13.519,20.483-24.415C319.8,180.223,310.468,163.264,297.338,176.058Z" transform="translate(-241.037 -171.282)" fill="#407bff"/>
      <path id="Path_1492" data-name="Path 1492" d="M314.987,177.546a24.219,24.219,0,0,0-2.236-2.731,3.932,3.932,0,0,0-3.863.437c-3.267,2.1-1.988,4.807-.5,6.623A34.083,34.083,0,0,1,314.987,177.546Z" transform="translate(-237.184 -170.107)" fill="#263238"/>
      <path id="Path_1493" data-name="Path 1493" d="M292.679,179.25c-4.36,8.575.435,16,3.851,19.786l2.907-4.26a35.363,35.363,0,0,1-6.757-15.526Z" transform="translate(-241.036 -168.37)" fill="#fff" opacity="0.5"/>
      <path id="Path_1494" data-name="Path 1494" d="M326.619,189.21a3.58,3.58,0,0,0-3.031,3.5,1.847,1.847,0,0,0-2.087,0,3.964,3.964,0,0,0-4.052-3.461,4.084,4.084,0,0,0-3.624,3.993H299.9v.533h13.925a4.054,4.054,0,0,0,4,4.124,4.114,4.114,0,0,0,3.751-4.4v-.178a1.391,1.391,0,0,1,1.975,0v.164c0,2.362,1.391,4.274,3.093,4.274s3.093-1.912,3.093-4.274S328.321,189.21,326.619,189.21Zm-8.931,8.029a3.427,3.427,0,0,1-3.165-2.309,4.032,4.032,0,0,1,.732-4.1,3.2,3.2,0,0,1,3.724-.82,3.776,3.776,0,0,1,2.112,3.471,3.6,3.6,0,0,1-3.4,3.755Zm8.931,0c-1.441,0-2.609-1.68-2.609-3.755s1.168-3.742,2.609-3.742,2.621,1.68,2.621,3.742-1.18,3.755-2.621,3.755Z" transform="translate(-238.866 -164.73)" fill="#407bff"/>
      <path id="Path_1495" data-name="Path 1495" d="M326.619,189.21a3.58,3.58,0,0,0-3.031,3.5,1.847,1.847,0,0,0-2.087,0,3.964,3.964,0,0,0-4.052-3.461,4.084,4.084,0,0,0-3.624,3.993H299.9v.533h13.925a4.054,4.054,0,0,0,4,4.124,4.114,4.114,0,0,0,3.751-4.4v-.178a1.391,1.391,0,0,1,1.975,0v.164c0,2.362,1.391,4.274,3.093,4.274s3.093-1.912,3.093-4.274S328.321,189.21,326.619,189.21Zm-8.931,8.029a3.427,3.427,0,0,1-3.165-2.309,4.032,4.032,0,0,1,.732-4.1,3.2,3.2,0,0,1,3.724-.82,3.776,3.776,0,0,1,2.112,3.471,3.6,3.6,0,0,1-3.4,3.755Zm8.931,0c-1.441,0-2.609-1.68-2.609-3.755s1.168-3.742,2.609-3.742,2.621,1.68,2.621,3.742-1.18,3.755-2.621,3.755Z" transform="translate(-238.866 -164.73)" fill="#fff" opacity="0.5"/>
      <path id="Path_1496" data-name="Path 1496" d="M296.708,198.283a8.6,8.6,0,0,0,5.217,4.247c2.907.765,4.273-2.13,3.391-5.08-.8-2.649-3.254-6.254-6.136-5.694a3.953,3.953,0,0,0-2.835,2.532,4.594,4.594,0,0,0,.363,4Z" transform="translate(-239.798 -163.82)" fill="#ce7a63"/>
      <path id="Path_1497" data-name="Path 1497" d="M305.391,211.714c-3.192-3.673-8.621-4.206-13.03-3.072v.929c4.062.41,10.732,3.673,12.136,23.787,1.851,26.587-24.259,58.717-32.358,67.675a10.009,10.009,0,0,0-2.484,6.022l-.323,4.6a2.628,2.628,0,0,0,1.257,2.483,2.168,2.168,0,0,0,2.569-.312c11.005-10.064,39.749-39.709,39.749-75.1C312.844,224.209,309.267,216.152,305.391,211.714Z" transform="translate(-246.27 -157.821)" fill="#407bff"/>
      <path id="Path_1498" data-name="Path 1498" d="M305.391,211.714c-3.192-3.673-8.621-4.206-13.03-3.072v.929c4.062.41,10.732,3.673,12.136,23.787,1.851,26.587-24.259,58.717-32.358,67.675a10.009,10.009,0,0,0-2.484,6.022l-.323,4.6a2.628,2.628,0,0,0,1.257,2.483,2.168,2.168,0,0,0,2.569-.312c11.005-10.064,39.749-39.709,39.749-75.1C312.844,224.209,309.267,216.152,305.391,211.714Z" transform="translate(-246.27 -157.821)" opacity="0.5"/>
      <path id="Path_1499" data-name="Path 1499" d="M310.732,262.5a5.727,5.727,0,0,0-2.611-3.422,4.874,4.874,0,0,0-4.047-.388l-.248.082c-2.994,1.038-6.211,2.212-9.217,3.2s-6.111,1.939-9.068,2.635c-1.466.341-2.907.669-4.3.874-.907.123-1.776.218-2.6.259.112-.86.248-1.734.447-2.635a39.249,39.249,0,0,1,1.155-4.26c.435-1.447.981-2.922,1.565-4.4a94.17,94.17,0,0,1,4.136-8.849c.758-1.475,1.59-2.922,2.41-4.356l1.242-2.117.621-1.024.522-.847.4-.628a12.4,12.4,0,0,0-2.514-16,9.961,9.961,0,0,0-14.616,2.345L273,224.446l-.894,1.366c-.584.888-1.13,1.789-1.664,2.731-1.093,1.789-2.087,3.646-3.056,5.462s-1.838,3.81-2.7,5.776-1.64,4-2.335,6.1a65.818,65.818,0,0,0-3.168,13.45,47.473,47.473,0,0,0-.41,7.469,45.105,45.105,0,0,0,.907,7.92l.124.6a9.973,9.973,0,0,0,1.677,3.769,15.984,15.984,0,0,0,4.969,4.465,15.128,15.128,0,0,0,5.043,1.762,22.121,22.121,0,0,0,7.739-.15,33.665,33.665,0,0,0,6.062-1.693,55.628,55.628,0,0,0,5.329-2.294,80.383,80.383,0,0,0,9.577-5.626,85.96,85.96,0,0,0,8.7-6.746,6.2,6.2,0,0,0,1.838-6.309Z" transform="translate(-248.828 -154.057)" fill="#263238"/>
      <path id="Path_1500" data-name="Path 1500" d="M285.3,211.679c-16.931,9.8-24.3,31.912-24.3,31.912,3.3,7.019,19.552,12.617,27.129,10.583,0,0,11.179-12.358,12.757-25.385C302.327,216.8,295.221,205.876,285.3,211.679Z" transform="translate(-248.286 -157.103)" fill="#407bff"/>
      <g id="Group_38" data-name="Group 38" transform="translate(12.714 52.973)" opacity="0.2">
        <path id="Path_1501" data-name="Path 1501" d="M285.3,211.679c-16.931,9.8-24.3,31.912-24.3,31.912,3.3,7.019,19.552,12.617,27.129,10.583,0,0,11.179-12.358,12.757-25.385C302.327,216.8,295.221,205.876,285.3,211.679Z" transform="translate(-261 -210.075)"/>
      </g>
      <path id="Path_1502" data-name="Path 1502" d="M295.719,254.4l2.484,3.837c5.714,4.26,9.44-4.779,9.44-4.779l3.379-3.55a4.115,4.115,0,0,0,.186-4.957l-2.621-4.165a3.457,3.457,0,0,0-4.907-1.366l-3.379,2.526a7.721,7.721,0,0,0-2.323,2.895L295.5,250.1A4.533,4.533,0,0,0,295.719,254.4Z" transform="translate(-240.038 -146.57)" fill="#ce7a63"/>
      <path id="Path_1503" data-name="Path 1503" d="M345.291,266.778l.335-6.828a34.045,34.045,0,0,0-.571-8.193,83.575,83.575,0,0,0-18.26-38.235,3.819,3.819,0,0,0-2.025-1.229l-6.347-1.461a.473.473,0,0,0-.533.289.569.569,0,0,0,.123.639c5.664,4.889,23.253,22.531,26.831,55.017Z" transform="translate(-234.521 -156.83)" fill="#407bff"/>
      <path id="Path_1504" data-name="Path 1504" d="M345.291,266.778l.335-6.828a34.045,34.045,0,0,0-.571-8.193,83.575,83.575,0,0,0-18.26-38.235,3.819,3.819,0,0,0-2.025-1.229l-6.347-1.461a.473.473,0,0,0-.533.289.569.569,0,0,0,.123.639c5.664,4.889,23.253,22.531,26.831,55.017Z" transform="translate(-234.521 -156.83)" opacity="0.5"/>
      <path id="Path_1505" data-name="Path 1505" d="M351.614,254.4l-2.484,3.837c-5.726,4.26-9.44-4.779-9.44-4.779l-3.379-3.55a4.115,4.115,0,0,1-.186-4.957l2.621-4.165a3.457,3.457,0,0,1,4.906-1.366l3.379,2.526a7.721,7.721,0,0,1,2.323,2.895l2.484,5.257A4.533,4.533,0,0,1,351.614,254.4Z" transform="translate(-230.273 -146.57)" fill="#ce7a63"/>
    </g>
    <g id="freepik--character-4--inject-116" transform="translate(389.946 233.158)">
      <path id="Path_1506" data-name="Path 1506" d="M374.227,191.356s-18.086-2.158-12.074,11.279c0,0-13.925,2.731-3.95,15.758,0,0-12.881,9.436-2.882,15.444,0,0-8.7,19.322,8.757,12.167,0,0,7.763,14.352,18.3,1.366,0,0,17.018,11.607,17.639-1.366,0,0,13.813-1.625.956-14.324,0,0,5.379-4.1-.845-13.286,0,0,7.242-5.366-2.484-12.29,0,0,7.055-8.193-3.888-12.29,0,0,2.074-9.941-9.254-4.656C384.537,189.116,383.171,179.571,374.227,191.356Z" transform="translate(-304.823 -185.469)" fill="#263238"/>
      <path id="Path_1507" data-name="Path 1507" d="M354.1,247.125c-6.3,4.615-8.173,12.494-7.59,20.4.1,1.488,2.223,1.529,2.112,0-.509-7.005.87-14.27,6.521-18.421,1.118-.833.087-2.868-1.043-2.021Z" transform="translate(-306.061 -163.022)" fill="#407bff"/>
      <g id="Group_39" data-name="Group 39" transform="translate(40.348 83.86)" opacity="0.2">
        <path id="Path_1508" data-name="Path 1508" d="M354.1,247.125c-6.3,4.615-8.173,12.494-7.59,20.4.1,1.488,2.223,1.529,2.112,0-.509-7.005.87-14.27,6.521-18.421,1.118-.833.087-2.868-1.043-2.021Z" transform="translate(-346.409 -246.882)"/>
      </g>
      <path id="Path_1509" data-name="Path 1509" d="M368.216,227.2l16.148.246c6.718.087,12.275,5.776,12.831,13.136h0a354.862,354.862,0,0,1-.484,39.982,11.745,11.745,0,0,1-.149,1.434c-.89,7.119-6.469,12.391-13.005,12.29l-22.595-.341c-5.522-.039-10.4-3.954-12.123-9.722a3.454,3.454,0,0,0-.162-.669c-.981-5.039-1.242-15.731.248-20.633.82-2.731,5.279-6.609,6.087-9.34,1.242-4.219-1.379-13.655.224-17.752a19.322,19.322,0,0,1,4.161-5.121,12.334,12.334,0,0,1,8.819-3.509Z" transform="translate(-305.706 -170.217)" fill="#407bff"/>
      <path id="Path_1510" data-name="Path 1510" d="M368.216,227.2l16.148.246c6.718.087,12.275,5.776,12.831,13.136h0a354.862,354.862,0,0,1-.484,39.982,11.745,11.745,0,0,1-.149,1.434c-.89,7.119-6.469,12.391-13.005,12.29l-22.595-.341c-5.522-.039-10.4-3.954-12.123-9.722a3.454,3.454,0,0,0-.162-.669c-.981-5.039-1.242-15.731.248-20.633.82-2.731,5.279-6.609,6.087-9.34,1.242-4.219-1.379-13.655.224-17.752a19.322,19.322,0,0,1,4.161-5.121,12.334,12.334,0,0,1,8.819-3.509Z" transform="translate(-305.706 -170.217)" opacity="0.5"/>
      <path id="Path_1511" data-name="Path 1511" d="M361.755,229.556a2.185,2.185,0,0,0-.733-.7,12.005,12.005,0,0,0-1.627,1.366,19.321,19.321,0,0,0-4.161,5.121c-1.6,4.1,1.043,13.546-.224,17.752-.807,2.731-5.267,6.609-6.087,9.34-1.453,4.9-1.242,15.594-.248,20.633a3.108,3.108,0,0,0,.161.669,13.235,13.235,0,0,0,10.012,9.559,4.364,4.364,0,0,0,1.242-.86C361.966,290.281,364.177,233.544,361.755,229.556Z" transform="translate(-305.704 -169.609)" fill="#407bff"/>
      <path id="Path_1512" data-name="Path 1512" d="M361.755,229.556a2.185,2.185,0,0,0-.733-.7,12.005,12.005,0,0,0-1.627,1.366,19.321,19.321,0,0,0-4.161,5.121c-1.6,4.1,1.043,13.546-.224,17.752-.807,2.731-5.267,6.609-6.087,9.34-1.453,4.9-1.242,15.594-.248,20.633a3.108,3.108,0,0,0,.161.669,13.235,13.235,0,0,0,10.012,9.559,4.364,4.364,0,0,0,1.242-.86C361.966,290.281,364.177,233.544,361.755,229.556Z" transform="translate(-305.704 -169.609)" fill="#fff" opacity="0.2"/>
      <path id="Path_1513" data-name="Path 1513" d="M347.931,259.16a64.318,64.318,0,0,0,.745,12.822,3.112,3.112,0,0,0,.162.669,13.235,13.235,0,0,0,10.012,9.559,4.364,4.364,0,0,0,1.242-.86c.758-.833,1.565-10.31,2.112-21.671C356.2,262.1,350.1,260.061,347.931,259.16Z" transform="translate(-305.706 -158.534)" opacity="0.2"/>
      <path id="Path_1514" data-name="Path 1514" d="M373.12,409.119H381l3.23-20.059H376.35Z" transform="translate(-299.592 -111.053)" fill="#ffb573"/>
      <path id="Path_1515" data-name="Path 1515" d="M382.046,403H373.2a.656.656,0,0,0-.634.6l-1.006,7.688a1.458,1.458,0,0,0,.3,1.082,1.2,1.2,0,0,0,.941.461c3.081,0,4.571-.259,8.459-.259,2.4,0,9.266.273,12.583.273s3.478-3.591,2.1-3.919c-6.211-1.461-10.521-3.468-12.608-5.462a1.952,1.952,0,0,0-1.292-.464Z" transform="translate(-299.972 -105.958)" fill="#263238"/>
      <g id="Group_40" data-name="Group 40" transform="translate(75.093 278.021)" opacity="0.2">
        <path id="Path_1516" data-name="Path 1516" d="M383.92,389.07l-1.664,10.337H374.38l1.652-10.337Z" transform="translate(-374.38 -389.07)"/>
      </g>
      <path id="Path_1517" data-name="Path 1517" d="M395.027,261s6.211,66.706,5.689,93.1c-.534,27.474-16.074,90.124-16.074,90.124H373.985s8.074-61.039,7.13-88.008c-1.019-29.413-9.515-95.2-9.515-95.2Z" transform="translate(-299.96 -157.861)" fill="#263238"/>
      <path id="Path_1518" data-name="Path 1518" d="M372.894,396.8h12.5l.919-4.383-14-.532Z" transform="translate(-299.788 -110.022)" fill="#407bff"/>
      <path id="Path_1519" data-name="Path 1519" d="M380.7,274.253c7.85,17.383,1.578,49.077-1.242,60.875-1.428-17.752-3.826-39.368-5.7-55.263C374.99,270.867,377.077,266.251,380.7,274.253Z" transform="translate(-299.437 -154.523)" opacity="0.6"/>
      <path id="Path_1520" data-name="Path 1520" d="M317.86,348.035l2.658,8.152,18.148-3.755-2.658-8.152Z" transform="translate(-312.974 -127.421)" fill="#ffb573"/>
      <path id="Path_1521" data-name="Path 1521" d="M323.62,356.42,323,346.711a.8.8,0,0,0-.584-.724l-7.155-1.57a1.036,1.036,0,0,0-.962.28,1.28,1.28,0,0,0-.367,1.017c.273,3.387.559,5.025.832,9.3.161,2.622.4,10.146.621,13.778s3.54,4.028,3.726,2.54c.907-6.691,2.484-11.334,4.062-13.505a2.222,2.222,0,0,0,.447-1.406Z" transform="translate(-313.926 -127.381)" fill="#263238"/>
      <g id="Group_41" data-name="Group 41" transform="translate(13.681 216.845)" opacity="0.2">
        <path id="Path_1522" data-name="Path 1522" d="M336.952,352.436l-9.353,1.939-2.658-8.152,9.353-1.953Z" transform="translate(-324.94 -344.27)"/>
      </g>
      <path id="Path_1523" data-name="Path 1523" d="M397.256,261.281s-8.7,68.836-14.657,94.726c-6.211,26.942-52.1,29.236-52.1,29.236l-4.683-10.514s26.818-7.852,38.408-25.576c2.994-17.383,2.969-45.472,4.77-65.2a101.906,101.906,0,0,1,2.869-16.291,36.994,36.994,0,0,1,2.932-7.428Z" transform="translate(-311.046 -158.143)" fill="#263238"/>
      <path id="Path_1524" data-name="Path 1524" d="M325.39,343.791l4.1,12.986,4.236.041-4.112-14.638Z" transform="translate(-311.15 -128.189)" fill="#407bff"/>
      <path id="Path_1525" data-name="Path 1525" d="M320.784,356.264a3.751,3.751,0,0,0,.621,2.13,1.191,1.191,0,0,0,.932.437.553.553,0,0,0,.484-.314c.46-1.024-1.379-4.575-1.59-4.984a.233.233,0,0,0-.2-.123.183.183,0,0,0-.149.164,15.356,15.356,0,0,0-.1,2.69Zm1.739,1.652a1.079,1.079,0,0,1,0,.382.22.22,0,0,1-.2.123.716.716,0,0,1-.609-.287,6.11,6.11,0,0,1-.46-3.864,13.548,13.548,0,0,1,1.267,3.646Z" transform="translate(-312.271 -124.084)" fill="#407bff"/>
      <path id="Path_1526" data-name="Path 1526" d="M320.861,353.613v.082c.5,1.051,2.335,3.209,3.217,3.1.211,0,.472-.164.484-.737a1.734,1.734,0,0,0-.4-1.147,5.685,5.685,0,0,0-3.13-1.488.143.143,0,0,0-.161.068.208.208,0,0,0-.012.123Zm3.354,2.267V356c0,.369-.149.382-.2.382-.522.068-1.963-1.366-2.609-2.5a4.868,4.868,0,0,1,2.484,1.27,1.265,1.265,0,0,1,.323.724Z" transform="translate(-312.248 -124.082)" fill="#407bff"/>
      <path id="Path_1527" data-name="Path 1527" d="M382.841,404.706a2.72,2.72,0,0,0,1.913-.533,1.168,1.168,0,0,0,.335-1,.637.637,0,0,0-.311-.546c-.969-.574-4.112,1.188-4.459,1.366a.2.2,0,0,0-.1.2.212.212,0,0,0,.149.178A12.956,12.956,0,0,0,382.841,404.706Zm1.4-1.789a.631.631,0,0,1,.348.082.235.235,0,0,1,.124.219.8.8,0,0,1-.211.655c-.484.464-1.776.56-3.515.232a9.413,9.413,0,0,1,3.254-1.188Z" transform="translate(-297.873 -106.135)" fill="#407bff"/>
      <path id="Path_1528" data-name="Path 1528" d="M380.406,404.948h.075c.932-.478,2.795-2.335,2.646-3.318,0-.232-.186-.519-.7-.587a1.275,1.275,0,0,0-1.031.355,6.057,6.057,0,0,0-1.18,3.345.2.2,0,0,0,.075.178Zm1.876-3.509h.149c.335,0,.36.191.373.246.087.587-1.18,2.048-2.137,2.731a5.033,5.033,0,0,1,1.006-2.731A.941.941,0,0,1,382.282,401.438Z" transform="translate(-297.873 -106.676)" fill="#407bff"/>
      <path id="Path_1529" data-name="Path 1529" d="M398.181,231.31c0,1-.075,2.212-.1,3.332s0,2.308,0,3.455c0,2.308.075,4.629.211,6.923a114.567,114.567,0,0,0,1.466,13.655l.323,1.666.161.819v.178c0,.055-.075.15.286.464a9.368,9.368,0,0,0,4.484,1.243,57.89,57.89,0,0,0,12.335-.751l1.379,5.011a41.151,41.151,0,0,1-13.664,3.905,15.179,15.179,0,0,1-8.4-1.365,9.639,9.639,0,0,1-2.385-1.775,9.759,9.759,0,0,1-1.9-2.786c-.1-.259-.211-.533-.311-.806l-.124-.4-.1-.341-.248-.928-.484-1.871a97.718,97.718,0,0,1-2.385-15.021c-.2-2.526-.335-5.052-.348-7.592v-3.81c0-1.284.087-2.5.2-3.919Z" transform="translate(-295.897 -168.973)" fill="#ffb573"/>
      <path id="Path_1530" data-name="Path 1530" d="M410.982,254.8l6.211-2.349-2.484,8.357s-4.969,1-7.018-1.816l.273-.792A5.389,5.389,0,0,1,410.982,254.8Z" transform="translate(-291.221 -160.987)" fill="#ffb573"/>
      <path id="Path_1531" data-name="Path 1531" d="M421.57,253.5l-1.13,7.278-7.18.027,2.534-8.357Z" transform="translate(-289.872 -160.987)" fill="#ffb573"/>
      <path id="Path_1532" data-name="Path 1532" d="M396.793,223.874c3.081,1.447,3.317,16.386,3.317,16.386l-9.763,5.134s-6.447-16.072-3.441-19.527S392.284,221.757,396.793,223.874Z" transform="translate(-296.447 -171.874)" fill="#407bff"/>
      <path id="Path_1533" data-name="Path 1533" d="M396.793,223.874c3.081,1.447,3.317,16.386,3.317,16.386l-9.763,5.134s-6.447-16.072-3.441-19.527S392.284,221.757,396.793,223.874Z" transform="translate(-296.447 -171.874)" fill="#fff" opacity="0.7"/>
      <path id="Path_1534" data-name="Path 1534" d="M394.786,225.66l1.192,14.993-5.329,3.2Z" transform="translate(-295.347 -170.779)" opacity="0.2"/>
      <path id="Path_1535" data-name="Path 1535" d="M402.455,227.279c.348,5.353-.137,18.107-4.608,48.38h-32c.522-13.723-.236-20.483-5.788-46.919a4.174,4.174,0,0,1,2.435-4.834,39.329,39.329,0,0,1,11.3-2.731,93.816,93.816,0,0,1,14.533,0c3.789.382,7.888,1.12,10.521,1.639A4.741,4.741,0,0,1,402.455,227.279Z" transform="translate(-302.78 -172.521)" fill="#407bff"/>
      <path id="Path_1536" data-name="Path 1536" d="M371.682,221.174a18.024,18.024,0,0,0-2.931.341c-.41,1.516-.795,5.585,4.832,10.173,0,0,1.963-4.93,12.21-1.051,0,0,4.149-4.356,6.559-.942a11.372,11.372,0,0,0-3.565-8.193c-.857-.123-1.727-.219-2.571-.314a93.8,93.8,0,0,0-14.533-.014Z" transform="translate(-300.701 -172.519)" fill="#fff" opacity="0.9"/>
      <path id="Path_1537" data-name="Path 1537" d="M371.453,221.19a88.8,88.8,0,0,1,14.521,0l.944.1c1.168,2.417,1.453,2.963-1.317,8.412,0,0-12.745-2.472-16.061-8.371C370.111,221.258,370.807,221.217,371.453,221.19Z" transform="translate(-300.459 -172.522)" fill="#ffb573"/>
      <path id="Path_1538" data-name="Path 1538" d="M372.511,207.94c.919,5.134,1.838,14.543-1.441,17.97,0,0,1.242,5.216,9.937,5.216,9.552,0,4.571-5.216,4.571-5.216-5.217-1.365-5.08-5.612-4.174-9.559Z" transform="translate(-300.089 -177.256)" fill="#ffb573"/>
      <path id="Path_1539" data-name="Path 1539" d="M375.2,210.44l5.279,4.943a17.531,17.531,0,0,0-.447,2.84c-2-.314-4.733-2.731-4.969-5.011a8.447,8.447,0,0,1,.137-2.772Z" transform="translate(-299.136 -176.342)" opacity="0.2"/>
      <path id="Path_1540" data-name="Path 1540" d="M368.23,205.309c1.789,8.357,2.385,11.948,6.931,15.553,6.857,5.462,15.825,1.2,16.347-7.579.472-7.906-2.484-20.264-10.571-22.217a10.055,10.055,0,0,0-9.963,3.229A12.539,12.539,0,0,0,368.23,205.309Z" transform="translate(-300.851 -183.528)" fill="#ffb573"/>
      <path id="Path_1541" data-name="Path 1541" d="M381,189.78c3.093.587,7.018,5.64,7.838,7.688-4.633-.929-17.39,3.414-17.39,3.414s-5.714-.71-2.484-5.558S381,189.78,381,189.78Z" transform="translate(-300.838 -183.894)" fill="#263238"/>
      <path id="Path_1542" data-name="Path 1542" d="M379.01,201.751c.1.683.522,1.188.932,1.106s.658-.7.547-1.366-.522-1.188-.932-1.12S378.836,201.054,379.01,201.751Z" transform="translate(-298.178 -180.024)" fill="#263238"/>
      <path id="Path_1543" data-name="Path 1543" d="M384.405,200.777c.1.683.522,1.188.932,1.106s.658-.7.547-1.365-.522-1.174-.932-1.106S384.293,200.081,384.405,200.777Z" transform="translate(-296.866 -180.375)" fill="#263238"/>
      <path id="Path_1544" data-name="Path 1544" d="M384.7,199.655l1.428-.765S385.557,200.324,384.7,199.655Z" transform="translate(-296.788 -180.564)" fill="#263238"/>
      <path id="Path_1545" data-name="Path 1545" d="M382.93,201.62a18.452,18.452,0,0,0,2.907,3.974,2.608,2.608,0,0,1-2.161.874Z" transform="translate(-297.217 -179.566)" fill="#ed893e"/>
      <path id="Path_1546" data-name="Path 1546" d="M382.864,208.623a4.535,4.535,0,0,0,.932-.1.186.186,0,0,0,.175-.122.22.22,0,0,0-.035-.224.175.175,0,0,0-.2-.05,4.738,4.738,0,0,1-4.372-1.365.174.174,0,0,0-.261,0,.22.22,0,0,0,0,.287,4.926,4.926,0,0,0,3.764,1.57Z" transform="translate(-298.157 -177.707)" fill="#263238"/>
      <path id="Path_1547" data-name="Path 1547" d="M375.914,201.6a.39.39,0,0,0,.36-.287,4.613,4.613,0,0,1,2.633-2.608.371.371,0,0,0,.215-.2.431.431,0,0,0,.021-.307.4.4,0,0,0-.184-.246.343.343,0,0,0-.288-.027,5.361,5.361,0,0,0-3.118,3.141.431.431,0,0,0,.026.311.368.368,0,0,0,.223.194Z" transform="translate(-299.007 -180.924)" fill="#263238"/>
      <path id="Path_1548" data-name="Path 1548" d="M385.853,198.605a.369.369,0,0,0,.335-.15.424.424,0,0,0,.082-.3.406.406,0,0,0-.144-.272,3.474,3.474,0,0,0-3.317-.806.42.42,0,0,0-.236.519.367.367,0,0,0,.472.259h0a2.782,2.782,0,0,1,2.621.669Z" transform="translate(-297.308 -181.276)" fill="#263238"/>
      <path id="Path_1549" data-name="Path 1549" d="M379.25,200.625l1.428-.765S380.107,201.294,379.25,200.625Z" transform="translate(-298.108 -180.209)" fill="#263238"/>
      <path id="Path_1550" data-name="Path 1550" d="M390.083,243.057l-4.969-12.372s3.826,5.79,5.18,3.55c1.13-1.871-4.161-4.615-5.863-5.462a.92.92,0,0,0-.981.123c-1.863,1.488-8.571,7.265-5.528,10.528,3.528,3.755,5.329-9.408,5.329-9.408l-.87,14.516,1.59.683.186-14.475L388.89,244.5Zm-.509-9.367c-.571.778-3.317-3.045-3.317-3.045S390.157,232.911,389.574,233.69Zm-10.968,4.452c-1.341-2.472,3.726-7.142,3.726-7.142S379.947,240.613,378.605,238.141Z" transform="translate(-298.618 -169.673)" fill="#263238"/>
      <path id="Path_1551" data-name="Path 1551" d="M393.408,201.27c-.4-2.308-2.074-3.919-3.726-3.578a3.73,3.73,0,0,0-2.41,4.028,1.863,1.863,0,0,0-2.05.41,3.807,3.807,0,0,0-4.549-2.564,4.257,4.257,0,0,0-2.9,4.626L369.36,205.9v.533l8.471-1.721a3.893,3.893,0,0,0,4.615,3.257,4.281,4.281,0,0,0,2.963-5.073v-.177a1.39,1.39,0,0,1,1.938-.369v.164c.385,2.321,2.074,3.919,3.726,3.578S393.756,203.591,393.408,201.27Zm-11.179,6.09a3.441,3.441,0,0,1-3.962-3A3.732,3.732,0,0,1,381,200a3.441,3.441,0,0,1,3.962,3,3.742,3.742,0,0,1-2.758,4.356Zm8.782-1.789c-1.416.287-2.857-1.12-3.192-3.154s.534-3.919,1.95-4.206,2.845,1.133,3.192,3.154-.559,3.919-1.975,4.206Z" transform="translate(-300.503 -181.018)" fill="#407bff"/>
      <path id="Path_1552" data-name="Path 1552" d="M371.886,196.3c2.758,2.321,1.553,10.747-1.876,13.327C364.669,208.22,363.651,189.362,371.886,196.3Z" transform="translate(-301.352 -182.069)" fill="#263238"/>
      <path id="Path_1553" data-name="Path 1553" d="M367.545,208.555a5.875,5.875,0,0,0,3.478,2.909c1.938.546,2.869-1.366,2.286-3.359s-2.149-4.233-4.074-3.905a2.632,2.632,0,0,0-1.918,1.675,3.068,3.068,0,0,0,.229,2.681Z" transform="translate(-301.048 -178.635)" fill="#ffb573"/>
      <path id="Path_1554" data-name="Path 1554" d="M426.595,259.978l-10.658-11.7a20.755,20.755,0,0,1-5.254-13.956H400.1a20.755,20.755,0,0,1-5.254,13.956l-10.645,11.7Z" transform="translate(-296.909 -167.613)" fill="#263238"/>
      <path id="Path_1555" data-name="Path 1555" d="M421.811,256.564c-4.385-.642-8.472-11.58-10.459-11.32s4.807,9.559,2.037,9.559-4.385-3.578-5.528-3.441-2.82,3.96-4.745,3.687-.658-5.462-1.677-5.544-2.832,6.4-5.068,5.667,3.726-11.088,2.546-11.484-3.913,3.755-6.149,8.507a8.779,8.779,0,0,1-4.049,4.3Z" transform="translate(-295.815 -164.199)" fill="#fff" opacity="0.2"/>
      <path id="Path_1556" data-name="Path 1556" d="M401.608,242.632c-1.5-.232-2.559,4.219-1.056,4.793S403.111,242.864,401.608,242.632Z" transform="translate(-293.126 -164.578)" fill="#fff" opacity="0.2"/>
      <path id="Path_1557" data-name="Path 1557" d="M396.589,235.06s-.484-1.8,3.279-1.8,8.509-.41,8.509,1.8-.373,2.431.273,3.946-2.074-.109-2.385-2.035-1.963.929-1.689,3.837-1.838,3.2-2.037-1.106-2.149-4.3-2.2-2.553-1.428,2.267-2.112.41,0,3.905-1.242,3.427S396.526,237.614,396.589,235.06Z" transform="translate(-293.982 -168.013)" fill="#407bff"/>
      <path id="Path_1558" data-name="Path 1558" d="M407.028,234.1c0-.246-.286-.437-.6-.587a35.519,35.519,0,0,0-6.782-.246,7.682,7.682,0,0,0-1.64.15c-.373.178-.857.492-.82.86C397.24,234.892,407.152,234.946,407.028,234.1Z" transform="translate(-293.764 -168.021)" opacity="0.2"/>
      <rect id="Rectangle_152" data-name="Rectangle 152" width="58.332" height="3.892" transform="translate(77.664 91.668)" fill="#407bff"/>
      <rect id="Rectangle_153" data-name="Rectangle 153" width="58.332" height="3.892" transform="translate(77.664 91.668)" fill="#fff" opacity="0.5"/>
      <rect id="Rectangle_154" data-name="Rectangle 154" width="29.166" height="3.892" transform="translate(77.664 91.668)" opacity="0.3"/>
      <path id="Path_1559" data-name="Path 1559" d="M365.045,223.42c4.285,3.291,16.819,17-5.726,53.692a4.893,4.893,0,0,0-.683,2.035l-.335,3.468a.8.8,0,0,0,.453.735.675.675,0,0,0,.789-.189c4.5-6.95,17.179-27.638,17.179-40.679S372.51,224.048,369.84,222a3.7,3.7,0,0,0-3.838-.437l-.87.4a.853.853,0,0,0-.426.7.877.877,0,0,0,.339.758Z" transform="translate(-303.181 -172.403)" fill="#407bff"/>
      <path id="Path_1560" data-name="Path 1560" d="M365.045,223.42c4.285,3.291,16.819,17-5.726,53.692a4.893,4.893,0,0,0-.683,2.035l-.335,3.468a.8.8,0,0,0,.453.735.675.675,0,0,0,.789-.189c4.5-6.95,17.179-27.638,17.179-40.679S372.51,224.048,369.84,222a3.7,3.7,0,0,0-3.838-.437l-.87.4a.853.853,0,0,0-.426.7.877.877,0,0,0,.339.758Z" transform="translate(-303.181 -172.403)" opacity="0.5"/>
      <path id="Path_1561" data-name="Path 1561" d="M378.12,262.07a37.025,37.025,0,0,1-5.962-1.871,8.068,8.068,0,0,1-1.925-1.079V258.9a97.246,97.246,0,0,1-.907-14.038c0-2.4,0-4.82.112-7.237s.211-4.889.348-7.169l-9.577-1.038c-.273,2.731-.36,5.244-.46,7.865s0,5.189,0,7.811a84.713,84.713,0,0,0,1.913,15.867l.112.492.062.259a2.467,2.467,0,0,0,.174.642,7.773,7.773,0,0,0,1.068,2.13,8.816,8.816,0,0,0,2.422,2.335,15.2,15.2,0,0,0,4.174,1.857,36.413,36.413,0,0,0,7.453,1.366,73.141,73.141,0,0,0,14.161-.246v-5.23C386.852,263.831,382.356,263.08,378.12,262.07Z" transform="translate(-302.841 -169.404)" fill="#ffb573"/>
      <path id="Path_1562" data-name="Path 1562" d="M357.609,225.312c-1.6,3.236,0,17.52,0,17.52l15.167,2.13s.969-14.256-2.174-17.561S359.435,221.625,357.609,225.312Z" transform="translate(-303.521 -171.577)" fill="#407bff"/>
      <g id="Group_42" data-name="Group 42" transform="translate(53.376 51.898)" opacity="0.7">
        <path id="Path_1563" data-name="Path 1563" d="M357.609,225.312c-1.6,3.236,0,17.52,0,17.52l15.167,2.13s.969-14.256-2.174-17.561S359.435,221.625,357.609,225.312Z" transform="translate(-356.897 -223.475)" fill="#fff"/>
      </g>
      <path id="Path_1564" data-name="Path 1564" d="M382.839,256.677l7.59-4.247-1.826,8.575s-4.869,1.5-7.142-1.092Z" transform="translate(-297.573 -160.994)" fill="#ffb573"/>
      <path id="Path_1565" data-name="Path 1565" d="M395.532,253.836l-1.876,7.087-6.447.082,1.826-8.575Z" transform="translate(-296.18 -160.994)" fill="#ffb573"/>
      <path id="Path_1566" data-name="Path 1566" d="M386.084,222.078a52.957,52.957,0,0,1,8.546,27.665.237.237,0,1,0,.472,0l1.118-5.749v-.328c0-1.366,0-9.777-6.211-21.739a.448.448,0,0,0-.335-.246l-3.2-.41a.424.424,0,0,0-.46.248.514.514,0,0,0,.075.557Z" transform="translate(-296.483 -172.385)" fill="#407bff"/>
      <path id="Path_1567" data-name="Path 1567" d="M386.084,222.078a52.957,52.957,0,0,1,8.546,27.665.237.237,0,1,0,.472,0l1.118-5.749v-.328c0-1.366,0-9.777-6.211-21.739a.448.448,0,0,0-.335-.246l-3.2-.41a.424.424,0,0,0-.46.248.514.514,0,0,0,.075.557Z" transform="translate(-296.483 -172.385)" opacity="0.5"/>
    </g>
    <g id="freepik--character-2--inject-116" transform="translate(194.433 220.392)">
      <path id="Path_1568" data-name="Path 1568" d="M234.814,259.676c1.354-13.423,1.963-20.483-2.546-28.225s-5.664-51.739-34.78-44.475c-6.385,1.6-15.49,3.018-11.85,25.672s-8.062,19.117-1.242,30.806-11.179,25.112-2.161,37.879-7.552,21.766-1.54,28.1a60.1,60.1,0,0,1,7.13-3.031c-.584-1.133-.956-3.127.211-6.486,2.161-6.213,5.764-13.737,1.441-20.81,0,0,5.888,2.171,3.18,16.386-.882,4.67-.82,7.579-.335,9.381a70.907,70.907,0,0,1,6.931-1.6,9.456,9.456,0,0,1-1.081-4.984c.323-5.189,2.373-7.306,2.124-11.47,0,0,2.174,6.022,1.081,9.723a8.278,8.278,0,0,0,.72,6.309,41.781,41.781,0,0,1,19.328,1.775c18.918,6.828,24.234-11.088,24.234-11.088S233.5,273.085,234.814,259.676Z" transform="translate(-151.004 -172.447)" fill="#263238"/>
      <path id="Path_1569" data-name="Path 1569" d="M225.82,232.45l-.1.765-.1,1.038c0,.7-.1,1.366-.1,2.13a29.358,29.358,0,0,0,.236,4.315,25.537,25.537,0,0,0,4.5,11.716c.4.587.845,1.133,1.242,1.693l.7.806.621.778a17.113,17.113,0,0,0,2.236,2.349,6.494,6.494,0,0,0,.882.655,2.568,2.568,0,0,0,.472.219l.261.068h.112v.123a2.524,2.524,0,0,1,2.607-.967,2.786,2.786,0,0,1,1.99,2.089,3.115,3.115,0,0,1-.758,2.907l-.46.587c-.124.164-.248.3-.373.437a10.632,10.632,0,0,1-.807.724,7.692,7.692,0,0,1-1.838,1.01,8.386,8.386,0,0,1-3.938.437,14.04,14.04,0,0,1-6.273-2.649c-.422-.314-.832-.628-1.242-.956l-1.068-1.038a25.072,25.072,0,0,1-2.025-2.212,34.072,34.072,0,0,1-3.478-5.08,35.525,35.525,0,0,1-4.037-11.948,38.43,38.43,0,0,1-.435-6.322q.019-1.6.186-3.2a10.393,10.393,0,0,1,.2-1.611l.149-.847.087-.437.124-.574a5.352,5.352,0,0,1,6.189-4.415,5.829,5.829,0,0,1,4.27,6.613Z" transform="translate(-142.458 -158.275)" fill="#b55b52"/>
      <path id="Path_1570" data-name="Path 1570" d="M241.246,249.6l-.36,2.5a2.941,2.941,0,0,1-1.453,2.171l-3.627,1.98a4.573,4.573,0,0,1-4.584-.068l-.882-.519c.348-4.192,3.515-8.453,3.515-8.453l.783-1.366a2.259,2.259,0,0,1,1.4-1.1,2.067,2.067,0,0,1,1.7.313l2.4,1.666a2.966,2.966,0,0,1,1.118,2.881Z" transform="translate(-138.655 -151.062)" fill="#b55b52"/>
      <path id="Path_1571" data-name="Path 1571" d="M217.576,222.26c7.267.6,10.745,6.377,14.173,19.554-2.571,4.465-12.943,7.8-12.943,7.8S212.023,230.1,217.576,222.26Z" transform="translate(-142.275 -159.255)" fill="#407bff"/>
      <path id="Path_1572" data-name="Path 1572" d="M217.576,222.26c7.267.6,10.745,6.377,14.173,19.554-2.571,4.465-12.943,7.8-12.943,7.8S212.023,230.1,217.576,222.26Z" transform="translate(-142.275 -159.255)" fill="#fff" opacity="0.7"/>
      <path id="Path_1573" data-name="Path 1573" d="M265.871,408.891c-6.323,1.871-7.18,2.007-10.757,2.936-3.068.778-3.726,1.366-6.149,2.076-2.062.56-2.484-1.611-2.484-4.274,0-1.365-.149-4.1-.211-6.227l9.08-3.482c1.975,2.349,5.863,5.366,9.552,4.834S268.393,408.14,265.871,408.891Z" transform="translate(-134.797 -94.317)" fill="#263238"/>
      <path id="Path_1574" data-name="Path 1574" d="M211.389,279.89c-4.894,21-8.024,20.032,16.794,84.744C222.358,397.2,255.2,454.28,255.2,454.28c3.155.137,8.7-.792,9.937-2.171-5.664-18.694-16.583-65.436-19.651-95.668-2.907-28.8-7.627-66.2-10.248-88.253-.273-2.2-1.019-8.808-1.019-8.808l-21.713,6.309S212.184,276.435,211.389,279.89Z" transform="translate(-144.063 -145.687)" fill="#407bff"/>
      <g id="Group_43" data-name="Group 43" transform="translate(63.945 113.693)" opacity="0.3">
        <path id="Path_1575" data-name="Path 1575" d="M211.389,279.89c-4.894,21-8.024,20.032,16.794,84.744C222.358,397.2,255.2,454.28,255.2,454.28c3.155.137,8.7-.792,9.937-2.171-5.664-18.694-16.583-65.436-19.651-95.668-2.907-28.8-7.627-66.2-10.248-88.253-.273-2.2-1.019-8.808-1.019-8.808l-21.713,6.309S212.184,276.435,211.389,279.89Z" transform="translate(-208.008 -259.38)"/>
      </g>
      <path id="Path_1576" data-name="Path 1576" d="M209.34,301.148c2.186,9.395,6.832,22.927,15.353,45.431,3.975-36.992-3.354-60.479-3.354-60.479H211.4Z" transform="translate(-143.74 -135.92)" opacity="0.2"/>
      <path id="Path_1577" data-name="Path 1577" d="M255.277,394.831c.6,1.639,1.677,4.479,2.683,6.568a1.646,1.646,0,0,1-.124,1.939c-3.553,2.731-9.763,3.523-11.751,3.714a1.266,1.266,0,0,1-1.056-.888l-2.758-6.049c-.373-.833-.236-1.762.273-1.966l11.465-4.329C254.407,393.643,255,394.08,255.277,394.831Z" transform="translate(-135.817 -96.561)" fill="#407bff"/>
      <path id="Path_1578" data-name="Path 1578" d="M164.567,401.255A76.866,76.866,0,0,1,159.1,385.7c-.894-3.264-1.416-2.731-2.484-5.995a3.557,3.557,0,0,1,.593-2.891,2.9,2.9,0,0,1,2.463-1.206,24.7,24.7,0,0,0,5.105.178l4.757,7.183c-2.1,2.731-3.341,12.385-1.242,17.274C169.7,403.782,165.809,403.727,164.567,401.255Z" transform="translate(-156.529 -103.204)" fill="#263238"/>
      <path id="Path_1579" data-name="Path 1579" d="M233.764,284.305s.87,62.582-3.031,83.952c-3.826,20.892-63.834,56.9-63.834,56.9-1.342.491-3.938-7.183-3.726-8.862,18.049-19.322,35.352-51.384,48.953-55.809-13.415-52.791-10.72-62.814-2.012-80.661,1.987-4.1,1.043-13.327,1.043-13.327L233.9,264Z" transform="translate(-154.923 -143.998)" fill="#407bff"/>
      <g id="Group_44" data-name="Group 44" transform="translate(8.237 120.002)" opacity="0.3">
        <path id="Path_1580" data-name="Path 1580" d="M233.764,284.305s.87,62.582-3.031,83.952c-3.826,20.892-63.834,56.9-63.834,56.9-1.342.491-3.938-7.183-3.726-8.862,18.049-19.322,35.352-51.384,48.953-55.809-13.415-52.791-10.72-62.814-2.012-80.661,1.987-4.1,1.043-13.327,1.043-13.327L233.9,264Z" transform="translate(-163.16 -264)"/>
      </g>
      <path id="Path_1581" data-name="Path 1581" d="M174.484,381.914c-1.391,1.092-3.876,3.031-5.677,4.506-.6.492-1.242.6-1.627.287-2.335-2.431-4.472-7.483-5.143-9.163a1.3,1.3,0,0,1,.509-1.243l4.7-4.4c.646-.6,1.515-.765,1.8-.341l6.062,8.876C175.353,380.808,175.092,381.45,174.484,381.914Z" transform="translate(-155.204 -104.768)" fill="#407bff"/>
      <path id="Path_1582" data-name="Path 1582" d="M234.729,235.652a126.282,126.282,0,0,1,2.31,15.635c.832,7.661,1.441,15.239,2.236,27.9l-34.88,6.077c-.857-10.924-3.726-23.036-13.54-46.25a9.866,9.866,0,0,1-.161-7.887,8.472,8.472,0,0,1,5.527-5.031c1.354-.4,2.807-.778,4.3-1.12a104.691,104.691,0,0,1,15.838-2.731c1.739-.123,3.565-.191,5.3-.232C227.91,221.915,233.6,228.906,234.729,235.652Z" transform="translate(-148.435 -159.347)" fill="#407bff"/>
      <path id="Path_1583" data-name="Path 1583" d="M197,209.72c2.186,5.366,5.354,15.335,2.584,19.65,0,0,4.708-1.639,15.962,3.55,2.3-5.189-.124-6.309-.124-6.309-6-.478-6.832-5.08-6.77-9.559Z" transform="translate(-146.728 -163.839)" fill="#b55b52"/>
      <path id="Path_1584" data-name="Path 1584" d="M213.145,227.243c-3.292,1.106-3.54,6.828-3.54,6.828s-9.018-4.889-12.235-8.89a35.083,35.083,0,0,0,2.671-2.581S210.872,225.386,213.145,227.243Z" transform="translate(-146.639 -159.131)" fill="#fff"/>
      <path id="Path_1585" data-name="Path 1585" d="M213.069,226.375s3.031.355,4.745,4.684c-.41-8.3-4.074-9.094-4.074-9.094a4.027,4.027,0,0,0-3.13,0,4.06,4.06,0,0,1,2.46,4.411Z" transform="translate(-143.433 -159.479)" fill="#fff"/>
      <path id="Path_1586" data-name="Path 1586" d="M200.86,211.91l6.906,4.342a18.864,18.864,0,0,0,.161,3.141c-2.236,0-5.776-2.035-6.534-4.465a9.476,9.476,0,0,1-.534-3.018Z" transform="translate(-145.794 -163.038)" opacity="0.2"/>
      <path id="Path_1587" data-name="Path 1587" d="M192.731,206.365c2.807,8.63,3.826,12.29,9.055,15.8,7.863,5.2,16.906.15,16.508-9.067-.348-8.3-4.869-21.015-13.664-22.5a10.163,10.163,0,0,0-10.164,4.044,12.663,12.663,0,0,0-1.736,11.728Z" transform="translate(-147.937 -170.902)" fill="#b55b52"/>
      <path id="Path_1588" data-name="Path 1588" d="M206.36,201.48a21.5,21.5,0,0,0,3.726,4.1,2.7,2.7,0,0,1-2.223,1.106Z" transform="translate(-144.462 -166.85)" fill="#a02724"/>
      <path id="Path_1589" data-name="Path 1589" d="M206.462,208.894a5.968,5.968,0,0,0,1.13-.246.191.191,0,0,0,.118-.106.224.224,0,0,0,.007-.167.22.22,0,0,0-.261-.15,5.307,5.307,0,0,1-4.969-.929.2.2,0,0,0-.286,0,.234.234,0,0,0,0,.314A5.737,5.737,0,0,0,206.462,208.894Z" transform="translate(-145.483 -164.747)" fill="#263238"/>
      <path id="Path_1590" data-name="Path 1590" d="M201.6,202.672c.236.724.783,1.2,1.242,1.079s.584-.833.348-1.557-.77-1.2-1.242-1.079S201.367,201.948,201.6,202.672Z" transform="translate(-145.643 -166.991)" fill="#263238"/>
      <path id="Path_1591" data-name="Path 1591" d="M208.258,200.573c.236.724.783,1.2,1.242,1.065s.584-.833.348-1.557-.77-1.2-1.242-1.065S207.972,199.849,208.258,200.573Z" transform="translate(-144.037 -167.76)" fill="#263238"/>
      <path id="Path_1592" data-name="Path 1592" d="M208.37,199.343l1.416-.983S209.413,199.958,208.37,199.343Z" transform="translate(-143.975 -167.991)" fill="#263238"/>
      <path id="Path_1593" data-name="Path 1593" d="M199.8,200.324a.346.346,0,0,0,.2-.246,3.235,3.235,0,0,1,1.95-2.28.38.38,0,0,0,.237-.2.446.446,0,0,0,.024-.329.416.416,0,0,0-.522-.3,3.95,3.95,0,0,0-2.484,2.84.457.457,0,0,0,.286.546.4.4,0,0,0,.311-.027Z" transform="translate(-146.198 -168.508)" fill="#263238"/>
      <path id="Path_1594" data-name="Path 1594" d="M210.471,197.148a.359.359,0,0,0,.273-.137.483.483,0,0,0,0-.628,4.041,4.041,0,0,0-3.64-1.174.38.38,0,0,0-.237.2.446.446,0,0,0-.024.329.432.432,0,0,0,.509.328,3.264,3.264,0,0,1,2.882.969A.38.38,0,0,0,210.471,197.148Z" transform="translate(-144.35 -169.168)" fill="#263238"/>
      <path id="Path_1595" data-name="Path 1595" d="M201.72,201.457l1.416-1S202.763,202.071,201.72,201.457Z" transform="translate(-145.585 -167.223)" fill="#263238"/>
      <path id="Path_1596" data-name="Path 1596" d="M202.214,192.578a9.915,9.915,0,0,1,3.366,4.1,7.393,7.393,0,0,1,2.571-.7,7.6,7.6,0,0,0-4.435-3.8,7.869,7.869,0,0,1,6.211,3.851,12.126,12.126,0,0,1,4.459,1.666s-7.9-14.16-18.757-7.811-2.41,23.391-2.41,23.391h2.161s4.969-.246-.5-11.375c0,0,3.8,1.488,4.012,4.7,0,0,1.4-5.967,5.217-8.971A11.244,11.244,0,0,0,202.214,192.578Z" transform="translate(-148.402 -171.686)" fill="#263238"/>
      <path id="Path_1597" data-name="Path 1597" d="M194.211,216.294s-12.931-12.126,2.348-23.651c0,0-11.664-.259-11.428-11.757l13.825,9.176,8.968-13.942s4.969,7.538-6.335,15.335c0,0,5.664-2.635,10.024,3.851,0,0-6.819-4.684-13.241-.369C186.572,202.871,194.211,216.294,194.211,216.294Z" transform="translate(-149.604 -176.12)" fill="#407bff"/>
      <path id="Path_1598" data-name="Path 1598" d="M191.851,209.784a6.546,6.546,0,0,0,4.77,2.28c2.3,0,2.671-2.622,1.379-4.807-1.168-1.953-3.726-4.3-5.776-3.236S190.249,207.995,191.851,209.784Z" transform="translate(-148.262 -166.019)" fill="#b55b52"/>
      <path id="Path_1599" data-name="Path 1599" d="M221.663,239.945l-6.869-11.2s4.708,4.93,5.677,2.472c.807-2.076-4.844-3.714-6.67-4.192a.949.949,0,0,0-.944.314c-1.578,1.843-7.229,8.862-3.726,11.457,4.087,2.99,3.726-10.31,3.726-10.31l1.528,14.447,1.677.355-2.2-14.283,6.931,12.6Zm-2.037-9.122c-.435.874-3.726-2.335-3.726-2.335s4.211,1.447,3.764,2.335Zm-10.061,6.554c-1.727-2.158,2.484-7.742,2.484-7.742s-.72,9.9-2.447,7.742Z" transform="translate(-144.064 -157.522)" fill="#263238"/>
      <path id="Path_1600" data-name="Path 1600" d="M260.134,236.66H219.54v9.3h40.606A40.141,40.141,0,0,1,260.134,236.66Z" transform="translate(-141.27 -153.991)" fill="#407bff"/>
      <path id="Path_1601" data-name="Path 1601" d="M260.134,236.66H219.54v9.3h40.606A40.141,40.141,0,0,1,260.134,236.66Z" transform="translate(-141.27 -153.991)" fill="#fff" opacity="0.7"/>
      <path id="Path_1602" data-name="Path 1602" d="M228.374,246.612H215.617l-.124-.137a7.652,7.652,0,0,1,0-10.118l.124-.137h12.757l-.758.833a6.629,6.629,0,0,0,0,8.726Z" transform="translate(-142.713 -154.152)" fill="#407bff"/>
      <g id="Group_45" data-name="Group 45" transform="translate(70.868 82.068)" opacity="0.3">
        <path id="Path_1603" data-name="Path 1603" d="M228.374,246.612H215.617l-.124-.137a7.652,7.652,0,0,1,0-10.118l.124-.137h12.757l-.758.833a6.629,6.629,0,0,0,0,8.726Z" transform="translate(-213.581 -236.22)"/>
      </g>
      <path id="Path_1604" data-name="Path 1604" d="M259.656,246.6H225.2a7.612,7.612,0,0,1-1.987-4.9,7.464,7.464,0,0,1,1.9-5.312l.124-.137h34.457a.469.469,0,0,1,.447.478h0a.471.471,0,0,1-.447.492H225.571a6.657,6.657,0,0,0,0,8.453h34.085a.469.469,0,0,1,.447.478h0A.466.466,0,0,1,259.656,246.6Z" transform="translate(-140.383 -154.141)" fill="#407bff"/>
      <path id="Path_1605" data-name="Path 1605" d="M257.122,222.9H220.59v8.33h36.532a35.717,35.717,0,0,1,0-8.33Z" transform="translate(-141.016 -159.021)" fill="#407bff"/>
      <path id="Path_1606" data-name="Path 1606" d="M257.122,222.9H220.59v8.33h36.532a35.717,35.717,0,0,1,0-8.33Z" transform="translate(-141.016 -159.021)" fill="#fff" opacity="0.8"/>
      <path id="Path_1607" data-name="Path 1607" d="M228.608,231.867H217.056l-.112-.123a6.907,6.907,0,0,1,0-9.108l.112-.137h11.552l-.683.751a5.939,5.939,0,0,0,0,7.865Z" transform="translate(-142.314 -159.167)" fill="#263238"/>
      <path id="Path_1608" data-name="Path 1608" d="M256.706,231.856H225.652a6.907,6.907,0,0,1-1.8-4.411,6.787,6.787,0,0,1,1.714-4.779l.112-.137h31.054a.381.381,0,0,1,.286.133.461.461,0,0,1,.112.318h0a.419.419,0,0,1-.4.437H226.024a5.952,5.952,0,0,0,0,7.592h30.681a.381.381,0,0,1,.286.133.462.462,0,0,1,.112.318h0a.414.414,0,0,1-.4.4Z" transform="translate(-140.227 -159.156)" fill="#407bff"/>
      <g id="Group_46" data-name="Group 46" transform="translate(83.62 63.374)" opacity="0.4">
        <path id="Path_1609" data-name="Path 1609" d="M256.706,231.856H225.652a6.907,6.907,0,0,1-1.8-4.411,6.787,6.787,0,0,1,1.714-4.779l.112-.137h31.054a.381.381,0,0,1,.286.133.461.461,0,0,1,.112.318h0a.419.419,0,0,1-.4.437H226.024a5.952,5.952,0,0,0,0,7.592h30.681a.381.381,0,0,1,.286.133.462.462,0,0,1,.112.318h0a.414.414,0,0,1-.4.4Z" transform="translate(-223.847 -222.53)" fill="#fff"/>
      </g>
      <path id="Path_1610" data-name="Path 1610" d="M257.122,216.05H220.59v8.371h36.532A35.6,35.6,0,0,1,257.122,216.05Z" transform="translate(-141.016 -161.525)" fill="#407bff"/>
      <path id="Path_1611" data-name="Path 1611" d="M257.122,216.05H220.59v8.371h36.532A35.6,35.6,0,0,1,257.122,216.05Z" transform="translate(-141.016 -161.525)" fill="#fff" opacity="0.8"/>
      <path id="Path_1612" data-name="Path 1612" d="M228.608,225H217.056l-.112-.123a6.907,6.907,0,0,1,0-9.108l.112-.123h11.552l-.683.751a5.847,5.847,0,0,0,0,7.852Z" transform="translate(-142.314 -161.671)" fill="#407bff"/>
      <g id="Group_47" data-name="Group 47" transform="translate(72.916 53.979)" opacity="0.4">
        <path id="Path_1613" data-name="Path 1613" d="M228.608,225H217.056l-.112-.123a6.907,6.907,0,0,1,0-9.108l.112-.123h11.552l-.683.751a5.847,5.847,0,0,0,0,7.852Z" transform="translate(-215.23 -215.65)" fill="#fff"/>
      </g>
      <path id="Path_1614" data-name="Path 1614" d="M256.706,225H225.652a6.981,6.981,0,0,1-1.8-4.424,6.787,6.787,0,0,1,1.714-4.779l.112-.123h31.054a.419.419,0,0,1,.4.437h0a.419.419,0,0,1-.4.437H226.024a5.982,5.982,0,0,0,0,7.606h30.681a.419.419,0,0,1,.4.437h0A.416.416,0,0,1,256.706,225Z" transform="translate(-140.227 -161.664)" fill="#407bff"/>
      <g id="Group_48" data-name="Group 48" transform="translate(83.62 54.006)" opacity="0.5">
        <path id="Path_1615" data-name="Path 1615" d="M256.706,225H225.652a6.981,6.981,0,0,1-1.8-4.424,6.787,6.787,0,0,1,1.714-4.779l.112-.123h31.054a.419.419,0,0,1,.4.437h0a.419.419,0,0,1-.4.437H226.024a5.982,5.982,0,0,0,0,7.606h30.681a.419.419,0,0,1,.4.437h0A.416.416,0,0,1,256.706,225Z" transform="translate(-223.847 -215.67)" fill="#fff"/>
      </g>
      <path id="Path_1616" data-name="Path 1616" d="M257.122,244.27H220.59v8.384h36.532a35.715,35.715,0,0,1,0-8.384Z" transform="translate(-141.016 -151.21)" fill="#407bff"/>
      <path id="Path_1617" data-name="Path 1617" d="M257.122,244.27H220.59v8.384h36.532a35.715,35.715,0,0,1,0-8.384Z" transform="translate(-141.016 -151.21)" fill="#fff" opacity="0.8"/>
      <path id="Path_1618" data-name="Path 1618" d="M228.608,253.237H217.056l-.112-.123a6.907,6.907,0,0,1,0-9.108l.112-.137h11.552l-.683.765a5.847,5.847,0,0,0,0,7.852Z" transform="translate(-142.314 -151.356)" fill="#263238"/>
      <path id="Path_1619" data-name="Path 1619" d="M256.706,253.226H225.652a6.907,6.907,0,0,1-1.8-4.411,6.787,6.787,0,0,1,1.714-4.779l.112-.137h31.054a.381.381,0,0,1,.286.133.462.462,0,0,1,.112.318h0a.419.419,0,0,1-.4.437H226.024a5.982,5.982,0,0,0,0,7.606h30.681a.419.419,0,0,1,.4.437h0a.414.414,0,0,1-.4.4Z" transform="translate(-140.227 -151.345)" fill="#407bff"/>
      <path id="Path_1620" data-name="Path 1620" d="M257.122,229.76H220.59v8.371h36.532A35.594,35.594,0,0,1,257.122,229.76Z" transform="translate(-141.016 -156.514)" fill="#407bff"/>
      <path id="Path_1621" data-name="Path 1621" d="M257.122,229.76H220.59v8.371h36.532A35.594,35.594,0,0,1,257.122,229.76Z" transform="translate(-141.016 -156.514)" fill="#fff" opacity="0.7"/>
      <path id="Path_1622" data-name="Path 1622" d="M228.608,238.727H217.056l-.112-.137a6.907,6.907,0,0,1,0-9.108l.112-.123h11.552l-.683.751a5.847,5.847,0,0,0,0,7.852Z" transform="translate(-142.314 -156.66)" fill="#407bff"/>
      <g id="Group_49" data-name="Group 49" transform="translate(72.916 72.7)" opacity="0.6">
        <path id="Path_1623" data-name="Path 1623" d="M228.608,238.727H217.056l-.112-.137a6.907,6.907,0,0,1,0-9.108l.112-.123h11.552l-.683.751a5.847,5.847,0,0,0,0,7.852Z" transform="translate(-215.23 -229.36)" fill="#fff"/>
      </g>
      <path id="Path_1624" data-name="Path 1624" d="M256.706,238.716H225.652a6.908,6.908,0,0,1-1.8-4.411,6.8,6.8,0,0,1,1.714-4.793l.112-.123h31.054a.419.419,0,0,1,.4.437h0a.462.462,0,0,1-.112.318.381.381,0,0,1-.286.133H226.025a5.952,5.952,0,0,0,0,7.592h30.681a.419.419,0,0,1,.4.437h0a.415.415,0,0,1-.4.41Z" transform="translate(-140.227 -156.649)" fill="#407bff"/>
      <g id="Group_50" data-name="Group 50" transform="translate(83.62 72.741)" opacity="0.3">
        <path id="Path_1625" data-name="Path 1625" d="M256.706,238.716H225.652a6.908,6.908,0,0,1-1.8-4.411,6.8,6.8,0,0,1,1.714-4.793l.112-.123h31.054a.419.419,0,0,1,.4.437h0a.462.462,0,0,1-.112.318.381.381,0,0,1-.286.133H226.025a5.952,5.952,0,0,0,0,7.592h30.681a.419.419,0,0,1,.4.437h0a.415.415,0,0,1-.4.41Z" transform="translate(-223.847 -229.39)" fill="#fff"/>
      </g>
      <path id="Path_1626" data-name="Path 1626" d="M231.842,244.739l-2.571-.628a2.876,2.876,0,0,0-2.72.792l-3.441,3.4a6.635,6.635,0,0,0-1.851,5.462l.124,1.256c4.211,1.366,9.664-.574,9.664-.574l1.6-.355a2.548,2.548,0,0,0,1.658-1.164,3.038,3.038,0,0,0,.417-2.113l-.609-3.509A3.127,3.127,0,0,0,231.842,244.739Z" transform="translate(-140.865 -151.297)" fill="#b55b52"/>
      <path id="Path_1627" data-name="Path 1627" d="M234.9,253.1a2.686,2.686,0,0,0-1.684-1.333,2.46,2.46,0,0,0-2.042.4h-.062c-2.037,1.366-4.136,2.895-6.211,4.247s-4.186,2.731-6.285,3.919a41.045,41.045,0,0,1-6.211,3.045,10.805,10.805,0,0,1-2.261.615c-.894-1.584-1.764-3.223-2.559-4.929-.956-2.158-1.863-4.356-2.7-6.623s-1.59-4.561-2.3-6.828c-.36-1.174-.708-2.335-1.031-3.509s-.646-2.4-.907-3.427V238.5a5.3,5.3,0,0,0-6.434-3.944,5.926,5.926,0,0,0-3.926,6.852c.323,1.5.621,2.731.994,4.1s.745,2.635,1.143,3.933c.82,2.581,1.739,5.148,2.77,7.661a81.434,81.434,0,0,0,3.49,7.442,61.989,61.989,0,0,0,4.434,7.06l.149.191a3.67,3.67,0,0,0,.559.628,7.616,7.616,0,0,0,4.149,1.953,9.215,9.215,0,0,0,3.242-.123,17.918,17.918,0,0,0,4.608-1.68,44.085,44.085,0,0,0,7.055-4.643c2.137-1.693,4.161-3.482,6.1-5.353s3.789-3.783,5.59-5.885A3.146,3.146,0,0,0,234.9,253.1Z" transform="translate(-148.378 -154.826)" fill="#b55b52"/>
      <path id="Path_1628" data-name="Path 1628" d="M193.776,226c-5.962,4.629-6.211,11.552-3.031,24.8,4.3,2.362,14.757-.628,14.757-.628S202.21,229.66,193.776,226Z" transform="translate(-148.734 -157.888)" fill="#407bff"/>
      <path id="Path_1629" data-name="Path 1629" d="M193.776,226c-5.962,4.629-6.211,11.552-3.031,24.8,4.3,2.362,14.757-.628,14.757-.628S202.21,229.66,193.776,226Z" transform="translate(-148.734 -157.888)" fill="#fff" opacity="0.7"/>
    </g>
    <g id="freepik--character-1--inject-116" transform="translate(65.585 202.927)">
      <path id="Path_1630" data-name="Path 1630" d="M178.141,218.7c-2.161,5.858-4.41,11.716-6.658,17.547s-4.546,11.675-6.583,17.369l-.137.382a1.581,1.581,0,0,0-.062.191,3.816,3.816,0,0,0-.124.546,10.884,10.884,0,0,0-.1,1.529,24.817,24.817,0,0,0,.36,3.878,70.285,70.285,0,0,0,2.074,8.534c.857,2.895,1.863,5.79,2.907,8.685s2.174,5.8,3.292,8.616l-4.646,3.018a111.674,111.674,0,0,1-9.167-16.96,65.519,65.519,0,0,1-3.354-9.559,34.64,34.64,0,0,1-.981-5.558,19.987,19.987,0,0,1,0-3.236,16.192,16.192,0,0,1,.224-1.816,3.879,3.879,0,0,1,.211-.97l.211-.751c.894-3.2,1.838-6.24,2.832-9.272s2.012-6.049,3.068-9.04c2.087-5.995,4.3-11.894,6.646-17.752Z" transform="translate(-28.075 -144.78)" fill="#ffb573"/>
      <path id="Path_1631" data-name="Path 1631" d="M170.027,265.66l4.348,3.987a5.823,5.823,0,0,1,1.824,4,5.943,5.943,0,0,1-1.414,4.194h0a4.823,4.823,0,0,1-4.929,1.572,5.372,5.372,0,0,1-3.691-3.921,30.505,30.505,0,0,1-1.043-6.391Z" transform="translate(-25.6 -125.926)" fill="#ffb573"/>
      <path id="Path_1632" data-name="Path 1632" d="M171.546,267.7a27.269,27.269,0,0,0-5.652,3.264.5.5,0,0,1-.7-.082,15,15,0,0,1-2.857-4.888.562.562,0,0,1,.174-.519c1.751-1.529,6.285-4.1,7.229-3.25s1.739,3.523,2.124,4.752a.611.611,0,0,1-.022.437.527.527,0,0,1-.3.286Z" transform="translate(-26.275 -127.243)" fill="#263238"/>
      <path id="Path_1633" data-name="Path 1633" d="M122.545,227.349c-9.155,5.244-12.769,15.608-13.055,26.436,0,2.021,2.82,2.431,2.869.382.248-9.559,3.105-19.2,11.328-23.9C125.315,229.329,124.2,226.407,122.545,227.349Z" transform="translate(-39.071 -139.997)" fill="#407bff"/>
      <g id="Group_51" data-name="Group 51" transform="translate(70.419 87.168)" opacity="0.2">
        <path id="Path_1634" data-name="Path 1634" d="M122.545,227.349c-9.155,5.244-12.769,15.608-13.055,26.436,0,2.021,2.82,2.431,2.869.382.248-9.559,3.105-19.2,11.328-23.9C125.315,229.329,124.2,226.407,122.545,227.349Z" transform="translate(-109.49 -227.165)"/>
      </g>
      <path id="Path_1635" data-name="Path 1635" d="M145.4,202.159l21.874,2.95c9.078,1.213,15.834,9.8,15.614,19.855v.137c-.41,13.655-3.627,40.761-6.062,54.129-.1.533-.236,1.188-.4,1.925-2.151,9.532-10.437,15.8-19.3,14.6l-30.594-4.1c-7.478-.963-13.559-7.071-15.1-15.171a8.489,8.489,0,0,0-.137-.929c-.658-6.991.484-21.521,3.13-27.925,1.466-3.578,8.037-8.111,9.515-11.689,2.273-5.462,0-18.776,2.683-24.047.907-1.748,3.726-4.178,6.335-6.268a16.54,16.54,0,0,1,12.446-3.468Z" transform="translate(-38.68 -149.19)" fill="#407bff"/>
      <path id="Path_1636" data-name="Path 1636" d="M145.4,202.159l21.874,2.95c9.078,1.213,15.834,9.8,15.614,19.855v.137c-.41,13.655-3.627,40.761-6.062,54.129-.1.533-.236,1.188-.4,1.925-2.151,9.532-10.437,15.8-19.3,14.6l-30.594-4.1c-7.478-.963-13.559-7.071-15.1-15.171a8.489,8.489,0,0,0-.137-.929c-.658-6.991.484-21.521,3.13-27.925,1.466-3.578,8.037-8.111,9.515-11.689,2.273-5.462,0-18.776,2.683-24.047.907-1.748,3.726-4.178,6.335-6.268a16.54,16.54,0,0,1,12.446-3.468Z" transform="translate(-38.68 -149.19)" opacity="0.5"/>
      <path id="Path_1637" data-name="Path 1637" d="M136.236,204.565a3.553,3.553,0,0,0-.894-1.065,18.325,18.325,0,0,0-2.4,1.543c-2.671,2.089-5.428,4.52-6.335,6.268-2.708,5.271-.41,18.544-2.683,24.047-1.478,3.578-8.049,8.111-9.515,11.689-2.646,6.4-3.726,20.933-3.13,27.925a5.688,5.688,0,0,0,.137.929c1.312,6.974,6.042,12.567,12.273,14.516a5.85,5.85,0,0,0,1.751-.956C128.361,286.92,138.994,210.369,136.236,204.565Z" transform="translate(-38.676 -148.647)" fill="#407bff"/>
      <path id="Path_1638" data-name="Path 1638" d="M136.236,204.565a3.553,3.553,0,0,0-.894-1.065,18.325,18.325,0,0,0-2.4,1.543c-2.671,2.089-5.428,4.52-6.335,6.268-2.708,5.271-.41,18.544-2.683,24.047-1.478,3.578-8.049,8.111-9.515,11.689-2.646,6.4-3.726,20.933-3.13,27.925a5.688,5.688,0,0,0,.137.929c1.312,6.974,6.042,12.567,12.273,14.516a5.85,5.85,0,0,0,1.751-.956C128.361,286.92,138.994,210.369,136.236,204.565Z" transform="translate(-38.676 -148.647)" opacity="0.2"/>
      <path id="Path_1639" data-name="Path 1639" d="M112,243a86.974,86.974,0,0,0-.72,17.506,5.693,5.693,0,0,0,.137.929c1.312,6.974,6.042,12.567,12.273,14.515a5.852,5.852,0,0,0,1.751-.956c1.143-1.01,3.528-13.723,5.8-29.045C122.82,248.366,114.82,244.611,112,243Z" transform="translate(-38.675 -134.209)" opacity="0.2"/>
      <path id="Path_1640" data-name="Path 1640" d="M179.265,224.946c3.453-11.388-1.9-20.128-9.937-15.963-7.254,3.742-16.235,44.571-15.005,51.262,1.888,10.173,9.353,23.842,9.353,23.842l7.6-4.015s-6.323-15.826-5.689-21.848S175.985,235.747,179.265,224.946Z" transform="translate(-28.242 -147.029)" fill="#407bff"/>
      <path id="Path_1641" data-name="Path 1641" d="M179.265,224.946c3.453-11.388-1.9-20.128-9.937-15.963-7.254,3.742-16.235,44.571-15.005,51.262,1.888,10.173,9.353,23.842,9.353,23.842l7.6-4.015s-6.323-15.826-5.689-21.848S175.985,235.747,179.265,224.946Z" transform="translate(-28.242 -147.029)" fill="#fff" opacity="0.4"/>
      <path id="Path_1642" data-name="Path 1642" d="M180.01,209.813s6.757,28.922-8.236,79.091l-44.494-5.926c.522-7.551,8.857-43.6,6.211-79.856a108.088,108.088,0,0,1,15.117-.082,152.784,152.784,0,0,1,18.906,2.526,78.858,78.858,0,0,1,12.5,4.247Z" transform="translate(-34.763 -148.897)" fill="#407bff"/>
      <path id="Path_1643" data-name="Path 1643" d="M148.869,186c.46,6.828.286,19.254-4.459,23.146a56.314,56.314,0,0,1,9.341,7.483,5.31,5.31,0,0,0,5.748,1.292,6.146,6.146,0,0,0,3.73-4.978,10.908,10.908,0,0,0,.087-1.27c-6.583-2.731-5.8-8.193-4.037-13.232Z" transform="translate(-30.615 -155.044)" fill="#ffb573"/>
      <path id="Path_1644" data-name="Path 1644" d="M151.525,189.74l6.211,7.374a23.857,23.857,0,0,0-.981,3.6c-2.484-.751-5.764-4.356-5.714-7.387a11.346,11.346,0,0,1,.484-3.591Z" transform="translate(-29.01 -153.677)" opacity="0.2"/>
      <path id="Path_1645" data-name="Path 1645" d="M148.411,181.762c-.5,9.135-1.242,14.447,2.484,19.65,5.49,7.824,16.148,5.039,19.08-3.742,2.671-7.906,3.031-21.493-4.646-26.177a10.453,10.453,0,0,0-11.071-.066A12.653,12.653,0,0,0,148.411,181.762Z" transform="translate(-29.747 -160.938)" fill="#ffb573"/>
      <path id="Path_1646" data-name="Path 1646" d="M158.173,181.99c-.087.737.211,1.366.646,1.434s.857-.492.944-1.229-.211-1.366-.646-1.434S158.247,181.253,158.173,181.99Z" transform="translate(-27.286 -156.96)" fill="#263238"/>
      <path id="Path_1647" data-name="Path 1647" d="M164.272,182.731c-.075.737.211,1.366.646,1.447s.87-.492.944-1.229-.211-1.365-.646-1.447S164.359,181.994,164.272,182.731Z" transform="translate(-25.808 -156.691)" fill="#263238"/>
      <path id="Path_1648" data-name="Path 1648" d="M162.455,182.43a28.21,28.21,0,0,0,2.484,6.746,3.609,3.609,0,0,1-3.279.232Z" transform="translate(-26.438 -156.349)" fill="#ed893e"/>
      <path id="Path_1649" data-name="Path 1649" d="M160.8,189.757a.206.206,0,0,0,.2-.191.234.234,0,0,0-.04-.163.2.2,0,0,0-.134-.083,5.314,5.314,0,0,1-4.074-2.868.205.205,0,0,0-.118-.112.183.183,0,0,0-.155.016.229.229,0,0,0-.087.287,5.655,5.655,0,0,0,4.385,3.113Z" transform="translate(-27.718 -154.923)" fill="#263238"/>
      <path id="Path_1650" data-name="Path 1650" d="M156.688,180.042a.382.382,0,0,0,.286-.137,2.993,2.993,0,0,1,2.683-1.106.4.4,0,0,0,.46-.355.437.437,0,0,0-.311-.505,3.757,3.757,0,0,0-3.4,1.366.468.468,0,0,0,0,.614.414.414,0,0,0,.286.123Z" transform="translate(-27.739 -158.003)" fill="#263238"/>
      <path id="Path_1651" data-name="Path 1651" d="M167.763,181.536h.124a.4.4,0,0,0,.23-.215.462.462,0,0,0,.018-.331,4.221,4.221,0,0,0-2.559-2.827.41.41,0,0,0-.484.328.46.46,0,0,0,.043.326.39.39,0,0,0,.242.193,3.362,3.362,0,0,1,2.012,2.253A.387.387,0,0,0,167.763,181.536Z" transform="translate(-25.61 -157.912)" fill="#263238"/>
      <path id="Path_1652" data-name="Path 1652" d="M168.88,266.951s16.794,57.939,18.632,86.028c1.938,29.168,8.4,102.878,8.4,102.878l-6.509,2.157s-22.1-67.88-22.967-96.569c-.559-18.762-31.153-98.9-31.153-98.9Z" transform="translate(-32.826 -127.067)" fill="#ffb573"/>
      <path id="Path_1653" data-name="Path 1653" d="M186.332,400.074l-8.558,4.288a.83.83,0,0,0-.41.9l1.578,8.193a1.349,1.349,0,0,0,.668.921,1.142,1.142,0,0,0,1.071.007c2.969-1.557,4.335-2.485,8.1-4.37,2.323-1.161,10.571-4.984,13.763-6.582s2.174-5.3.733-4.957c-6.459,1.543-12.844,2.39-15.49,1.475a1.858,1.858,0,0,0-1.453.123Z" transform="translate(-22.639 -77.388)" fill="#263238"/>
      <path id="Path_1654" data-name="Path 1654" d="M188.908,398.314l-.075-.191a.66.66,0,0,0-.584-.423c-1.031,0-2.708,2.649-3.031,3.182a.25.25,0,0,0,0,.287.192.192,0,0,0,.236.109c1.081-.232,2.956-.778,3.441-1.884a1.491,1.491,0,0,0,.012-1.079Zm-2.969,2.321c.758-1.161,1.8-2.444,2.3-2.417,0,0,.112,0,.174.15a.936.936,0,0,1,0,.806C188.212,399.748,187.293,400.267,185.939,400.636Z" transform="translate(-20.744 -77.663)" fill="#407bff"/>
      <path id="Path_1655" data-name="Path 1655" d="M186.592,397.324a.869.869,0,0,0-.087-.191.658.658,0,0,0-.832-.246,1.181,1.181,0,0,0-.7.655c-.559,1.256.273,3.782.311,3.892a.216.216,0,0,0,.186.164.226.226,0,0,0,.224-.1A6.66,6.66,0,0,0,186.592,397.324Zm-1.019,3.4a5.513,5.513,0,0,1-.174-2.95.747.747,0,0,1,.41-.4.394.394,0,0,1,.311,0C186.418,397.9,186.046,399.686,185.574,400.724Z" transform="translate(-20.838 -77.983)" fill="#407bff"/>
      <path id="Path_1656" data-name="Path 1656" d="M134.88,262.63l35.054,4.411s15.862,59.373,18.757,78.627c2.571,17.137,6.372,79.432,7.167,92.855a3.409,3.409,0,0,1-2.037,3.427l-6.882,2.731a2.851,2.851,0,0,1-2.44-.152,3.346,3.346,0,0,1-1.584-2.046c-3.627-13.054-16.4-59.728-17.216-74.653C164.741,350.406,134.88,262.63,134.88,262.63Z" transform="translate(-32.923 -127.034)" fill="#263238"/>
      <path id="Path_1657" data-name="Path 1657" d="M142.11,283.232c.323,1.939.658,3.878.981,5.8,1.6,4.984,3.3,10.282,4.969,15.717,3.59-10.3,3.2-24.265,2.484-30.4C149.923,269.29,145.141,277.442,142.11,283.232Z" transform="translate(-31.172 -123.329)" opacity="0.6"/>
      <path id="Path_1658" data-name="Path 1658" d="M184.79,407.438l.472-3.8,1.925-.792-.5,3.81Z" transform="translate(-20.837 -75.781)" fill="#fff"/>
      <path id="Path_1659" data-name="Path 1659" d="M187.36,406.775l.646-4.766,2.087-.97-.72,4.766Z" transform="translate(-20.214 -76.443)" fill="#fff"/>
      <path id="Path_1660" data-name="Path 1660" d="M173.969,265.821s-25.141,74.257-37.563,98.372c-13.3,25.685-68.766-21.684-68.766-21.684l4.969-5.735s32.458,15.526,45.314,14.393c12.645-25.945,23.8-89.646,23.8-89.646Z" transform="translate(-49.205 -127.44)" fill="#ffb573"/>
      <path id="Path_1661" data-name="Path 1661" d="M173.282,265.931l-33.054-4.411s-14.67,62.814-21.291,80.019c-3.553,9.231-16.6,8.193-38.842-1.584L73.81,350.115s35.948,27.9,53.015,23.132S173.282,265.931,173.282,265.931Z" transform="translate(-47.711 -127.44)" fill="#263238"/>
      <path id="Path_1662" data-name="Path 1662" d="M70.613,326.534l7.2-6.664a.847.847,0,0,0,.174-.983l-3.54-7.428a1.255,1.255,0,0,0-.862-.682,1.163,1.163,0,0,0-1.026.3c-2.484,2.376-3.577,3.66-6.745,6.6-1.95,1.8-8.956,7.92-11.651,10.405s-.795,5.735.509,4.984c5.826-3.386,11.788-6.09,14.521-5.995a1.878,1.878,0,0,0,1.416-.533Z" transform="translate(-52.799 -109.444)" fill="#263238"/>
      <path id="Path_1663" data-name="Path 1663" d="M64.12,325.748l.124.164a.66.66,0,0,0,.658.246c1.019-.259,1.975-3.359,2.149-3.974a.247.247,0,0,0-.062-.273.229.229,0,0,0-.261,0c-.981.546-2.658,1.625-2.857,2.84A1.466,1.466,0,0,0,64.12,325.748Zm2.3-3.113c-.447,1.366-1.143,2.895-1.615,3.018a.191.191,0,0,1-.211-.1.881.881,0,0,1-.248-.765C64.443,324.178,65.2,323.413,66.418,322.635Z" transform="translate(-50.12 -105.381)" fill="#407bff"/>
      <path id="Path_1664" data-name="Path 1664" d="M66.284,326.3a.571.571,0,0,0,.137.164.636.636,0,0,0,.857,0,1.267,1.267,0,0,0,.509-.833c.224-1.365-1.242-3.564-1.242-3.66a.216.216,0,0,0-.224-.109.242.242,0,0,0-.186.164,6.656,6.656,0,0,0,.149,4.274Zm.149-3.578a5.355,5.355,0,0,1,.882,2.8.806.806,0,0,1-.286.505c-.2.137-.273,0-.311,0a5.621,5.621,0,0,1-.286-3.3Z" transform="translate(-49.638 -105.385)" fill="#407bff"/>
      <path id="Path_1665" data-name="Path 1665" d="M134.145,309.733c4.969-19.568,10-39.982,11.838-47.534l-1.925-.259c-1.888,7.77-6.819,27.911-11.763,47.22l-.534,2.13c-4.969,19.377-10.074,39.423-16.347,41.7-11.95,4.342-30.135-4.656-38.258-9.3L76,345.482c6.683,3.864,20.309,10.788,32.11,10.788a23,23,0,0,0,7.863-1.27c7.242-2.622,12.036-21.4,17.589-43.137Z" transform="translate(-47.181 -127.286)" fill="#407bff"/>
      <path id="Path_1666" data-name="Path 1666" d="M66.995,314.92l.559,3.782-1.615,1.379-.559-3.8Z" transform="translate(-49.753 -107.921)" fill="#fff"/>
      <path id="Path_1667" data-name="Path 1667" d="M64.822,316.61l.671,4.752-1.727,1.6-.6-4.779Z" transform="translate(-50.288 -107.303)" fill="#fff"/>
      <path id="Path_1668" data-name="Path 1668" d="M134.73,202.746s33.1,10.924,35.588,15.867l2.621-2.649s-8.509-5.94-29.066-13.218C143.872,202.746,134.73,200.507,134.73,202.746Z" transform="translate(-32.959 -149.286)" fill="#263238"/>
      <path id="Path_1669" data-name="Path 1669" d="M171.25,223.49s-15.192,23.787-44.631,41.321a9.617,9.617,0,0,0-4.248,5.694l-.149.519a1.558,1.558,0,0,0,.383,1.535,1.237,1.237,0,0,0,1.431.24c6.894-3.414,26.545-15.089,50.307-46.428Z" transform="translate(-36.003 -141.34)" fill="#263238"/>
      <path id="Path_1670" data-name="Path 1670" d="M137.615,209.75c3.416,4.247,6.981,8.562,10.546,12.7,1.764,2.089,3.59,4.1,5.4,6.077s3.726,3.837,5.49,5.462c.46.4.907.751,1.342,1.092l.621.464.273.178.137.082s.112.082.075.068a1.2,1.2,0,0,0-.435,0c-.149,0-.124.123,0,0a5.271,5.271,0,0,0,1.826-1.461,23.5,23.5,0,0,0,2.161-2.731,73.429,73.429,0,0,0,3.987-6.91c.621-1.229,1.242-2.472,1.851-3.742l1.764-3.783,5.118,1.83a70.407,70.407,0,0,1-5.552,17.547,32.005,32.005,0,0,1-2.484,4.329,15.643,15.643,0,0,1-4.248,4.178,8.663,8.663,0,0,1-3.726,1.366,8.192,8.192,0,0,1-4.335-.778,23.638,23.638,0,0,1-2.373-1.366c-.683-.464-1.342-.929-1.963-1.366a76.455,76.455,0,0,1-6.708-5.913c-2.087-2.035-4.062-4.1-6.012-6.24-3.863-4.274-7.453-8.616-11.043-13.259Z" transform="translate(-34.267 -146.363)" fill="#ffb573"/>
      <path id="Path_1671" data-name="Path 1671" d="M164.78,221.47l-2.882-5.708a5.845,5.845,0,0,1-.316-4.406,5.17,5.17,0,0,1,2.8-3.172h0a4.9,4.9,0,0,1,5.153.73,6.076,6.076,0,0,1,2.1,5.224,36.07,36.07,0,0,1-.584,4.1,3.034,3.034,0,0,1-2.261,2.376Z" transform="translate(-26.527 -147.091)" fill="#ffb573"/>
      <path id="Path_1672" data-name="Path 1672" d="M126.744,211.2c1.925-9.2,11.589-12.809,16.782-2.349,6.757,13.587,18.3,27.679,18.3,27.679l9.155-13.136,8.161,3.619s-6.211,27.31-19.452,23.091S124.782,220.6,126.744,211.2Z" transform="translate(-34.923 -149.017)" fill="#407bff"/>
      <path id="Path_1673" data-name="Path 1673" d="M126.744,211.2c1.925-9.2,11.589-12.809,16.782-2.349,6.757,13.587,18.3,27.679,18.3,27.679l9.155-13.136,8.161,3.619s-6.211,27.31-19.452,23.091S124.782,220.6,126.744,211.2Z" transform="translate(-34.923 -149.017)" fill="#fff" opacity="0.4"/>
      <ellipse id="Ellipse_249" data-name="Ellipse 249" cx="4.608" cy="5.066" rx="4.608" ry="5.066" transform="translate(137.632 8.111)" fill="#263238"/>
      <ellipse id="Ellipse_250" data-name="Ellipse 250" cx="4.608" cy="5.066" rx="4.608" ry="5.066" transform="translate(130.974 1.857)" fill="#263238"/>
      <ellipse id="Ellipse_251" data-name="Ellipse 251" cx="4.608" cy="5.066" rx="4.608" ry="5.066" transform="translate(122.465)" fill="#263238"/>
      <ellipse id="Ellipse_252" data-name="Ellipse 252" cx="4.608" cy="5.066" rx="4.608" ry="5.066" transform="translate(114.602 4.015)" fill="#263238"/>
      <path id="Path_1674" data-name="Path 1674" d="M151.567,177.466a4.629,4.629,0,1,1-4.608-5.066A4.854,4.854,0,0,1,151.567,177.466Z" transform="translate(-31.114 -160.015)" fill="#263238"/>
      <path id="Path_1675" data-name="Path 1675" d="M149.848,186.7a3.627,3.627,0,0,1-4.47-.161,4.547,4.547,0,0,1-1.413-4.665,4.013,4.013,0,0,1,3.491-3.074,3.886,3.886,0,0,1,3.833,2.533,4.2,4.2,0,0,1-1.441,5.367Z" transform="translate(-30.761 -157.68)" fill="#263238"/>
      <path id="Path_1676" data-name="Path 1676" d="M146.071,185.478s-1.242-13.655,7.975-17.274,17.452,5.64,17.452,5.64l.646,3.523-5.031.888-8.335,1.051-5.329,1.816-5.329,6.432Z" transform="translate(-30.226 -161.855)" fill="#263238"/>
      <path id="Path_1677" data-name="Path 1677" d="M147.75,185.593a27.83,27.83,0,0,1,18.943-7.469,6.345,6.345,0,0,1,3.813,1.065.346.346,0,0,0,.434-.03.436.436,0,0,0,.113-.461l-1.478-4.588a1.642,1.642,0,0,0-1.242-1.161c-2.571-.451-10.049-.888-19.6,6.35a1.811,1.811,0,0,0-.683,1.365Z" transform="translate(-29.806 -159.894)" fill="#407bff"/>
      <path id="Path_1678" data-name="Path 1678" d="M147.935,181.214l-.075,1.366c4.4-3,15.055-9.381,22.433-6.636l-.4-1.243C162.443,172.434,152.593,178.033,147.935,181.214Z" transform="translate(-29.78 -159.366)" fill="#fff"/>
      <path id="Path_1679" data-name="Path 1679" d="M144.536,187.078a8.213,8.213,0,0,0,4.472,4.465c2.609,1.011,4.1-1.516,3.515-4.329-.509-2.54-2.484-6.117-5.192-5.913a3.558,3.558,0,0,0-2.821,2.056A4.248,4.248,0,0,0,144.536,187.078Z" transform="translate(-30.691 -156.764)" fill="#ffb573"/>
      <path id="Path_1680" data-name="Path 1680" d="M159.58,176.208c-.72,2.13-2.484,3.4-3.813,2.84s-1.913-2.731-1.242-4.9,2.484-3.4,3.813-2.84S160.3,174.064,159.58,176.208Z" transform="translate(-28.233 -160.464)" fill="#263238"/>
      <path id="Path_1681" data-name="Path 1681" d="M157.04,174.826c-.733,2.13-2.484,3.4-3.813,2.84s-1.913-2.731-1.242-4.889,2.484-3.414,3.813-2.84S157.785,172.7,157.04,174.826Z" transform="translate(-28.848 -160.966)" fill="#263238"/>
    </g>
  </g>
</svg>
