<svg id="team-svgrepo-com" xmlns="http://www.w3.org/2000/svg" width="162.388" height="151.547" viewBox="0 0 162.388 151.547">
  <g id="Group_205" data-name="Group 205" transform="translate(0 0)">
    <path id="Path_4837" data-name="Path 4837" d="M232.332,79.775a11.689,11.689,0,0,0,11.732-11.388,11.737,11.737,0,1,0-11.732,11.388Zm0-16.792A5,5,0,0,1,237.5,68a5.234,5.234,0,0,1-5.17,5.018,5.021,5.021,0,1,1,0-10.037Z" transform="translate(-151.138 -45.258)"/>
    <path id="Path_4838" data-name="Path 4838" d="M88.432,325.9a11.393,11.393,0,1,0,0,22.776,11.671,11.671,0,0,0,11.732-11.388A11.461,11.461,0,0,0,88.432,325.9Zm0,16.084a5.234,5.234,0,0,1-5.17-5.018,5.017,5.017,0,0,1,5.17-5.018,5.234,5.234,0,0,1,5.17,5.018A5,5,0,0,1,88.432,341.984Z" transform="translate(-54.927 -227.657)"/>
    <path id="Path_4839" data-name="Path 4839" d="M139.883,107a33.672,33.672,0,0,0-26.645,12.707L95.309,103.849V85.417c16.9-1.544,30.39-15.634,30.39-32.394,0-18.111-14.847-32.523-33.5-32.523s-33.5,14.733-33.5,32.49c0,17.082,13.521,30.882,30.39,32.394v18.24l-18,15.956A33.749,33.749,0,0,0,44.5,106.97C25.847,107,11,121.413,11,139.524s15.211,32.523,33.5,32.523,33.5-14.412,33.5-32.523a32.1,32.1,0,0,0-3.38-14.379l17.432-15.57,17.664,15.634a31.908,31.908,0,0,0-3.347,14.315c0,18.111,15.211,32.523,33.5,32.523,18.658,0,33.5-14.412,33.5-32.523S158.541,107,139.883,107ZM29.426,161.174a12.492,12.492,0,0,1,12-8.589h6.23a12.554,12.554,0,0,1,12,8.589,27.606,27.606,0,0,1-30.224,0Zm35.328-4.407a19.576,19.576,0,0,0-17.1-10.23h-6.23a19.072,19.072,0,0,0-17.266,10.037,25.656,25.656,0,0,1-6.562-17.082c0-14.412,12.1-26.153,26.943-26.153,14.515,0,26.943,11.742,26.943,26.153a25.784,25.784,0,0,1-6.727,17.275Zm27.44-77.623a27.349,27.349,0,0,1-15.079-4.5,12.492,12.492,0,0,1,12-8.589h6.23a12.553,12.553,0,0,1,12,8.589A27.472,27.472,0,0,1,92.194,79.144ZM65.251,52.99c0-14.412,12.1-26.153,26.943-26.153s26.943,11.742,26.943,26.153a25.6,25.6,0,0,1-6.727,17.242A19.576,19.576,0,0,0,95.309,60h-6.23A19.072,19.072,0,0,0,71.813,70.04,25.45,25.45,0,0,1,65.251,52.99Zm59.52,108.183a12.492,12.492,0,0,1,12-8.589H143a12.553,12.553,0,0,1,12,8.589,27.606,27.606,0,0,1-30.224,0Zm35.328-4.407a19.576,19.576,0,0,0-17.1-10.23h-6.23A19.072,19.072,0,0,0,119.5,156.574a25.656,25.656,0,0,1-6.562-17.082c0-14.412,12.1-26.153,26.943-26.153s26.943,11.742,26.943,26.153a25.623,25.623,0,0,1-6.728,17.275Z" transform="translate(-11 -20.5)"/>
    <path id="Path_4840" data-name="Path 4840" d="M376.232,325.9a11.393,11.393,0,1,0,11.732,11.388A11.461,11.461,0,0,0,376.232,325.9Zm0,16.084a5.234,5.234,0,0,1-5.17-5.018,5.172,5.172,0,1,1,5.17,5.018Z" transform="translate(-247.349 -227.657)"/>
  </g>
</svg>
