<svg xmlns="http://www.w3.org/2000/svg" width="146.25" height="142.42" viewBox="0 0 146.25 142.42">
  <g id="umbrella-svgrepo-com" transform="translate(0)">
    <g id="Group_207" data-name="Group 207" transform="translate(0 0)">
      <g id="Group_206" data-name="Group 206">
        <path id="Path_4841" data-name="Path 4841" d="M12.867,552.189a3.24,3.24,0,0,0,2.185-.846l6.431-6.013a2.775,2.775,0,0,0,0-4.116,3.264,3.264,0,0,0-4.4,0l-6.431,6.013a2.775,2.775,0,0,0,0,4.116A3.318,3.318,0,0,0,12.867,552.189Z" transform="translate(-9.737 -540.36)"/>
        <path id="Path_4842" data-name="Path 4842" d="M135.067,552.189a3.183,3.183,0,0,0,2.185-.846l6.431-6.013a2.775,2.775,0,0,0,0-4.116,3.264,3.264,0,0,0-4.4,0l-6.431,6.013a2.775,2.775,0,0,0,0,4.116A3.318,3.318,0,0,0,135.067,552.189Z" transform="translate(-93.786 -540.36)"/>
        <path id="Path_4843" data-name="Path 4843" d="M257.267,552.189a3.128,3.128,0,0,0,2.185-.846l6.431-6.013a2.775,2.775,0,0,0,0-4.116,3.264,3.264,0,0,0-4.4,0l-6.431,6.013a2.775,2.775,0,0,0,0,4.116A3.318,3.318,0,0,0,257.267,552.189Z" transform="translate(-177.835 -540.36)"/>
        <path id="Path_4844" data-name="Path 4844" d="M379.567,552.189a3.183,3.183,0,0,0,2.185-.846l6.431-6.013a2.775,2.775,0,0,0,0-4.116,3.264,3.264,0,0,0-4.4,0l-6.431,6.013a2.775,2.775,0,0,0,0,4.116A3.318,3.318,0,0,0,379.567,552.189Z" transform="translate(-261.953 -540.36)"/>
        <path id="Path_4845" data-name="Path 4845" d="M74,593.119a3.135,3.135,0,0,0,2.154-.817l6.431-5.779a2.776,2.776,0,0,0,.094-4.116,3.264,3.264,0,0,0-4.4-.088L71.846,588.1a2.776,2.776,0,0,0-.094,4.116A3.184,3.184,0,0,0,74,593.119Z" transform="translate(-51.795 -569.497)"/>
        <path id="Path_4846" data-name="Path 4846" d="M196.2,593.119a3.134,3.134,0,0,0,2.154-.817l6.431-5.779a2.776,2.776,0,0,0,.094-4.116,3.264,3.264,0,0,0-4.4-.088l-6.431,5.779a2.776,2.776,0,0,0-.094,4.116A3.184,3.184,0,0,0,196.2,593.119Z" transform="translate(-135.844 -569.497)"/>
        <path id="Path_4847" data-name="Path 4847" d="M318.5,593.119a3.135,3.135,0,0,0,2.154-.817l6.431-5.779a2.776,2.776,0,0,0,.094-4.116,3.264,3.264,0,0,0-4.4-.088l-6.431,5.779a2.776,2.776,0,0,0-.094,4.116A3.183,3.183,0,0,0,318.5,593.119Z" transform="translate(-219.962 -569.497)"/>
        <path id="Path_4848" data-name="Path 4848" d="M440.7,593.119a3.134,3.134,0,0,0,2.154-.817l6.431-5.779a2.776,2.776,0,0,0,.094-4.116,3.264,3.264,0,0,0-4.4-.088l-6.431,5.779a2.776,2.776,0,0,0-.094,4.116A3.183,3.183,0,0,0,440.7,593.119Z" transform="translate(-304.011 -569.497)"/>
        <path id="Path_4849" data-name="Path 4849" d="M21.484,622.714a3.264,3.264,0,0,0-4.4,0l-6.431,6.013a2.775,2.775,0,0,0,0,4.116,3.318,3.318,0,0,0,2.217.846,3.106,3.106,0,0,0,2.185-.846l6.431-6.013A2.775,2.775,0,0,0,21.484,622.714Z" transform="translate(-9.737 -598.071)"/>
        <path id="Path_4850" data-name="Path 4850" d="M135.067,633.689a3.054,3.054,0,0,0,2.185-.846l6.431-6.013a2.775,2.775,0,0,0,0-4.116,3.264,3.264,0,0,0-4.4,0l-6.431,6.013a2.775,2.775,0,0,0,0,4.116A3.318,3.318,0,0,0,135.067,633.689Z" transform="translate(-93.786 -598.071)"/>
        <path id="Path_4851" data-name="Path 4851" d="M379.567,633.689a3.054,3.054,0,0,0,2.185-.846l6.431-6.013a2.775,2.775,0,0,0,0-4.116,3.264,3.264,0,0,0-4.4,0l-6.431,6.013a2.775,2.775,0,0,0,0,4.116A3.318,3.318,0,0,0,379.567,633.689Z" transform="translate(-261.953 -598.071)"/>
        <path id="Path_4852" data-name="Path 4852" d="M63.967,674.089a3,3,0,0,0,2.185-.846l6.431-6.013a2.775,2.775,0,0,0,0-4.116,3.264,3.264,0,0,0-4.4,0l-6.431,6.013a2.775,2.775,0,0,0,0,4.116A3.318,3.318,0,0,0,63.967,674.089Z" transform="translate(-44.884 -626.679)"/>
        <path id="Path_4853" data-name="Path 4853" d="M440.667,674.089a3.054,3.054,0,0,0,2.185-.846l6.431-6.013a2.775,2.775,0,0,0,0-4.116,3.264,3.264,0,0,0-4.4,0l-6.431,6.013a2.775,2.775,0,0,0,0,4.116A3.318,3.318,0,0,0,440.667,674.089Z" transform="translate(-303.978 -626.679)"/>
        <path id="Path_4854" data-name="Path 4854" d="M170.147,703.3h0c-2.4-33.859-31.47-60.567-66.779-62.056V635.4a3.129,3.129,0,0,0-6.244,0v5.838c-35.31,1.489-64.376,28.226-66.779,62.056a2.965,2.965,0,0,0,2.9,3.094,3.028,3.028,0,0,0,3.309-2.715c.593-8.465,8.991-15.062,19.075-15.062,10.022,0,18.513,6.655,19.325,15.149a3.139,3.139,0,0,0,6.213-.058c.531-7.56,7.305-13.66,15.953-14.857v47.578c0,6.276,5.807,11.588,12.675,11.588h.156c7.024-.292,12.519-5.487,12.519-11.822a3.129,3.129,0,0,0-6.244,0c0,3.182-2.841,5.779-6.494,5.984-3.434-.029-6.338-2.656-6.338-5.75V688.849c8.648,1.2,15.391,7.3,15.953,14.857a3.034,3.034,0,0,0,3.122,2.715h.219a3.024,3.024,0,0,0,2.9-2.656c.812-8.494,9.3-15.149,19.325-15.149,10.084,0,18.451,6.626,19.075,15.062a3.034,3.034,0,0,0,3.122,2.715h.219A2.949,2.949,0,0,0,170.147,703.3Zm-25.288-20.52a27.786,27.786,0,0,0-17.265,5.838,22.534,22.534,0,0,0-5.089,5.575c-4.308-6.83-12.707-11.413-22.26-11.413s-17.92,4.612-22.26,11.413a23.156,23.156,0,0,0-5.089-5.575,28.522,28.522,0,0,0-32.75-1.284c8.9-23.585,32.656-40.339,60.067-40.339,27.442,0,51.17,16.755,60.067,40.339A27.631,27.631,0,0,0,144.859,682.778Z" transform="translate(-23.905 -605.595)"/>
      </g>
    </g>
  </g>
</svg>
